<?xml version="1.0" encoding="utf-8"?>
<!-- Generator: Adobe Illustrator 15.0.2, SVG Export Plug-In . SVG Version: 6.00 Build 0)  -->
<!DOCTYPE svg PUBLIC "-//W3C//DTD SVG 1.1//EN" "http://www.w3.org/Graphics/SVG/1.1/DTD/svg11.dtd">
<svg version="1.1" id="Calque_1" xmlns="http://www.w3.org/2000/svg" xmlns:xlink="http://www.w3.org/1999/xlink" x="0px" y="0px"
	 width="36px" height="720px" viewBox="0 0 36 720" enable-background="new 0 0 36 720" xml:space="preserve">
<g>
	<g>
		<path fill="#2D2D2D" d="M17.999,2.999c8.271,0,15.002,6.729,15.002,15c0,8.271-6.729,15-15.002,15c-8.27,0-14.998-6.729-14.998-15
			C3.001,9.728,9.729,2.999,17.999,2.999 M17.999,1.999c-8.82,0-15.998,7.178-15.998,16c0,8.821,7.178,16,15.998,16
			c8.823,0,16.002-7.178,16.002-16C34.001,9.176,26.822,1.999,17.999,1.999L17.999,1.999z"/>
	</g>
	<g>
		<path fill="#2D2D2D" d="M17.999,39.499c7.996,0,14.502,6.505,14.502,14.5s-6.506,14.5-14.502,14.5
			c-7.994,0-14.498-6.504-14.498-14.5C3.501,46.004,10.005,39.499,17.999,39.499 M17.999,38.499c-8.545,0-15.498,6.954-15.498,15.5
			s6.953,15.5,15.498,15.5c8.549,0,15.502-6.953,15.502-15.5S26.548,38.499,17.999,38.499L17.999,38.499z"/>
	</g>
	<g>
		<path fill="#2D2D2D" d="M17.999,75.999c7.721,0,14.002,6.28,14.002,14c0,7.719-6.281,14-14.002,14c-7.719,0-13.998-6.28-13.998-14
			S10.28,75.999,17.999,75.999 M17.999,74.999c-8.27,0-14.998,6.729-14.998,15c0,8.271,6.729,15,14.998,15
			c8.271,0,15.002-6.729,15.002-15C33.001,81.728,26.271,74.999,17.999,74.999L17.999,74.999z"/>
	</g>
	<g>
		<path fill="#2D2D2D" d="M17.749,112.499c7.445,0,13.502,6.057,13.502,13.501c0,7.442-6.057,13.499-13.502,13.499
			c-7.443,0-13.498-6.057-13.498-13.499C4.251,118.556,10.306,112.499,17.749,112.499 M17.749,111.499
			c-7.994,0-14.498,6.504-14.498,14.501c0,7.996,6.504,14.499,14.498,14.499c7.997,0,14.502-6.503,14.502-14.499
			C32.251,118.003,25.746,111.499,17.749,111.499L17.749,111.499z"/>
	</g>
	<g>
		<path fill="#2D2D2D" d="M17.999,148.999c7.169,0,13.002,5.831,13.002,13.001c0,7.168-5.833,12.998-13.002,12.998
			c-7.167,0-12.998-5.83-12.998-12.998C5.001,154.83,10.832,148.999,17.999,148.999 M17.999,147.999
			c-7.718,0-13.998,6.278-13.998,14.001c0,7.721,6.28,13.998,13.998,13.998c7.723,0,14.002-6.277,14.002-13.998
			C32.001,154.279,25.722,147.999,17.999,147.999L17.999,147.999z"/>
	</g>
	<g>
		<path fill="#2D2D2D" d="M17.999,185.498c6.895,0,12.502,5.608,12.502,12.502c0,6.892-5.607,12.498-12.502,12.498
			c-6.892,0-12.498-5.606-12.498-12.498C5.501,191.108,11.107,185.498,17.999,185.498 M17.999,184.498
			c-7.441,0-13.498,6.056-13.498,13.502c0,7.444,6.057,13.498,13.498,13.498c7.446,0,13.502-6.054,13.502-13.498
			C31.501,190.554,25.445,184.498,17.999,184.498L17.999,184.498z"/>
	</g>
	<g>
		<path fill="#2D2D2D" d="M17.999,221.998c6.618,0,12.002,5.385,12.002,12.002c0,6.615-5.384,11.998-12.002,11.998
			c-6.615,0-11.998-5.383-11.998-11.998C6.001,227.383,11.384,221.998,17.999,221.998 M17.999,220.998
			c-7.166,0-12.998,5.83-12.998,13.002c0,7.17,5.832,12.998,12.998,12.998c7.171,0,13.002-5.828,13.002-12.998
			C31.001,226.828,25.17,220.998,17.999,220.998L17.999,220.998z"/>
	</g>
	<g>
		<path fill="#2D2D2D" d="M17.999,258.498c6.342,0,11.502,5.159,11.502,11.502c0,6.341-5.16,11.498-11.502,11.498
			c-6.34,0-11.498-5.157-11.498-11.498C6.501,263.657,11.659,258.498,17.999,258.498 M17.999,257.498
			c-6.89,0-12.498,5.605-12.498,12.502c0,6.895,5.608,12.498,12.498,12.498c6.896,0,12.502-5.604,12.502-12.498
			C30.501,263.105,24.894,257.498,17.999,257.498L17.999,257.498z"/>
	</g>
	<g>
		<path fill="#2D2D2D" d="M17.999,294.998c6.066,0,11.002,4.936,11.002,11.002c0,6.063-4.936,10.998-11.002,10.998
			c-6.064,0-10.998-4.935-10.998-10.998C7.001,299.934,11.935,294.998,17.999,294.998 M17.999,293.998
			c-6.613,0-11.998,5.382-11.998,12.002c0,6.618,5.385,11.998,11.998,11.998c6.62,0,12.002-5.38,12.002-11.998
			C30.001,299.38,24.618,293.998,17.999,293.998L17.999,293.998z"/>
	</g>
	<g>
		<path fill="#2D2D2D" d="M17.999,331.498c5.791,0,10.502,4.712,10.502,10.502c0,5.788-4.711,10.498-10.502,10.498
			c-5.789,0-10.498-4.71-10.498-10.498C7.501,336.21,12.21,331.498,17.999,331.498 M17.999,330.498
			c-6.338,0-11.498,5.156-11.498,11.502c0,6.344,5.16,11.498,11.498,11.498c6.344,0,11.502-5.154,11.502-11.498
			C29.501,335.656,24.343,330.498,17.999,330.498L17.999,330.498z"/>
	</g>
	<g>
		<path fill="#2D2D2D" d="M17.999,403.498c5.791,0,10.502,4.712,10.502,10.502c0,5.788-4.711,10.498-10.502,10.498
			c-5.789,0-10.498-4.71-10.498-10.498C7.501,408.21,12.21,403.498,17.999,403.498 M17.999,402.498
			c-6.338,0-11.498,5.156-11.498,11.502c0,6.344,5.16,11.498,11.498,11.498c6.344,0,11.502-5.154,11.502-11.498
			C29.501,407.656,24.343,402.498,17.999,402.498L17.999,402.498z"/>
	</g>
	<g>
		<path fill="#2D2D2D" d="M17.999,438.998c6.066,0,11.002,4.936,11.002,11.002c0,6.063-4.936,10.998-11.002,10.998
			c-6.064,0-10.998-4.935-10.998-10.998C7.001,443.934,11.935,438.998,17.999,438.998 M17.999,437.998
			c-6.613,0-11.998,5.382-11.998,12.002c0,6.618,5.385,11.998,11.998,11.998c6.62,0,12.002-5.38,12.002-11.998
			C30.001,443.38,24.618,437.998,17.999,437.998L17.999,437.998z"/>
	</g>
	<g>
		<path fill="#2D2D2D" d="M17.999,474.498c6.342,0,11.502,5.159,11.502,11.502c0,6.341-5.16,11.498-11.502,11.498
			c-6.34,0-11.498-5.157-11.498-11.498C6.501,479.657,11.659,474.498,17.999,474.498 M17.999,473.498
			c-6.89,0-12.498,5.605-12.498,12.502c0,6.895,5.608,12.498,12.498,12.498c6.896,0,12.502-5.604,12.502-12.498
			C30.501,479.105,24.894,473.498,17.999,473.498L17.999,473.498z"/>
	</g>
	<g>
		<path fill="#2D2D2D" d="M17.999,509.998c6.618,0,12.002,5.385,12.002,12.002c0,6.615-5.384,11.998-12.002,11.998
			c-6.615,0-11.998-5.383-11.998-11.998C6.001,515.383,11.384,509.998,17.999,509.998 M17.999,508.998
			c-7.166,0-12.998,5.83-12.998,13.002c0,7.17,5.832,12.998,12.998,12.998c7.171,0,13.002-5.828,13.002-12.998
			C31.001,514.828,25.17,508.998,17.999,508.998L17.999,508.998z"/>
	</g>
	<g>
		<path fill="#2D2D2D" d="M17.999,545.498c6.895,0,12.502,5.608,12.502,12.502c0,6.892-5.607,12.498-12.502,12.498
			c-6.892,0-12.498-5.606-12.498-12.498C5.501,551.108,11.107,545.498,17.999,545.498 M17.999,544.498
			c-7.441,0-13.498,6.056-13.498,13.502c0,7.444,6.057,13.498,13.498,13.498c7.446,0,13.502-6.054,13.502-13.498
			C31.501,550.554,25.445,544.498,17.999,544.498L17.999,544.498z"/>
	</g>
	<g>
		<path fill="#2D2D2D" d="M17.999,580.998c7.169,0,13.002,5.832,13.002,13.002c0,7.168-5.833,12.998-13.002,12.998
			c-7.167,0-12.998-5.83-12.998-12.998C5.001,586.83,10.832,580.998,17.999,580.998 M17.999,579.998
			c-7.718,0-13.998,6.279-13.998,14.002c0,7.721,6.28,13.998,13.998,13.998c7.723,0,14.002-6.277,14.002-13.998
			C32.001,586.279,25.722,579.998,17.999,579.998L17.999,579.998z"/>
	</g>
	<g>
		<path fill="#2D2D2D" d="M17.999,616.498c7.445,0,13.502,6.058,13.502,13.502c0,7.442-6.057,13.498-13.502,13.498
			c-7.443,0-13.498-6.056-13.498-13.498C4.501,622.556,10.556,616.498,17.999,616.498 M17.999,615.498
			c-7.994,0-14.498,6.505-14.498,14.502c0,7.995,6.504,14.498,14.498,14.498c7.997,0,14.502-6.503,14.502-14.498
			C32.501,622.003,25.996,615.498,17.999,615.498L17.999,615.498z"/>
	</g>
	<g>
		<path fill="#2D2D2D" d="M17.999,651.998c7.721,0,14.002,6.281,14.002,14.002c0,7.719-6.281,13.998-14.002,13.998
			c-7.719,0-13.998-6.279-13.998-13.998C4.001,658.281,10.28,651.998,17.999,651.998 M17.999,650.998
			c-8.27,0-14.998,6.729-14.998,15.002c0,8.271,6.729,14.998,14.998,14.998c8.271,0,15.002-6.728,15.002-14.998
			C33.001,657.728,26.271,650.998,17.999,650.998L17.999,650.998z"/>
	</g>
	<g>
		<path fill="#2D2D2D" d="M18.003,687.498c7.994,0,14.498,6.505,14.498,14.5s-6.504,14.5-14.498,14.5
			c-7.996,0-14.502-6.505-14.502-14.5S10.007,687.498,18.003,687.498 M18.003,686.498c-8.548,0-15.502,6.952-15.502,15.5
			s6.954,15.5,15.502,15.5c8.545,0,15.498-6.952,15.498-15.5S26.548,686.498,18.003,686.498L18.003,686.498z"/>
	</g>
	<g>
		<path fill="#2D2D2D" d="M17.999,367.998c5.516,0,10.002,4.486,10.002,10.002c0,5.514-4.486,9.998-10.002,9.998
			c-5.513,0-9.998-4.484-9.998-9.998C8.001,372.486,12.486,367.998,17.999,367.998 M17.999,366.998
			c-6.063,0-10.998,4.933-10.998,11.002c0,6.067,4.936,10.998,10.998,10.998c6.068,0,11.002-4.931,11.002-10.998
			C29.001,371.931,24.067,366.998,17.999,366.998L17.999,366.998z"/>
	</g>
	<rect y="0" fill="#607D8B" fill-opacity="0" width="36" height="720"/>
	<line fill="none" stroke="#2D2D2D" stroke-width="2" stroke-miterlimit="10" x1="18" y1="26.135" x2="18" y2="14.18"/>
	<circle fill="#2D2D2D" cx="18" cy="11.18" r="1.5"/>
	<line fill="none" stroke="#2D2D2D" stroke-width="2" stroke-miterlimit="10" x1="18" y1="62.059" x2="18" y2="50.477"/>
	<circle fill="#2D2D2D" cx="18" cy="47.44" r="1.5"/>
	<line fill="none" stroke="#2D2D2D" stroke-width="2" stroke-miterlimit="10" x1="18" y1="97.8" x2="18" y2="86.592"/>
	<circle fill="#2D2D2D" cx="18" cy="83.699" r="1.5"/>
	<line fill="none" stroke="#2D2D2D" stroke-width="2" stroke-miterlimit="10" x1="18.001" y1="133.59" x2="18.001" y2="122.754"/>
	<circle fill="#2D2D2D" cx="18.001" cy="119.959" r="1.5"/>
	<line fill="none" stroke="#2D2D2D" stroke-width="2" stroke-miterlimit="10" x1="18.001" y1="169.481" x2="18.001" y2="159.018"/>
	<circle fill="#2D2D2D" cx="18.001" cy="156.219" r="1.5"/>
	<line fill="none" stroke="#2D2D2D" stroke-width="2" stroke-miterlimit="10" x1="18.001" y1="205.17" x2="18.001" y2="195.079"/>
	<circle fill="#2D2D2D" cx="18.001" cy="192.479" r="1.5"/>
	<line fill="none" stroke="#2D2D2D" stroke-width="2" stroke-miterlimit="10" x1="18" y1="240.96" x2="18" y2="231.242"/>
	<circle fill="#2D2D2D" cx="18" cy="228.739" r="1.5"/>
	<line fill="none" stroke="#2D2D2D" stroke-width="2" stroke-miterlimit="10" x1="18" y1="276.75" x2="18" y2="267.406"/>
	<circle fill="#2D2D2D" cx="18" cy="264.997" r="1.5"/>
	<line fill="none" stroke="#2D2D2D" stroke-width="2" stroke-miterlimit="10" x1="18" y1="312.539" x2="18" y2="303.57"/>
	<circle fill="#2D2D2D" cx="18" cy="301.258" r="1.5"/>
	<line fill="none" stroke="#2D2D2D" stroke-width="2" stroke-miterlimit="10" x1="18" y1="348.329" x2="18" y2="339.733"/>
	<circle fill="#2D2D2D" cx="18" cy="337.518" r="1.5"/>
	<line fill="none" stroke="#2D2D2D" stroke-width="2" stroke-miterlimit="10" x1="18" y1="384.119" x2="18" y2="375.896"/>
	<circle fill="#2D2D2D" cx="18" cy="373.778" r="1.5"/>
	<line fill="none" stroke="#2D2D2D" stroke-width="2" stroke-miterlimit="10" x1="18" y1="420.329" x2="18" y2="411.733"/>
	<circle fill="#2D2D2D" cx="18" cy="409.518" r="1.5"/>
	<line fill="none" stroke="#2D2D2D" stroke-width="2" stroke-miterlimit="10" x1="18" y1="456.539" x2="18" y2="447.57"/>
	<circle fill="#2D2D2D" cx="18" cy="445.258" r="1.5"/>
	<line fill="none" stroke="#2D2D2D" stroke-width="2" stroke-miterlimit="10" x1="18" y1="492.75" x2="18" y2="483.406"/>
	<circle fill="#2D2D2D" cx="18" cy="480.997" r="1.5"/>
	<line fill="none" stroke="#2D2D2D" stroke-width="2" stroke-miterlimit="10" x1="18" y1="528.96" x2="18" y2="519.242"/>
	<circle fill="#2D2D2D" cx="18" cy="516.739" r="1.5"/>
	<line fill="none" stroke="#2D2D2D" stroke-width="2" stroke-miterlimit="10" x1="18" y1="565.17" x2="18" y2="555.079"/>
	<circle fill="#2D2D2D" cx="18" cy="552.479" r="1.5"/>
	<line fill="none" stroke="#2D2D2D" stroke-width="2" stroke-miterlimit="10" x1="18" y1="601.38" x2="18" y2="590.916"/>
	<circle fill="#2D2D2D" cx="18" cy="588.219" r="1.5"/>
	<line fill="none" stroke="#2D2D2D" stroke-width="2" stroke-miterlimit="10" x1="18" y1="637.59" x2="18" y2="626.754"/>
	<circle fill="#2D2D2D" cx="18" cy="623.959" r="1.5"/>
	<line fill="none" stroke="#2D2D2D" stroke-width="2" stroke-miterlimit="10" x1="18" y1="673.8" x2="18" y2="662.591"/>
	<circle fill="#2D2D2D" cx="18" cy="659.698" r="1.5"/>
	<line fill="none" stroke="#2D2D2D" stroke-width="2" stroke-miterlimit="10" x1="18" y1="710.01" x2="18" y2="698.428"/>
	<circle fill="#2D2D2D" cx="18" cy="695.44" r="1.5"/>
</g>
</svg>
