<?xml version="1.0" encoding="utf-8"?>
<!-- Generator: Adobe Illustrator 15.0.2, SVG Export Plug-In . SVG Version: 6.00 Build 0)  -->
<!DOCTYPE svg PUBLIC "-//W3C//DTD SVG 1.1//EN" "http://www.w3.org/Graphics/SVG/1.1/DTD/svg11.dtd">
<svg version="1.1" id="Calque_1" xmlns="http://www.w3.org/2000/svg" xmlns:xlink="http://www.w3.org/1999/xlink" x="0px" y="0px"
	 width="36px" height="432.002px" viewBox="0 0 36 432.002" enable-background="new 0 0 36 432.002" xml:space="preserve">
<g>
	<rect y="0" fill="#F44336" fill-opacity="0" width="36" height="432.002"/>
	<g opacity="0.5">
		<polygon fill="#F44336" points="8.935,97.791 8.937,97.793 8.937,97.791 		"/>
		<path fill="#F44336" d="M27.068,96.782H27.06c-0.073-2.365-1.075-4.502-2.664-6.061l-0.002-0.003l0,0
			c0.086,1.966-1.885,4.369-1.885,4.369s-2.438-2.184-2.438-6.737c0-0.002,0-0.002,0-0.004c0-4.56,0.663-6.962,0.663-6.962
			c-3.553,1.709-5.242,4.828-6.045,7.337c-0.686,2.135-0.725,3.827-0.725,3.827c-0.658-0.584-1.218-1.641-1.602-2.514
			c-0.352-0.797-0.557-1.443-0.557-1.443c-0.813,1.185-1.258,2.449-1.479,3.658c-0.451,2.474,0.04,4.695,0.243,5.449
			c0.047,0.176,0.077,0.273,0.077,0.273c-0.894,0.43-1.686-0.158-1.713-0.181c0.377,4.604,4.283,8.226,9.049,8.226
			c5.016,0,9.082-4.011,9.082-8.955c0-0.088-0.006-0.176-0.008-0.265C27.063,96.793,27.066,96.787,27.068,96.782z"/>
	</g>
	<g opacity="0.5">
		<polygon fill="#FC8521" points="12.188,65.076 12.192,65.076 12.19,65.074 		"/>
		<path fill="#FC8521" d="M24.317,63.121h-0.006c-0.215-1.586-1.041-2.951-2.217-3.889c-0.002-0.002-0.002-0.002-0.002-0.002l0,0
			c0.194,1.315-0.961,3.071-0.961,3.071s-1.793-1.297-2.115-4.362c0,0,0,0,0-0.002c-0.319-3.064-0.043-4.729-0.043-4.729
			c-2.271,1.4-3.188,3.615-3.551,5.359c-0.311,1.485-0.219,2.627-0.219,2.627c-0.482-0.348-0.934-1.021-1.254-1.578
			c-0.292-0.514-0.477-0.934-0.477-0.934c-0.463,0.854-0.674,1.737-0.735,2.563c-0.13,1.697,0.356,3.158,0.547,3.65
			c0.043,0.114,0.072,0.178,0.072,0.178c-0.572,0.352-1.146,0.012-1.166,0c0.575,3.07,3.459,5.232,6.665,4.896
			c3.373-0.354,5.828-3.336,5.479-6.661c-0.006-0.062-0.016-0.119-0.021-0.179C24.313,63.129,24.316,63.125,24.317,63.121z"/>
	</g>
	<g>
		<path fill="#FFC107" d="M14.815,68.035l0.002,0.002L14.815,68.035z"/>
		<path fill="#FFC107" d="M21.239,65.229h-0.002c-0.346-0.847-0.996-1.482-1.78-1.832c-0.001,0-0.001-0.002-0.001-0.002v0.002
			c0.295,0.696-0.094,1.834-0.094,1.834s-1.176-0.463-1.789-2.111l0,0c-0.615-1.647-0.699-2.606-0.699-2.606
			c-1.055,1.096-1.246,2.452-1.199,3.467c0.041,0.865,0.254,1.483,0.254,1.483c-0.315-0.125-0.66-0.432-0.918-0.694
			c-0.233-0.24-0.395-0.447-0.395-0.447c-0.135,0.537-0.125,1.057-0.043,1.522c0.172,0.955,0.648,1.693,0.822,1.938
			c0.041,0.059,0.065,0.09,0.065,0.09c-0.266,0.275-0.633,0.17-0.645,0.166c0.756,1.613,2.655,2.396,4.381,1.756
			c1.813-0.676,2.745-2.674,2.08-4.463c-0.013-0.031-0.026-0.063-0.039-0.096C21.239,65.233,21.239,65.231,21.239,65.229z"/>
	</g>
	<g opacity="0.5">
		<path fill="#FFC107" d="M14.815,32.035l0.002,0.002L14.815,32.035z"/>
		<path fill="#FFC107" d="M21.239,29.229h-0.002c-0.346-0.847-0.996-1.482-1.78-1.832c-0.001,0-0.001-0.002-0.001-0.002v0.002
			c0.295,0.696-0.094,1.834-0.094,1.834s-1.176-0.463-1.789-2.111l0,0c-0.615-1.647-0.699-2.606-0.699-2.606
			c-1.055,1.096-1.246,2.452-1.199,3.467c0.041,0.865,0.254,1.483,0.254,1.483c-0.315-0.125-0.66-0.432-0.918-0.694
			c-0.233-0.24-0.395-0.447-0.395-0.447c-0.135,0.537-0.125,1.057-0.043,1.522c0.172,0.955,0.648,1.693,0.822,1.938
			c0.041,0.059,0.065,0.09,0.065,0.09c-0.266,0.275-0.633,0.17-0.645,0.166c0.756,1.613,2.655,2.396,4.381,1.756
			c1.813-0.676,2.745-2.674,2.08-4.463c-0.013-0.031-0.026-0.063-0.039-0.096C21.239,29.233,21.239,29.231,21.239,29.229z"/>
	</g>
	<polygon fill="#607D8B" points="33.175,112.5 31.065,112.5 27.946,112.5 4.946,112.5 4.347,112.5 4.347,111.5 4.946,111.5 
		27.946,111.5 34.239,111.5 34.946,111.5 	"/>
	<path fill="#C06218" d="M20.001,113c0,0.549-0.449,1-1,1h-2c-0.55,0-1-0.451-1-1v-2c0-0.551,0.45-1,1-1h2c0.551,0,1,0.449,1,1V113z
		"/>
	<path fill="#C06218" d="M29.001,113c0,0.549-0.449,1-1,1h-2c-0.55,0-1-0.451-1-1v-2c0-0.551,0.45-1,1-1h2c0.551,0,1,0.449,1,1V113z
		"/>
	<path fill="#C06218" d="M11.001,113c0,0.549-0.449,1-1,1h-2c-0.55,0-1-0.451-1-1v-2c0-0.551,0.45-1,1-1h2c0.551,0,1,0.449,1,1V113z
		"/>
	<path fill="#607D8B" d="M3.001,111c0.553,0,1,0.447,1,1c0,0.554-0.447,1-1,1s-1-0.446-1-1C2.001,111.447,2.448,111,3.001,111
		 M3.001,110c-1.104,0-2,0.896-2,2c0,1.103,0.896,2,2,2s2-0.897,2-2S4.103,110,3.001,110L3.001,110z"/>
	<rect x="12.001" y="109" fill="#F44336" width="1" height="6"/>
	<rect x="5.001" y="109" fill="#FFC107" width="1" height="6"/>
	<rect x="14.001" y="109" fill="#4CAF50" width="1" height="6"/>
	<rect x="21.001" y="109" fill="#4CAF50" width="1" height="6"/>
	<rect x="23.001" y="109" fill="#FFC107" width="1" height="6"/>
	<rect x="30.001" y="109" fill="#F44336" width="1" height="6"/>
	<polygon fill="#607D8B" points="33.175,148.5 31.065,148.5 27.946,148.5 4.946,148.5 4.347,148.5 4.347,147.5 4.946,147.5 
		27.946,147.5 34.239,147.5 34.946,147.5 	"/>
	<path fill="#C06218" d="M20.001,149c0,0.549-0.449,1-1,1h-2c-0.55,0-1-0.451-1-1v-2c0-0.551,0.45-1,1-1h2c0.551,0,1,0.449,1,1V149z
		"/>
	<path fill="#C06218" d="M29.001,149c0,0.549-0.449,1-1,1h-2c-0.55,0-1-0.451-1-1v-2c0-0.551,0.45-1,1-1h2c0.551,0,1,0.449,1,1V149z
		"/>
	<path fill="#C06218" d="M11.001,149c0,0.549-0.449,1-1,1h-2c-0.55,0-1-0.451-1-1v-2c0-0.551,0.45-1,1-1h2c0.551,0,1,0.449,1,1V149z
		"/>
	<path fill="#607D8B" d="M3.001,147c0.553,0,1,0.447,1,1c0,0.554-0.447,1-1,1s-1-0.446-1-1C2.001,147.447,2.448,147,3.001,147
		 M3.001,146c-1.104,0-2,0.896-2,2c0,1.103,0.896,2,2,2s2-0.897,2-2S4.103,146,3.001,146L3.001,146z"/>
	<rect x="12.001" y="145" fill="#F44336" width="1" height="6"/>
	<rect x="5.001" y="145" fill="#FFC107" width="1" height="6"/>
	<rect x="14.001" y="145" fill="#4CAF50" width="1" height="6"/>
	<rect x="21.001" y="145" fill="#4CAF50" width="1" height="6"/>
	<rect x="23.001" y="145" fill="#FFC107" width="1" height="6"/>
	<rect x="30.001" y="145" fill="#F44336" width="1" height="6"/>
	<polygon fill="#607D8B" points="33.175,184.5 31.065,184.5 27.946,184.5 4.946,184.5 4.347,184.5 4.347,183.5 4.946,183.5 
		27.946,183.5 34.239,183.5 34.946,183.5 	"/>
	<path fill="#C06218" d="M20.001,185c0,0.55-0.449,1-1,1h-2c-0.55,0-1-0.45-1-1v-2c0-0.551,0.45-1,1-1h2c0.551,0,1,0.449,1,1V185z"
		/>
	<path fill="#C06218" d="M29.001,185c0,0.55-0.449,1-1,1h-2c-0.55,0-1-0.45-1-1v-2c0-0.551,0.45-1,1-1h2c0.551,0,1,0.449,1,1V185z"
		/>
	<path fill="#C06218" d="M11.001,185c0,0.55-0.449,1-1,1h-2c-0.55,0-1-0.45-1-1v-2c0-0.551,0.45-1,1-1h2c0.551,0,1,0.449,1,1V185z"
		/>
	<path fill="#607D8B" d="M3.001,183c0.553,0,1,0.447,1,1c0,0.554-0.447,1-1,1s-1-0.446-1-1C2.001,183.447,2.448,183,3.001,183
		 M3.001,182c-1.104,0-2,0.896-2,2c0,1.103,0.896,2,2,2s2-0.897,2-2S4.103,182,3.001,182L3.001,182z"/>
	<rect x="12.001" y="181" fill="#F44336" width="1" height="6"/>
	<rect x="5.001" y="181" fill="#FFC107" width="1" height="6"/>
	<rect x="14.001" y="181" fill="#4CAF50" width="1" height="6"/>
	<rect x="21.001" y="181" fill="#4CAF50" width="1" height="6"/>
	<rect x="23.001" y="181" fill="#FFC107" width="1" height="6"/>
	<rect x="30.001" y="181" fill="#F44336" width="1" height="6"/>
	<polygon fill="#607D8B" points="34.946,3.5 31.065,3.5 27.946,3.5 4.946,3.5 4.347,3.5 4.347,4.5 4.946,4.5 27.946,4.5 34.239,4.5 
		34.946,4.5 	"/>
	<path fill="#C06218" d="M20.001,6c0,0.549-0.449,1-1,1h-2c-0.55,0-1-0.451-1-1V2c0-0.551,0.45-1,1-1h2c0.551,0,1,0.449,1,1V6z"/>
	<path fill="#C06218" d="M29.001,6c0,0.549-0.449,1-1,1h-2c-0.55,0-1-0.451-1-1V2c0-0.551,0.45-1,1-1h2c0.551,0,1,0.449,1,1V6z"/>
	<path fill="#C06218" d="M11.001,6c0,0.549-0.449,1-1,1h-2c-0.55,0-1-0.451-1-1V2c0-0.551,0.45-1,1-1h2c0.551,0,1,0.449,1,1V6z"/>
	<path fill="#607D8B" d="M3.001,3c0.553,0,1,0.447,1,1s-0.447,1-1,1s-1-0.447-1-1S2.448,3,3.001,3 M3.001,2c-1.104,0-2,0.896-2,2
		c0,1.103,0.896,2,2,2s2-0.897,2-2C5.001,2.896,4.103,2,3.001,2L3.001,2z"/>
	<rect x="12.001" y="2" fill="#F44336" width="1" height="4"/>
	<rect x="5.001" y="2" fill="#FFC107" width="1" height="4"/>
	<rect x="14.001" y="2" fill="#4CAF50" width="1" height="4"/>
	<rect x="21.001" y="2" fill="#4CAF50" width="1" height="4"/>
	<rect x="23.001" y="2" fill="#FFC107" width="1" height="4"/>
	<rect x="30.001" y="2" fill="#F44336" width="1" height="4"/>
	<polygon fill="#607D8B" points="34.946,39.5 31.065,39.5 27.946,39.5 4.946,39.5 4.347,39.5 4.347,40.5 4.946,40.5 27.946,40.5 
		34.239,40.5 34.946,40.5 	"/>
	<path fill="#C06218" d="M20.001,42c0,0.549-0.449,1-1,1h-2c-0.55,0-1-0.451-1-1v-4c0-0.551,0.45-1,1-1h2c0.551,0,1,0.449,1,1V42z"
		/>
	<path fill="#C06218" d="M29.001,42c0,0.549-0.449,1-1,1h-2c-0.55,0-1-0.451-1-1v-4c0-0.551,0.45-1,1-1h2c0.551,0,1,0.449,1,1V42z"
		/>
	<path fill="#C06218" d="M11.001,42c0,0.549-0.449,1-1,1h-2c-0.55,0-1-0.451-1-1v-4c0-0.551,0.45-1,1-1h2c0.551,0,1,0.449,1,1V42z"
		/>
	<path fill="#607D8B" d="M3.001,39c0.553,0,1,0.447,1,1s-0.447,1-1,1s-1-0.447-1-1S2.448,39,3.001,39 M3.001,38
		c-1.104,0-2,0.896-2,2c0,1.103,0.896,2,2,2s2-0.897,2-2C5.001,38.896,4.103,38,3.001,38L3.001,38z"/>
	<rect x="12.001" y="38" fill="#F44336" width="1" height="4"/>
	<rect x="5.001" y="38" fill="#FFC107" width="1" height="4"/>
	<rect x="14.001" y="38" fill="#4CAF50" width="1" height="4"/>
	<rect x="21.001" y="38" fill="#4CAF50" width="1" height="4"/>
	<rect x="23.001" y="38" fill="#FFC107" width="1" height="4"/>
	<rect x="30.001" y="38" fill="#F44336" width="1" height="4"/>
	<polygon fill="#607D8B" points="34.946,75.499 31.065,75.499 27.946,75.499 4.946,75.499 4.347,75.499 4.347,76.499 4.946,76.499 
		27.946,76.499 34.239,76.499 34.946,76.499 	"/>
	<path fill="#C06218" d="M20.001,77.999c0,0.549-0.449,1-1,1h-2c-0.55,0-1-0.451-1-1v-4c0-0.551,0.45-1,1-1h2c0.551,0,1,0.449,1,1
		V77.999z"/>
	<path fill="#C06218" d="M29.001,77.999c0,0.549-0.449,1-1,1h-2c-0.55,0-1-0.451-1-1v-4c0-0.551,0.45-1,1-1h2c0.551,0,1,0.449,1,1
		V77.999z"/>
	<path fill="#C06218" d="M11.001,77.999c0,0.549-0.449,1-1,1h-2c-0.55,0-1-0.451-1-1v-4c0-0.551,0.45-1,1-1h2c0.551,0,1,0.449,1,1
		V77.999z"/>
	<path fill="#607D8B" d="M3.001,74.999c0.553,0,1,0.447,1,1s-0.447,1-1,1s-1-0.447-1-1S2.448,74.999,3.001,74.999 M3.001,73.999
		c-1.104,0-2,0.896-2,2c0,1.103,0.896,2,2,2s2-0.897,2-2S4.103,73.999,3.001,73.999L3.001,73.999z"/>
	<rect x="12.001" y="73.999" fill="#F44336" width="1" height="4"/>
	<rect x="5.001" y="73.999" fill="#FFC107" width="1" height="4"/>
	<rect x="14.001" y="73.999" fill="#4CAF50" width="1" height="4"/>
	<rect x="21.001" y="73.999" fill="#4CAF50" width="1" height="4"/>
	<rect x="23.001" y="73.999" fill="#FFC107" width="1" height="4"/>
	<rect x="30.001" y="73.999" fill="#F44336" width="1" height="4"/>
	<polygon fill="#607D8B" points="34.974,219.499 31.093,219.499 27.974,219.499 4.974,219.499 4.374,219.499 4.374,220.499 
		4.974,220.499 27.974,220.499 34.267,220.499 34.974,220.499 	"/>
	<path fill="#C06218" d="M20.028,221.999c0,0.55-0.45,1-1,1h-2c-0.551,0-1-0.45-1-1v-4c0-0.551,0.449-1,1-1h2c0.55,0,1,0.449,1,1
		V221.999z"/>
	<path fill="#C06218" d="M29.028,221.999c0,0.55-0.45,1-1,1h-2c-0.551,0-1-0.45-1-1v-4c0-0.551,0.449-1,1-1h2c0.55,0,1,0.449,1,1
		V221.999z"/>
	<path fill="#C06218" d="M11.028,221.999c0,0.55-0.45,1-1,1h-2c-0.551,0-1-0.45-1-1v-4c0-0.551,0.449-1,1-1h2c0.55,0,1,0.449,1,1
		V221.999z"/>
	<path fill="#607D8B" d="M3.028,218.999c0.553,0,1,0.447,1,1c0,0.554-0.447,1-1,1s-1-0.446-1-1
		C2.028,219.446,2.476,218.999,3.028,218.999 M3.028,217.999c-1.104,0-2,0.896-2,2c0,1.103,0.896,2,2,2s2-0.897,2-2
		S4.132,217.999,3.028,217.999L3.028,217.999z"/>
	<rect x="12.028" y="217.999" fill="#F44336" width="1" height="4"/>
	<rect x="5.028" y="217.999" fill="#FFC107" width="1" height="4"/>
	<rect x="14.028" y="217.999" fill="#4CAF50" width="1" height="4"/>
	<rect x="21.028" y="217.999" fill="#4CAF50" width="1" height="4"/>
	<rect x="23.028" y="217.999" fill="#FFC107" width="1" height="4"/>
	<rect x="30.028" y="217.999" fill="#F44336" width="1" height="4"/>
	<polygon fill="#607D8B" points="34.974,255.499 31.093,255.499 27.974,255.499 4.974,255.499 4.374,255.499 4.374,256.499 
		4.974,256.499 27.974,256.499 34.267,256.499 34.974,256.499 	"/>
	<path fill="#C06218" d="M20.028,257.999c0,0.55-0.45,1-1,1h-2c-0.551,0-1-0.45-1-1v-4c0-0.551,0.449-1,1-1h2c0.55,0,1,0.449,1,1
		V257.999z"/>
	<path fill="#C06218" d="M29.028,257.999c0,0.55-0.45,1-1,1h-2c-0.551,0-1-0.45-1-1v-4c0-0.551,0.449-1,1-1h2c0.55,0,1,0.449,1,1
		V257.999z"/>
	<path fill="#C06218" d="M11.028,257.999c0,0.55-0.45,1-1,1h-2c-0.551,0-1-0.45-1-1v-4c0-0.551,0.449-1,1-1h2c0.55,0,1,0.449,1,1
		V257.999z"/>
	<path fill="#607D8B" d="M3.028,254.999c0.553,0,1,0.447,1,1c0,0.554-0.447,1-1,1s-1-0.446-1-1
		C2.028,255.446,2.476,254.999,3.028,254.999 M3.028,253.999c-1.104,0-2,0.896-2,2c0,1.103,0.896,2,2,2s2-0.897,2-2
		S4.132,253.999,3.028,253.999L3.028,253.999z"/>
	<rect x="12.028" y="253.999" fill="#F44336" width="1" height="4"/>
	<rect x="5.028" y="253.999" fill="#FFC107" width="1" height="4"/>
	<rect x="14.028" y="253.999" fill="#4CAF50" width="1" height="4"/>
	<rect x="21.028" y="253.999" fill="#4CAF50" width="1" height="4"/>
	<rect x="23.028" y="253.999" fill="#FFC107" width="1" height="4"/>
	<rect x="30.028" y="253.999" fill="#F44336" width="1" height="4"/>
	<polygon fill="#607D8B" points="34.974,291.499 31.093,291.499 27.974,291.499 4.974,291.499 4.374,291.499 4.374,292.499 
		4.974,292.499 27.974,292.499 34.267,292.499 34.974,292.499 	"/>
	<path fill="#C06218" d="M20.028,293.999c0,0.55-0.45,1-1,1h-2c-0.551,0-1-0.45-1-1v-4c0-0.551,0.449-1,1-1h2c0.55,0,1,0.449,1,1
		V293.999z"/>
	<path fill="#C06218" d="M29.028,293.999c0,0.55-0.45,1-1,1h-2c-0.551,0-1-0.45-1-1v-4c0-0.551,0.449-1,1-1h2c0.55,0,1,0.449,1,1
		V293.999z"/>
	<path fill="#C06218" d="M11.028,293.999c0,0.55-0.45,1-1,1h-2c-0.551,0-1-0.45-1-1v-4c0-0.551,0.449-1,1-1h2c0.55,0,1,0.449,1,1
		V293.999z"/>
	<path fill="#607D8B" d="M3.028,290.999c0.553,0,1,0.447,1,1c0,0.554-0.447,1-1,1s-1-0.446-1-1
		C2.028,291.446,2.476,290.999,3.028,290.999 M3.028,289.999c-1.104,0-2,0.896-2,2c0,1.103,0.896,2,2,2s2-0.897,2-2
		S4.132,289.999,3.028,289.999L3.028,289.999z"/>
	<rect x="12.028" y="289.999" fill="#F44336" width="1" height="4"/>
	<rect x="5.028" y="289.999" fill="#FFC107" width="1" height="4"/>
	<rect x="14.028" y="289.999" fill="#4CAF50" width="1" height="4"/>
	<rect x="21.028" y="289.999" fill="#4CAF50" width="1" height="4"/>
	<rect x="23.028" y="289.999" fill="#FFC107" width="1" height="4"/>
	<rect x="30.028" y="289.999" fill="#F44336" width="1" height="4"/>
	<g opacity="0.25">
		<polygon fill="#FC8521" points="12.218,389.076 12.22,389.076 12.218,389.074 		"/>
		<path fill="#FC8521" d="M24.345,387.121h-0.004c-0.217-1.586-1.041-2.95-2.219-3.889c-0.002-0.002-0.002-0.002-0.002-0.002l0,0
			c0.195,1.316-0.961,3.072-0.961,3.072s-1.793-1.297-2.115-4.363c0,0,0,0,0-0.002c-0.318-3.064-0.042-4.729-0.042-4.729
			c-2.271,1.399-3.188,3.614-3.551,5.358c-0.312,1.486-0.219,2.627-0.219,2.627c-0.483-0.348-0.935-1.02-1.255-1.578
			c-0.291-0.514-0.476-0.934-0.476-0.934c-0.464,0.854-0.674,1.738-0.735,2.563c-0.131,1.697,0.356,3.158,0.547,3.65
			c0.043,0.115,0.072,0.178,0.072,0.178c-0.572,0.353-1.146,0.013-1.166,0c0.576,3.07,3.459,5.232,6.664,4.896
			c3.375-0.354,5.828-3.336,5.479-6.662c-0.006-0.061-0.017-0.119-0.022-0.178C24.343,387.13,24.345,387.125,24.345,387.121z"/>
	</g>
	<g opacity="0.75">
		<path fill="#FFC107" d="M14.843,392.035l0.002,0.002L14.843,392.035z"/>
		<path fill="#FFC107" d="M21.267,389.229h-0.002c-0.347-0.846-0.996-1.482-1.78-1.832c-0.001,0-0.001-0.002-0.001-0.002v0.002
			c0.295,0.697-0.094,1.834-0.094,1.834s-1.176-0.463-1.789-2.111l0,0c-0.615-1.647-0.699-2.606-0.699-2.606
			c-1.055,1.096-1.246,2.453-1.199,3.467c0.041,0.865,0.254,1.484,0.254,1.484c-0.316-0.125-0.66-0.433-0.918-0.695
			c-0.234-0.24-0.395-0.447-0.395-0.447c-0.135,0.537-0.125,1.058-0.043,1.523c0.172,0.955,0.647,1.692,0.822,1.938
			c0.041,0.06,0.065,0.09,0.065,0.09c-0.267,0.275-0.634,0.17-0.646,0.166c0.756,1.613,2.656,2.396,4.381,1.757
			c1.814-0.677,2.746-2.675,2.08-4.464c-0.013-0.03-0.025-0.063-0.039-0.096C21.267,389.233,21.267,389.231,21.267,389.229z"/>
	</g>
	<g opacity="0.25">
		<path fill="#FFC107" d="M15.15,428.036l0.002,0.001L15.15,428.036z"/>
		<path fill="#FFC107" d="M21.574,425.229l-0.002,0.001c-0.347-0.846-0.996-1.483-1.78-1.833c-0.001,0-0.001-0.001-0.001-0.001
			v0.001c0.295,0.697-0.094,1.834-0.094,1.834s-1.177-0.462-1.789-2.11v-0.001c-0.615-1.647-0.699-2.606-0.699-2.606
			c-1.055,1.096-1.245,2.453-1.198,3.468c0.041,0.864,0.254,1.483,0.254,1.483c-0.316-0.124-0.66-0.432-0.918-0.695
			c-0.234-0.24-0.396-0.446-0.396-0.446c-0.135,0.537-0.125,1.057-0.043,1.522c0.172,0.955,0.647,1.692,0.821,1.938
			c0.041,0.059,0.066,0.089,0.066,0.089c-0.266,0.275-0.633,0.17-0.645,0.166c0.756,1.613,2.656,2.397,4.381,1.757
			c1.814-0.677,2.745-2.675,2.08-4.464c-0.014-0.03-0.026-0.063-0.039-0.095C21.574,425.234,21.574,425.231,21.574,425.229z"/>
	</g>
	<polygon fill="#607D8B" points="33.175,363.5 31.065,363.5 27.946,363.5 4.946,363.5 4.347,363.5 4.347,364.5 4.946,364.5 
		27.946,364.5 34.239,364.5 34.946,364.5 	"/>
	<path fill="#C06218" d="M20,365c0,0.55-0.448,1-1,1h-2c-0.549,0-1-0.45-1-1v-2c0-0.551,0.451-1,1-1h2c0.552,0,1,0.449,1,1V365z"/>
	<path fill="#C06218" d="M29.001,365c0,0.55-0.449,1-1,1h-2c-0.549,0-1-0.45-1-1v-2c0-0.551,0.451-1,1-1h2c0.551,0,1,0.449,1,1V365z
		"/>
	<path fill="#C06218" d="M11,365c0,0.55-0.448,1-1,1H8c-0.549,0-1-0.45-1-1v-2c0-0.551,0.451-1,1-1h2c0.552,0,1,0.449,1,1V365z"/>
	<path fill="#607D8B" d="M3,363c0.554,0,1,0.447,1,1c0,0.554-0.446,1-1,1c-0.553,0-1-0.446-1-1C2,363.447,2.448,363,3,363 M3,362
		c-1.104,0-2,0.896-2,2s0.896,2,2,2s2-0.896,2-2C5,362.897,4.104,362,3,362L3,362z"/>
	<rect x="12" y="361" fill="#F44336" width="1" height="6"/>
	<rect x="5" y="361" fill="#FFC107" width="1" height="6"/>
	<rect x="14" y="361" fill="#4CAF50" width="1" height="6"/>
	<rect x="21" y="361" fill="#4CAF50" width="1" height="6"/>
	<rect x="23" y="361" fill="#FFC107" width="1" height="6"/>
	<rect x="30.001" y="361" fill="#F44336" width="1" height="6"/>
	<polygon fill="#607D8B" points="33.175,399.5 31.065,399.5 27.946,399.5 4.946,399.5 4.347,399.5 4.347,400.5 4.946,400.5 
		27.946,400.5 34.239,400.5 34.946,400.5 	"/>
	<path fill="#C06218" d="M20,401c0,0.55-0.448,1-1,1h-2c-0.549,0-1-0.45-1-1v-2c0-0.551,0.451-1,1-1h2c0.552,0,1,0.449,1,1V401z"/>
	<path fill="#C06218" d="M29.001,401c0,0.55-0.449,1-1,1h-2c-0.549,0-1-0.45-1-1v-2c0-0.551,0.451-1,1-1h2c0.551,0,1,0.449,1,1V401z
		"/>
	<path fill="#C06218" d="M11,401c0,0.55-0.448,1-1,1H8c-0.549,0-1-0.45-1-1v-2c0-0.551,0.451-1,1-1h2c0.552,0,1,0.449,1,1V401z"/>
	<path fill="#607D8B" d="M3,399c0.554,0,1,0.447,1,1c0,0.554-0.446,1-1,1c-0.553,0-1-0.446-1-1C2,399.447,2.448,399,3,399 M3,398
		c-1.104,0-2,0.896-2,2s0.896,2,2,2s2-0.896,2-2C5,398.897,4.104,398,3,398L3,398z"/>
	<rect x="12" y="397" fill="#F44336" width="1" height="6"/>
	<rect x="5" y="397" fill="#FFC107" width="1" height="6"/>
	<rect x="14" y="397" fill="#4CAF50" width="1" height="6"/>
	<rect x="21" y="397" fill="#4CAF50" width="1" height="6"/>
	<rect x="23" y="397" fill="#FFC107" width="1" height="6"/>
	<rect x="30.001" y="397" fill="#F44336" width="1" height="6"/>
	<polygon fill="#607D8B" points="33.202,327.5 31.093,327.5 27.974,327.5 4.974,327.5 4.374,327.5 4.374,328.5 4.974,328.5 
		27.974,328.5 34.267,328.5 34.974,328.5 	"/>
	<path fill="#C06218" d="M20.028,329c0,0.55-0.45,1-1,1h-2c-0.551,0-1-0.45-1-1v-2c0-0.551,0.449-1,1-1h2c0.55,0,1,0.449,1,1V329z"
		/>
	<path fill="#C06218" d="M29.028,329c0,0.55-0.45,1-1,1h-2c-0.551,0-1-0.45-1-1v-2c0-0.551,0.449-1,1-1h2c0.55,0,1,0.449,1,1V329z"
		/>
	<path fill="#C06218" d="M11.028,329c0,0.55-0.45,1-1,1h-2c-0.551,0-1-0.45-1-1v-2c0-0.551,0.449-1,1-1h2c0.55,0,1,0.449,1,1V329z"
		/>
	<path fill="#607D8B" d="M3.028,327c0.553,0,1,0.447,1,1c0,0.554-0.447,1-1,1s-1-0.446-1-1C2.028,327.447,2.476,327,3.028,327
		 M3.028,326c-1.104,0-2,0.896-2,2c0,1.103,0.896,2,2,2s2-0.897,2-2S4.132,326,3.028,326L3.028,326z"/>
	<rect x="12.028" y="325" fill="#F44336" width="1" height="6"/>
	<rect x="5.028" y="325" fill="#FFC107" width="1" height="6"/>
	<rect x="14.028" y="325" fill="#4CAF50" width="1" height="6"/>
	<rect x="21.028" y="325" fill="#4CAF50" width="1" height="6"/>
	<rect x="23.028" y="325" fill="#FFC107" width="1" height="6"/>
	<rect x="30.028" y="325" fill="#F44336" width="1" height="6"/>
	<g opacity="0.25">
		<polygon fill="#F44336" points="8.935,349.791 8.937,349.793 8.937,349.791 		"/>
		<path fill="#F44336" d="M27.068,348.782H27.06c-0.073-2.364-1.075-4.502-2.664-6.061l-0.002-0.002l0,0
			c0.086,1.965-1.885,4.369-1.885,4.369s-2.438-2.185-2.438-6.738c0-0.002,0-0.002,0-0.004c0-4.56,0.663-6.961,0.663-6.961
			c-3.553,1.709-5.242,4.828-6.045,7.336c-0.686,2.135-0.725,3.828-0.725,3.828c-0.658-0.584-1.218-1.642-1.602-2.515
			c-0.352-0.797-0.557-1.442-0.557-1.442c-0.813,1.184-1.258,2.448-1.479,3.657c-0.451,2.474,0.04,4.695,0.243,5.449
			c0.047,0.176,0.077,0.273,0.077,0.273c-0.894,0.43-1.686-0.158-1.713-0.181c0.377,4.604,4.283,8.226,9.049,8.226
			c5.016,0,9.082-4.01,9.082-8.955c0-0.088-0.006-0.176-0.008-0.264C27.063,348.793,27.066,348.787,27.068,348.782z"/>
	</g>
	<g opacity="0.75">
		<polygon fill="#FC8521" points="12.188,353.076 12.192,353.076 12.19,353.074 		"/>
		<path fill="#FC8521" d="M24.317,351.121h-0.006c-0.215-1.586-1.041-2.95-2.217-3.889c-0.002-0.002-0.002-0.002-0.002-0.002l0,0
			c0.194,1.316-0.961,3.072-0.961,3.072s-1.793-1.297-2.115-4.363c0,0,0,0,0-0.002c-0.319-3.064-0.043-4.729-0.043-4.729
			c-2.271,1.4-3.188,3.615-3.551,5.359c-0.311,1.486-0.219,2.627-0.219,2.627c-0.482-0.348-0.934-1.02-1.254-1.578
			c-0.292-0.514-0.477-0.934-0.477-0.934c-0.463,0.854-0.674,1.738-0.735,2.563c-0.13,1.697,0.356,3.158,0.547,3.65
			c0.043,0.115,0.072,0.178,0.072,0.178c-0.572,0.353-1.146,0.012-1.166,0c0.575,3.07,3.459,5.232,6.665,4.896
			c3.373-0.354,5.828-3.336,5.479-6.662c-0.006-0.062-0.016-0.119-0.021-0.178C24.313,351.13,24.316,351.125,24.317,351.121z"/>
	</g>
	<g>
		<path fill="#FFC107" d="M14.815,356.035l0.002,0.002L14.815,356.035z"/>
		<path fill="#FFC107" d="M21.239,353.229h-0.002c-0.346-0.846-0.996-1.482-1.78-1.832c-0.001,0-0.001-0.002-0.001-0.002v0.002
			c0.295,0.697-0.094,1.834-0.094,1.834s-1.176-0.463-1.789-2.111l0,0c-0.615-1.647-0.699-2.606-0.699-2.606
			c-1.055,1.096-1.246,2.453-1.199,3.467c0.041,0.865,0.254,1.484,0.254,1.484c-0.315-0.125-0.66-0.433-0.918-0.695
			c-0.233-0.24-0.395-0.447-0.395-0.447c-0.135,0.537-0.125,1.058-0.043,1.523c0.172,0.955,0.648,1.692,0.822,1.938
			c0.041,0.06,0.065,0.09,0.065,0.09c-0.266,0.275-0.633,0.171-0.645,0.166c0.756,1.613,2.655,2.396,4.381,1.757
			c1.813-0.677,2.745-2.675,2.08-4.464c-0.013-0.03-0.026-0.063-0.039-0.096C21.239,353.233,21.239,353.231,21.239,353.229z"/>
	</g>
	<g>
		<polygon fill="#FC8521" points="12.188,101.076 12.192,101.076 12.19,101.074 		"/>
		<path fill="#FC8521" d="M24.317,99.121h-0.006c-0.215-1.586-1.041-2.951-2.217-3.889c-0.002-0.002-0.002-0.002-0.002-0.002l0,0
			c0.194,1.315-0.961,3.071-0.961,3.071s-1.793-1.297-2.115-4.362c0,0,0,0,0-0.002c-0.319-3.064-0.043-4.729-0.043-4.729
			c-2.271,1.4-3.188,3.615-3.551,5.359c-0.311,1.485-0.219,2.627-0.219,2.627c-0.482-0.348-0.934-1.021-1.254-1.578
			c-0.292-0.514-0.477-0.934-0.477-0.934c-0.463,0.854-0.674,1.737-0.735,2.563c-0.13,1.697,0.356,3.158,0.547,3.65
			c0.043,0.114,0.072,0.178,0.072,0.178c-0.572,0.352-1.146,0.012-1.166,0c0.575,3.07,3.459,5.232,6.665,4.896
			c3.373-0.354,5.828-3.336,5.479-6.661c-0.006-0.062-0.016-0.119-0.021-0.179C24.313,99.129,24.316,99.125,24.317,99.121z"/>
	</g>
	<g>
		<path fill="#FFC107" d="M14.815,104.035l0.002,0.002L14.815,104.035z"/>
		<path fill="#FFC107" d="M21.239,101.229h-0.002c-0.346-0.847-0.996-1.482-1.78-1.832c-0.001,0-0.001-0.002-0.001-0.002v0.002
			c0.295,0.696-0.094,1.834-0.094,1.834s-1.176-0.463-1.789-2.111l0,0c-0.615-1.647-0.699-2.606-0.699-2.606
			c-1.055,1.096-1.246,2.452-1.199,3.467c0.041,0.865,0.254,1.483,0.254,1.483c-0.315-0.125-0.66-0.432-0.918-0.694
			c-0.233-0.24-0.395-0.447-0.395-0.447c-0.135,0.537-0.125,1.057-0.043,1.522c0.172,0.955,0.648,1.693,0.822,1.938
			c0.041,0.059,0.065,0.09,0.065,0.09c-0.266,0.275-0.633,0.17-0.645,0.166c0.756,1.613,2.655,2.396,4.381,1.756
			c1.813-0.676,2.745-2.674,2.08-4.463c-0.013-0.031-0.026-0.063-0.039-0.096C21.239,101.233,21.239,101.231,21.239,101.229z"/>
	</g>
	<g>
		<polygon fill="#F44336" points="8.935,133.791 8.937,133.793 8.937,133.791 		"/>
		<path fill="#F44336" d="M27.068,132.782H27.06c-0.073-2.365-1.075-4.502-2.664-6.061l-0.002-0.003l0,0
			c0.086,1.966-1.885,4.369-1.885,4.369s-2.438-2.184-2.438-6.737c0-0.002,0-0.002,0-0.004c0-4.56,0.663-6.962,0.663-6.962
			c-3.553,1.709-5.242,4.828-6.045,7.337c-0.686,2.135-0.725,3.827-0.725,3.827c-0.658-0.584-1.218-1.641-1.602-2.514
			c-0.352-0.797-0.557-1.443-0.557-1.443c-0.813,1.185-1.258,2.449-1.479,3.658c-0.451,2.474,0.04,4.695,0.243,5.449
			c0.047,0.176,0.077,0.273,0.077,0.273c-0.894,0.43-1.686-0.158-1.713-0.181c0.377,4.604,4.283,8.226,9.049,8.226
			c5.016,0,9.082-4.011,9.082-8.955c0-0.088-0.006-0.176-0.008-0.265C27.063,132.793,27.066,132.787,27.068,132.782z"/>
	</g>
	<g>
		<polygon fill="#FC8521" points="12.188,137.076 12.192,137.076 12.19,137.074 		"/>
		<path fill="#FC8521" d="M24.317,135.121h-0.006c-0.215-1.586-1.041-2.951-2.217-3.889c-0.002-0.002-0.002-0.002-0.002-0.002l0,0
			c0.194,1.315-0.961,3.071-0.961,3.071s-1.793-1.297-2.115-4.362c0,0,0,0,0-0.002c-0.319-3.064-0.043-4.729-0.043-4.729
			c-2.271,1.4-3.188,3.615-3.551,5.359c-0.311,1.485-0.219,2.627-0.219,2.627c-0.482-0.348-0.934-1.021-1.254-1.578
			c-0.292-0.514-0.477-0.934-0.477-0.934c-0.463,0.854-0.674,1.737-0.735,2.563c-0.13,1.697,0.356,3.158,0.547,3.65
			c0.043,0.114,0.072,0.178,0.072,0.178c-0.572,0.352-1.146,0.012-1.166,0c0.575,3.07,3.459,5.232,6.665,4.896
			c3.373-0.354,5.828-3.336,5.479-6.661c-0.006-0.062-0.016-0.119-0.021-0.179C24.313,135.129,24.316,135.125,24.317,135.121z"/>
	</g>
	<g>
		<path fill="#FFC107" d="M14.815,140.035l0.002,0.002L14.815,140.035z"/>
		<path fill="#FFC107" d="M21.239,137.229h-0.002c-0.346-0.847-0.996-1.482-1.78-1.832c-0.001,0-0.001-0.002-0.001-0.002v0.002
			c0.295,0.696-0.094,1.834-0.094,1.834s-1.176-0.463-1.789-2.111l0,0c-0.615-1.647-0.699-2.606-0.699-2.606
			c-1.055,1.096-1.246,2.452-1.199,3.467c0.041,0.865,0.254,1.483,0.254,1.483c-0.315-0.125-0.66-0.432-0.918-0.694
			c-0.233-0.24-0.395-0.447-0.395-0.447c-0.135,0.537-0.125,1.057-0.043,1.523c0.172,0.954,0.648,1.692,0.822,1.938
			c0.041,0.059,0.065,0.09,0.065,0.09c-0.266,0.275-0.633,0.17-0.645,0.166c0.756,1.613,2.655,2.396,4.381,1.756
			c1.813-0.676,2.745-2.674,2.08-4.463c-0.013-0.031-0.026-0.063-0.039-0.096C21.239,137.233,21.239,137.231,21.239,137.229z"/>
	</g>
	<g opacity="0.75">
		<polygon fill="#F44336" points="8.935,313.791 8.937,313.793 8.937,313.791 		"/>
		<path fill="#F44336" d="M27.068,312.782H27.06c-0.073-2.364-1.075-4.502-2.664-6.061l-0.002-0.002l0,0
			c0.086,1.965-1.885,4.369-1.885,4.369s-2.438-2.185-2.438-6.738c0-0.002,0-0.002,0-0.004c0-4.56,0.663-6.961,0.663-6.961
			c-3.553,1.709-5.242,4.828-6.045,7.336c-0.686,2.135-0.725,3.828-0.725,3.828c-0.658-0.584-1.218-1.642-1.602-2.515
			c-0.352-0.797-0.557-1.442-0.557-1.442c-0.813,1.184-1.258,2.448-1.479,3.657c-0.451,2.474,0.04,4.695,0.243,5.449
			c0.047,0.176,0.077,0.273,0.077,0.273c-0.894,0.43-1.686-0.158-1.713-0.181c0.377,4.604,4.283,8.226,9.049,8.226
			c5.016,0,9.082-4.01,9.082-8.955c0-0.088-0.006-0.176-0.008-0.264C27.063,312.793,27.066,312.787,27.068,312.782z"/>
	</g>
	<g>
		<polygon fill="#FC8521" points="12.188,317.076 12.192,317.076 12.19,317.074 		"/>
		<path fill="#FC8521" d="M24.317,315.121h-0.006c-0.215-1.586-1.041-2.95-2.217-3.889c-0.002-0.002-0.002-0.002-0.002-0.002l0,0
			c0.194,1.316-0.961,3.072-0.961,3.072s-1.793-1.297-2.115-4.363c0,0,0,0,0-0.002c-0.319-3.064-0.043-4.729-0.043-4.729
			c-2.271,1.4-3.188,3.615-3.551,5.359c-0.311,1.486-0.219,2.627-0.219,2.627c-0.482-0.348-0.934-1.02-1.254-1.578
			c-0.292-0.514-0.477-0.934-0.477-0.934c-0.463,0.854-0.674,1.738-0.735,2.563c-0.13,1.697,0.356,3.158,0.547,3.65
			c0.043,0.115,0.072,0.178,0.072,0.178c-0.572,0.353-1.146,0.012-1.166,0c0.575,3.07,3.459,5.232,6.665,4.896
			c3.373-0.354,5.828-3.336,5.479-6.662c-0.006-0.062-0.016-0.119-0.021-0.178C24.313,315.13,24.316,315.125,24.317,315.121z"/>
	</g>
	<g>
		<path fill="#FFC107" d="M14.815,320.035l0.002,0.002L14.815,320.035z"/>
		<path fill="#FFC107" d="M21.239,317.229h-0.002c-0.346-0.846-0.996-1.482-1.78-1.832c-0.001,0-0.001-0.002-0.001-0.002v0.002
			c0.295,0.697-0.094,1.834-0.094,1.834s-1.176-0.463-1.789-2.111l0,0c-0.615-1.647-0.699-2.606-0.699-2.606
			c-1.055,1.096-1.246,2.453-1.199,3.467c0.041,0.865,0.254,1.484,0.254,1.484c-0.315-0.125-0.66-0.433-0.918-0.695
			c-0.233-0.24-0.395-0.447-0.395-0.447c-0.135,0.537-0.125,1.058-0.043,1.523c0.172,0.955,0.648,1.692,0.822,1.938
			c0.041,0.06,0.065,0.09,0.065,0.09c-0.266,0.275-0.633,0.171-0.645,0.166c0.756,1.613,2.655,2.396,4.381,1.757
			c1.813-0.677,2.745-2.675,2.08-4.464c-0.013-0.03-0.026-0.063-0.039-0.096C21.239,317.233,21.239,317.231,21.239,317.229z"/>
	</g>
	<path opacity="0.25" fill="#F44336" enable-background="new    " d="M13.618,294.936c0,0,1.146,1.348,1.146,2.494
		c0,1.146-1.037,1.893-1.037,4.858c0,0-1.584-1.348-1.584-2.967C12.144,297.701,13.618,295.61,13.618,294.936z"/>
	<path opacity="0.5" fill="#F44336" enable-background="new    " d="M13.618,114.936c0,0,1.146,1.348,1.146,2.494
		c0,1.146-1.037,1.893-1.037,4.858c0,0-1.584-1.348-1.584-2.967C12.144,117.701,13.618,115.61,13.618,114.936z"/>
	<g>
		<polygon fill="#F44336" points="8.935,169.791 8.937,169.793 8.937,169.791 		"/>
		<path fill="#F44336" d="M27.068,168.782H27.06c-0.073-2.364-1.075-4.502-2.664-6.061l-0.002-0.002l0,0
			c0.086,1.965-1.885,4.369-1.885,4.369s-2.438-2.185-2.438-6.738c0-0.002,0-0.002,0-0.004c0-4.56,0.663-6.961,0.663-6.961
			c-3.553,1.709-5.242,4.828-6.045,7.336c-0.686,2.135-0.725,3.828-0.725,3.828c-0.658-0.584-1.218-1.642-1.602-2.515
			c-0.352-0.797-0.557-1.442-0.557-1.442c-0.813,1.184-1.258,2.448-1.479,3.657c-0.451,2.474,0.04,4.695,0.243,5.449
			c0.047,0.176,0.077,0.273,0.077,0.273c-0.894,0.43-1.686-0.158-1.713-0.181c0.377,4.604,4.283,8.226,9.049,8.226
			c5.016,0,9.082-4.01,9.082-8.955c0-0.088-0.006-0.176-0.008-0.264C27.063,168.793,27.066,168.787,27.068,168.782z"/>
	</g>
	<g>
		<polygon fill="#FC8521" points="12.188,173.076 12.192,173.076 12.19,173.074 		"/>
		<path fill="#FC8521" d="M24.317,171.121h-0.006c-0.215-1.586-1.041-2.95-2.217-3.889c-0.002-0.002-0.002-0.002-0.002-0.002l0,0
			c0.194,1.316-0.961,3.072-0.961,3.072s-1.793-1.297-2.115-4.363c0,0,0,0,0-0.002c-0.319-3.064-0.043-4.729-0.043-4.729
			c-2.271,1.4-3.188,3.615-3.551,5.359c-0.311,1.486-0.219,2.627-0.219,2.627c-0.482-0.348-0.934-1.02-1.254-1.578
			c-0.292-0.514-0.477-0.934-0.477-0.934c-0.463,0.854-0.674,1.738-0.735,2.563c-0.13,1.697,0.356,3.158,0.547,3.65
			c0.043,0.115,0.072,0.178,0.072,0.178c-0.572,0.353-1.146,0.012-1.166,0c0.575,3.07,3.459,5.232,6.665,4.896
			c3.373-0.354,5.828-3.336,5.479-6.662c-0.006-0.062-0.016-0.119-0.021-0.178C24.313,171.13,24.316,171.125,24.317,171.121z"/>
	</g>
	<g>
		<path fill="#FFC107" d="M14.815,176.035l0.002,0.002L14.815,176.035z"/>
		<path fill="#FFC107" d="M21.239,173.229h-0.002c-0.346-0.846-0.996-1.482-1.78-1.832c-0.001,0-0.001-0.002-0.001-0.002v0.002
			c0.295,0.697-0.094,1.834-0.094,1.834s-1.176-0.463-1.789-2.111l0,0c-0.615-1.647-0.699-2.606-0.699-2.606
			c-1.055,1.096-1.246,2.453-1.199,3.467c0.041,0.865,0.254,1.484,0.254,1.484c-0.315-0.125-0.66-0.433-0.918-0.695
			c-0.233-0.24-0.395-0.447-0.395-0.447c-0.135,0.537-0.125,1.058-0.043,1.523c0.172,0.955,0.648,1.692,0.822,1.938
			c0.041,0.06,0.065,0.09,0.065,0.09c-0.266,0.275-0.633,0.171-0.645,0.166c0.756,1.613,2.655,2.396,4.381,1.757
			c1.813-0.677,2.745-2.675,2.08-4.464c-0.013-0.03-0.026-0.063-0.039-0.096C21.239,173.233,21.239,173.231,21.239,173.229z"/>
	</g>
	<path fill="#F44336" d="M13.618,150.936c0,0,1.146,1.348,1.146,2.494c0,1.146-1.037,1.893-1.037,4.858c0,0-1.584-1.348-1.584-2.967
		C12.144,153.701,13.618,151.61,13.618,150.936z"/>
	<path opacity="0.5" fill="#F44336" enable-background="new    " d="M23.171,156.378c0,0,0.74,0.87,0.74,1.61
		s-0.671,1.224-0.671,3.142c0,0-1.022-0.871-1.022-1.918C22.218,158.164,23.171,156.813,23.171,156.378z"/>
	<g>
		<polygon fill="#F44336" points="8.935,277.791 8.937,277.793 8.937,277.791 		"/>
		<path fill="#F44336" d="M27.068,276.782H27.06c-0.073-2.364-1.075-4.502-2.664-6.061l-0.002-0.002l0,0
			c0.086,1.965-1.885,4.369-1.885,4.369s-2.438-2.185-2.438-6.738c0-0.002,0-0.002,0-0.004c0-4.56,0.663-6.961,0.663-6.961
			c-3.553,1.709-5.242,4.828-6.045,7.336c-0.686,2.135-0.725,3.828-0.725,3.828c-0.658-0.584-1.218-1.642-1.602-2.515
			c-0.352-0.797-0.557-1.442-0.557-1.442c-0.813,1.184-1.258,2.448-1.479,3.657c-0.451,2.474,0.04,4.695,0.243,5.449
			c0.047,0.176,0.077,0.273,0.077,0.273c-0.894,0.43-1.686-0.158-1.713-0.181c0.377,4.604,4.283,8.226,9.049,8.226
			c5.016,0,9.082-4.01,9.082-8.955c0-0.088-0.006-0.176-0.008-0.264C27.063,276.793,27.066,276.787,27.068,276.782z"/>
	</g>
	<g>
		<polygon fill="#FC8521" points="12.188,281.076 12.192,281.076 12.19,281.074 		"/>
		<path fill="#FC8521" d="M24.317,279.121h-0.006c-0.215-1.586-1.041-2.95-2.217-3.889c-0.002-0.002-0.002-0.002-0.002-0.002l0,0
			c0.194,1.316-0.961,3.072-0.961,3.072s-1.793-1.297-2.115-4.363c0,0,0,0,0-0.002c-0.319-3.064-0.043-4.729-0.043-4.729
			c-2.271,1.4-3.188,3.615-3.551,5.359c-0.311,1.486-0.219,2.627-0.219,2.627c-0.482-0.348-0.934-1.02-1.254-1.578
			c-0.292-0.514-0.477-0.934-0.477-0.934c-0.463,0.854-0.674,1.738-0.735,2.563c-0.13,1.697,0.356,3.158,0.547,3.65
			c0.043,0.115,0.072,0.178,0.072,0.178c-0.572,0.353-1.146,0.012-1.166,0c0.575,3.07,3.459,5.232,6.665,4.896
			c3.373-0.354,5.828-3.336,5.479-6.662c-0.006-0.062-0.016-0.119-0.021-0.178C24.313,279.13,24.316,279.125,24.317,279.121z"/>
	</g>
	<g>
		<path fill="#FFC107" d="M14.815,284.035l0.002,0.002L14.815,284.035z"/>
		<path fill="#FFC107" d="M21.239,281.229h-0.002c-0.346-0.846-0.996-1.482-1.78-1.832c-0.001,0-0.001-0.002-0.001-0.002v0.002
			c0.295,0.697-0.094,1.834-0.094,1.834s-1.176-0.463-1.789-2.111l0,0c-0.615-1.647-0.699-2.606-0.699-2.606
			c-1.055,1.096-1.246,2.453-1.199,3.467c0.041,0.865,0.254,1.484,0.254,1.484c-0.315-0.125-0.66-0.433-0.918-0.695
			c-0.233-0.24-0.395-0.447-0.395-0.447c-0.135,0.537-0.125,1.058-0.043,1.523c0.172,0.955,0.648,1.692,0.822,1.938
			c0.041,0.06,0.065,0.09,0.065,0.09c-0.266,0.275-0.633,0.171-0.645,0.166c0.756,1.613,2.655,2.396,4.381,1.757
			c1.813-0.677,2.745-2.675,2.08-4.464c-0.013-0.03-0.026-0.063-0.039-0.096C21.239,281.233,21.239,281.231,21.239,281.229z"/>
	</g>
	<path opacity="0.75" fill="#F44336" enable-background="new    " d="M13.618,258.936c0,0,1.146,1.348,1.146,2.494
		c0,1.146-1.037,1.893-1.037,4.858c0,0-1.584-1.348-1.584-2.967C12.144,261.701,13.618,259.61,13.618,258.936z"/>
	<path opacity="0.25" fill="#F44336" enable-background="new    " d="M23.171,264.378c0,0,0.74,0.87,0.74,1.61
		s-0.671,1.224-0.671,3.142c0,0-1.022-0.871-1.022-1.918C22.218,266.164,23.171,264.813,23.171,264.378z"/>
	<g>
		<polygon fill="#F44336" points="8.935,241.791 8.937,241.793 8.937,241.791 		"/>
		<path fill="#F44336" d="M27.068,240.782H27.06c-0.073-2.364-1.075-4.502-2.664-6.061l-0.002-0.002l0,0
			c0.086,1.965-1.885,4.369-1.885,4.369s-2.438-2.185-2.438-6.738c0-0.002,0-0.002,0-0.004c0-4.56,0.663-6.961,0.663-6.961
			c-3.553,1.709-5.242,4.828-6.045,7.336c-0.686,2.135-0.725,3.828-0.725,3.828c-0.658-0.584-1.218-1.642-1.602-2.515
			c-0.352-0.797-0.557-1.442-0.557-1.442c-0.813,1.184-1.258,2.448-1.479,3.657c-0.451,2.474,0.04,4.695,0.243,5.449
			c0.047,0.176,0.077,0.273,0.077,0.273c-0.894,0.43-1.686-0.158-1.713-0.181c0.377,4.604,4.283,8.226,9.049,8.226
			c5.016,0,9.082-4.01,9.082-8.955c0-0.088-0.006-0.176-0.008-0.264C27.063,240.793,27.066,240.787,27.068,240.782z"/>
	</g>
	<g>
		<polygon fill="#FC8521" points="12.188,245.076 12.192,245.076 12.19,245.074 		"/>
		<path fill="#FC8521" d="M24.317,243.121h-0.006c-0.215-1.586-1.041-2.95-2.217-3.889c-0.002-0.002-0.002-0.002-0.002-0.002l0,0
			c0.194,1.316-0.961,3.072-0.961,3.072s-1.793-1.297-2.115-4.363c0,0,0,0,0-0.002c-0.319-3.064-0.043-4.729-0.043-4.729
			c-2.271,1.4-3.188,3.615-3.551,5.359c-0.311,1.486-0.219,2.627-0.219,2.627c-0.482-0.348-0.934-1.02-1.254-1.578
			c-0.292-0.514-0.477-0.934-0.477-0.934c-0.463,0.854-0.674,1.738-0.735,2.563c-0.13,1.697,0.356,3.158,0.547,3.65
			c0.043,0.115,0.072,0.178,0.072,0.178c-0.572,0.353-1.146,0.012-1.166,0c0.575,3.07,3.459,5.232,6.665,4.896
			c3.373-0.354,5.828-3.336,5.479-6.662c-0.006-0.062-0.016-0.119-0.021-0.178C24.313,243.13,24.316,243.125,24.317,243.121z"/>
	</g>
	<g>
		<path fill="#FFC107" d="M14.815,248.035l0.002,0.002L14.815,248.035z"/>
		<path fill="#FFC107" d="M21.239,245.229h-0.002c-0.346-0.846-0.996-1.482-1.78-1.832c-0.001,0-0.001-0.002-0.001-0.002v0.002
			c0.295,0.697-0.094,1.834-0.094,1.834s-1.176-0.463-1.789-2.111l0,0c-0.615-1.647-0.699-2.606-0.699-2.606
			c-1.055,1.096-1.246,2.453-1.199,3.467c0.041,0.865,0.254,1.484,0.254,1.484c-0.315-0.125-0.66-0.433-0.918-0.695
			c-0.233-0.24-0.395-0.447-0.395-0.447c-0.135,0.537-0.125,1.058-0.043,1.523c0.172,0.955,0.648,1.692,0.822,1.938
			c0.041,0.06,0.065,0.09,0.065,0.09c-0.266,0.275-0.633,0.171-0.645,0.166c0.756,1.613,2.655,2.396,4.381,1.757
			c1.813-0.677,2.745-2.675,2.08-4.464c-0.013-0.03-0.026-0.063-0.039-0.096C21.239,245.233,21.239,245.231,21.239,245.229z"/>
	</g>
	<path fill="#F44336" d="M13.618,222.936c0,0,1.146,1.348,1.146,2.494c0,1.146-1.037,1.893-1.037,4.858c0,0-1.584-1.348-1.584-2.967
		C12.144,225.701,13.618,223.61,13.618,222.936z"/>
	<path opacity="0.75" fill="#F44336" enable-background="new    " d="M23.171,228.378c0,0,0.74,0.87,0.74,1.61
		s-0.671,1.224-0.671,3.142c0,0-1.022-0.871-1.022-1.918C22.218,230.164,23.171,228.813,23.171,228.378z"/>
	<g>
		<polygon fill="#F44336" points="8.935,205.791 8.937,205.793 8.937,205.791 		"/>
		<path fill="#F44336" d="M27.068,204.782H27.06c-0.073-2.364-1.075-4.502-2.664-6.061l-0.002-0.002l0,0
			c0.086,1.965-1.885,4.369-1.885,4.369s-2.438-2.185-2.438-6.738c0-0.002,0-0.002,0-0.004c0-4.56,0.663-6.961,0.663-6.961
			c-3.553,1.709-5.242,4.828-6.045,7.336c-0.686,2.135-0.725,3.828-0.725,3.828c-0.658-0.584-1.218-1.642-1.602-2.515
			c-0.352-0.797-0.557-1.442-0.557-1.442c-0.813,1.184-1.258,2.448-1.479,3.657c-0.451,2.474,0.04,4.695,0.243,5.449
			c0.047,0.176,0.077,0.273,0.077,0.273c-0.894,0.43-1.686-0.158-1.713-0.181c0.377,4.604,4.283,8.226,9.049,8.226
			c5.016,0,9.082-4.01,9.082-8.955c0-0.088-0.006-0.176-0.008-0.264C27.063,204.793,27.066,204.787,27.068,204.782z"/>
	</g>
	<g>
		<polygon fill="#FC8521" points="12.188,209.076 12.192,209.076 12.19,209.074 		"/>
		<path fill="#FC8521" d="M24.317,207.121h-0.006c-0.215-1.586-1.041-2.95-2.217-3.889c-0.002-0.002-0.002-0.002-0.002-0.002l0,0
			c0.194,1.316-0.961,3.072-0.961,3.072s-1.793-1.297-2.115-4.363c0,0,0,0,0-0.002c-0.319-3.064-0.043-4.729-0.043-4.729
			c-2.271,1.4-3.188,3.615-3.551,5.359c-0.311,1.486-0.219,2.627-0.219,2.627c-0.482-0.348-0.934-1.02-1.254-1.578
			c-0.292-0.514-0.477-0.934-0.477-0.934c-0.463,0.854-0.674,1.738-0.735,2.563c-0.13,1.697,0.356,3.158,0.547,3.65
			c0.043,0.115,0.072,0.178,0.072,0.178c-0.572,0.353-1.146,0.012-1.166,0c0.575,3.07,3.459,5.232,6.665,4.896
			c3.373-0.354,5.828-3.336,5.479-6.662c-0.006-0.062-0.016-0.119-0.021-0.178C24.313,207.13,24.316,207.125,24.317,207.121z"/>
	</g>
	<g>
		<path fill="#FFC107" d="M14.815,212.035l0.002,0.002L14.815,212.035z"/>
		<path fill="#FFC107" d="M21.239,209.229h-0.002c-0.346-0.846-0.996-1.482-1.78-1.832c-0.001,0-0.001-0.002-0.001-0.002v0.002
			c0.295,0.697-0.094,1.834-0.094,1.834s-1.176-0.463-1.789-2.111l0,0c-0.615-1.647-0.699-2.606-0.699-2.606
			c-1.055,1.096-1.246,2.453-1.199,3.467c0.041,0.865,0.254,1.484,0.254,1.484c-0.315-0.125-0.66-0.433-0.918-0.695
			c-0.233-0.24-0.395-0.447-0.395-0.447c-0.135,0.537-0.125,1.058-0.043,1.523c0.172,0.955,0.648,1.692,0.822,1.938
			c0.041,0.06,0.065,0.09,0.065,0.09c-0.266,0.275-0.633,0.171-0.645,0.166c0.756,1.613,2.655,2.396,4.381,1.757
			c1.813-0.677,2.745-2.675,2.08-4.464c-0.013-0.03-0.026-0.063-0.039-0.096C21.239,209.233,21.239,209.231,21.239,209.229z"/>
	</g>
	<path fill="#F44336" d="M13.618,186.936c0,0,1.146,1.348,1.146,2.494c0,1.146-1.037,1.893-1.037,4.858c0,0-1.584-1.348-1.584-2.967
		C12.144,189.701,13.618,187.61,13.618,186.936z"/>
	<path fill="#F44336" d="M23.171,192.378c0,0,0.74,0.87,0.74,1.61s-0.671,1.224-0.671,3.142c0,0-1.022-0.871-1.022-1.918
		C22.218,194.164,23.171,192.813,23.171,192.378z"/>
</g>
</svg>
