<?xml version="1.0" encoding="utf-8"?>
<!-- Generator: Adobe Illustrator 15.0.2, SVG Export Plug-In . SVG Version: 6.00 Build 0)  -->
<!DOCTYPE svg PUBLIC "-//W3C//DTD SVG 1.1//EN" "http://www.w3.org/Graphics/SVG/1.1/DTD/svg11.dtd">
<svg version="1.1" id="Calque_1" xmlns="http://www.w3.org/2000/svg" xmlns:xlink="http://www.w3.org/1999/xlink" x="0px" y="0px"
	 width="36px" height="864px" viewBox="0 0 36 864" enable-background="new 0 0 36 864" xml:space="preserve">
<g>
	<g>
		<path fill="#3F51B5" d="M17.89,2.118c1.529-0.496,3.334,0.63,3.446,2.257c0.216,1.488-1.112,2.909-2.597,2.882
			c-1.348,0.078-2.688-0.983-2.807-2.349C15.79,3.658,16.69,2.437,17.89,2.118z"/>
		<path fill="#3F51B5" d="M10.707,4.122c1.409-0.392,3.06,0.721,3.07,2.223c0.127,1.158-0.761,2.271-1.886,2.487
			c-1.279,0.35-2.766-0.491-3.045-1.805C8.505,5.761,9.448,4.393,10.707,4.122z"/>
		<path fill="#3F51B5" d="M25.813,6.234c0.275-0.173,0.46,0.488,0.156,0.532C25.644,6.99,25.41,6.279,25.813,6.234z"/>
		<path fill="#3F51B5" d="M5.104,9.687c0.973-0.443,2.238-0.104,2.822,0.799C8.612,11.464,8.294,13,7.222,13.561
			c-1.127,0.69-2.807,0.213-3.293-1.041C3.443,11.452,4.034,10.119,5.104,9.687z"/>
		<path fill="#3F51B5" d="M30.681,11.947c-0.062-0.395,0.162-0.972,0.662-0.797c0.405,0.047,0.405,0.483,0.414,0.793
			C31.413,12.14,31.028,12.14,30.681,11.947z"/>
		<path fill="#3F51B5" d="M3.3,16.885c1.207-0.519,2.748,0.364,2.813,1.697c0.116,1.247-1.124,2.347-2.351,2.113
			c-1.224-0.113-2.1-1.509-1.635-2.656C2.317,17.503,2.771,17.083,3.3,16.885z"/>
		<path fill="#3F51B5" d="M32.868,17.984c0.447-0.211,1.126,0.077,1.129,0.612c0.066,0.602-0.697,0.971-1.181,0.685
			C32.295,19.054,32.33,18.175,32.868,17.984z"/>
		<path fill="#3F51B5" d="M5.454,24.087c1.188-0.454,2.646,0.614,2.396,1.905c-0.143,1.377-2.025,1.998-3.012,1.075
			C3.837,26.255,4.179,24.417,5.454,24.087z"/>
		<path fill="#3F51B5" d="M30.856,24.802c0.654-0.369,1.51,0.279,1.38,1.01c-0.091,0.735-1.108,1-1.618,0.521
			C30.123,25.935,30.291,25.062,30.856,24.802z"/>
		<path fill="#3F51B5" d="M10.884,29.347c1.123-0.455,2.438,0.678,2.078,1.855c-0.264,1.209-2.012,1.549-2.763,0.601
			C9.429,31.046,9.882,29.638,10.884,29.347z"/>
		<path fill="#3F51B5" d="M25.618,29.659c0.855-0.284,1.796,0.691,1.402,1.53c-0.321,0.868-1.688,0.938-2.117,0.131
			C24.505,30.699,24.917,29.823,25.618,29.659z"/>
		<path fill="#3F51B5" d="M18.06,31.441c0.854-0.439,2.078,0.206,2.021,1.213c0.071,1.181-1.566,1.775-2.369,0.989
			C16.955,33.063,17.199,31.783,18.06,31.441z"/>
	</g>
	<g>
		<path fill="#3F51B5" d="M22.005,38.631c1.604-0.083,3.055,1.471,2.743,3.072c-0.176,1.493-1.828,2.521-3.254,2.11
			c-1.321-0.273-2.34-1.646-2.103-2.995C19.577,39.575,20.763,38.628,22.005,38.631z"/>
		<path fill="#3F51B5" d="M14.548,38.707c1.461-0.014,2.769,1.487,2.389,2.94c-0.176,1.152-1.321,1.997-2.465,1.915
			c-1.326,0.007-2.543-1.188-2.476-2.531C11.995,39.72,13.261,38.643,14.548,38.707z"/>
		<path fill="#3F51B5" d="M28.595,44.657c0.311-0.097,0.315,0.59,0.012,0.554C28.233,45.344,28.191,44.595,28.595,44.657z"/>
		<path fill="#3F51B5" d="M7.696,42.633c1.054-0.177,2.188,0.477,2.52,1.502c0.408,1.121-0.297,2.523-1.478,2.788
			c-1.267,0.375-2.765-0.521-2.911-1.857C5.634,43.907,6.55,42.772,7.696,42.633z"/>
		<path fill="#3F51B5" d="M31.815,51.434c0.044-0.396,0.408-0.896,0.847-0.598c0.379,0.15,0.267,0.572,0.192,0.874
			C32.472,51.811,32.101,51.712,31.815,51.434z"/>
		<path fill="#3F51B5" d="M4.091,49.118c1.299-0.188,2.56,1.063,2.276,2.367c-0.209,1.234-1.692,1.977-2.817,1.434
			c-1.152-0.426-1.638-2-0.892-2.99C2.979,49.461,3.527,49.173,4.091,49.118z"/>
		<path fill="#3F51B5" d="M32.365,57.833c0.487-0.089,1.067,0.366,0.933,0.883c-0.091,0.599-0.925,0.758-1.316,0.355
			C31.535,58.718,31.798,57.878,32.365,57.833z"/>
		<path fill="#3F51B5" d="M4.306,56.633c1.265-0.132,2.397,1.278,1.822,2.46c-0.494,1.293-2.473,1.406-3.187,0.26
			C2.183,58.307,2.989,56.621,4.306,56.633z"/>
		<path fill="#3F51B5" d="M28.658,63.898c0.728-0.187,1.386,0.66,1.071,1.333c-0.277,0.688-1.33,0.681-1.698,0.084
			C27.656,64.802,28.044,64.003,28.658,63.898z"/>
		<path fill="#3F51B5" d="M8.19,63.119c1.201-0.149,2.179,1.285,1.527,2.33c-0.568,1.1-2.346,0.976-2.826-0.136
			C6.345,64.383,7.146,63.14,8.19,63.119z"/>
		<path fill="#3F51B5" d="M22.341,67.233c0.9-0.053,1.557,1.134,0.959,1.842c-0.535,0.755-1.873,0.469-2.08-0.422
			C20.997,67.95,21.621,67.21,22.341,67.233z"/>
		<path fill="#3F51B5" d="M14.579,66.998c0.938-0.205,1.953,0.735,1.639,1.694c-0.236,1.158-1.974,1.31-2.545,0.343
			C13.093,68.28,13.659,67.106,14.579,66.998z"/>
	</g>
	<g>
		<path fill="#3F51B5" d="M25.847,76.19c1.571,0.335,2.57,2.212,1.855,3.678c-0.559,1.397-2.419,1.963-3.689,1.196
			c-1.207-0.605-1.836-2.194-1.256-3.437C23.257,76.474,24.647,75.867,25.847,76.19z"/>
		<path fill="#3F51B5" d="M18.623,74.335c1.415,0.366,2.29,2.153,1.548,3.459c-0.47,1.065-1.795,1.587-2.877,1.211
			c-1.283-0.337-2.15-1.809-1.736-3.085C15.896,74.653,17.397,73.939,18.623,74.335z"/>
		<path fill="#3F51B5" d="M30.65,83.717c0.325-0.012,0.153,0.652-0.132,0.538C30.125,84.287,30.278,83.553,30.65,83.717z"/>
		<path fill="#3F51B5" d="M10.989,76.353c1.063,0.102,1.99,1.027,2.044,2.104c0.104,1.188-0.94,2.36-2.149,2.311
			c-1.32,0.034-2.535-1.219-2.33-2.547C8.667,77.051,9.845,76.191,10.989,76.353z"/>
		<path fill="#3F51B5" d="M32.009,91.097c0.146-0.372,0.627-0.76,0.974-0.359c0.327,0.244,0.108,0.622-0.039,0.895
			C32.546,91.632,32.214,91.439,32.009,91.097z"/>
		<path fill="#3F51B5" d="M5.827,81.684c1.305,0.154,2.197,1.689,1.587,2.876c-0.522,1.139-2.146,1.471-3.093,0.655
			c-1.002-0.71-1.064-2.356-0.087-3.118C4.667,81.728,5.269,81.591,5.827,81.684z"/>
		<path fill="#3F51B5" d="M30.884,97.42c0.493,0.041,0.938,0.63,0.672,1.094c-0.242,0.555-1.088,0.493-1.364,0.003
			C29.853,98.06,30.322,97.316,30.884,97.42z"/>
		<path fill="#3F51B5" d="M4.091,88.998c1.256,0.199,1.985,1.854,1.123,2.848c-0.812,1.122-2.753,0.718-3.146-0.573
			C1.607,90.067,2.822,88.647,4.091,88.998z"/>
		<path fill="#3F51B5" d="M25.732,102.319c0.752,0.009,1.169,0.997,0.69,1.565c-0.445,0.592-1.461,0.313-1.662-0.358
			C24.532,102.933,25.113,102.261,25.732,102.319z"/>
		<path fill="#3F51B5" d="M6.164,96.269c1.198,0.167,1.772,1.807,0.872,2.646c-0.833,0.915-2.518,0.335-2.693-0.861
			C4.056,97.012,5.15,96.019,6.164,96.269z"/>
		<path fill="#3F51B5" d="M18.769,103.906c0.883,0.183,1.209,1.497,0.449,2.027c-0.713,0.591-1.931-0.032-1.899-0.945
			C17.284,104.25,18.078,103.697,18.769,103.906z"/>
		<path fill="#3F51B5" d="M11.331,101.669c0.959,0.045,1.696,1.217,1.143,2.062c-0.527,1.058-2.244,0.754-2.545-0.328
			C9.563,102.522,10.414,101.535,11.331,101.669z"/>
	</g>
	<g>
		<path fill="#3F51B5" d="M29.153,114.691c1.432,0.73,1.91,2.804,0.84,4.033c-0.898,1.205-2.843,1.271-3.873,0.2
			c-1.009-0.896-1.205-2.594-0.325-3.646C26.578,114.295,28.078,114.069,29.153,114.691z"/>
		<path fill="#3F51B5" d="M22.656,111.029c1.272,0.721,1.653,2.674,0.599,3.743c-0.729,0.908-2.143,1.067-3.092,0.426
			c-1.152-0.657-1.609-2.303-0.878-3.431C19.94,110.631,21.575,110.33,22.656,111.029z"/>
		<path fill="#3F51B5" d="M31.847,123.204c0.316,0.072-0.021,0.67-0.268,0.485C31.19,123.619,31.528,122.95,31.847,123.204z"/>
		<path fill="#3F51B5" d="M14.761,111.004c1,0.373,1.655,1.507,1.431,2.56c-0.207,1.176-1.519,2.037-2.673,1.676
			c-1.285-0.308-2.135-1.833-1.592-3.063C12.336,111.076,13.697,110.551,14.761,111.004z"/>
		<path fill="#3F51B5" d="M31.247,130.686c0.236-0.322,0.803-0.572,1.032-0.095c0.253,0.32-0.056,0.628-0.271,0.854
			C31.628,131.341,31.354,131.069,31.247,130.686z"/>
		<path fill="#3F51B5" d="M8.394,114.817c1.22,0.487,1.686,2.2,0.789,3.188c-0.799,0.965-2.455,0.866-3.157-0.167
			c-0.784-0.945-0.417-2.552,0.723-3.035C7.263,114.559,7.88,114.582,8.394,114.817z"/>
		<path fill="#3F51B5" d="M28.524,136.501c0.466,0.167,0.742,0.851,0.365,1.23c-0.377,0.474-1.18,0.193-1.319-0.351
			C27.363,136.853,28.009,136.256,28.524,136.501z"/>
		<path fill="#3F51B5" d="M4.825,121.432c1.16,0.52,1.438,2.306,0.348,3.042c-1.074,0.873-2.846-0.019-2.891-1.368
			C2.149,121.821,3.69,120.764,4.825,121.432z"/>
		<path fill="#3F51B5" d="M22.281,139.901c0.724,0.202,0.871,1.266,0.262,1.689c-0.583,0.457-1.491-0.076-1.512-0.776
			C20.962,140.182,21.697,139.685,22.281,139.901z"/>
		<path fill="#3F51B5" d="M4.944,128.991c1.115,0.472,1.244,2.202,0.158,2.781c-1.043,0.668-2.519-0.328-2.379-1.528
			C2.716,129.163,4.029,128.489,4.944,128.991z"/>
		<path fill="#3F51B5" d="M15.144,139.63c0.805,0.404,0.779,1.759-0.092,2.074c-0.84,0.386-1.855-0.53-1.59-1.404
			C13.62,139.579,14.531,139.25,15.144,139.63z"/>
		<path fill="#3F51B5" d="M8.538,135.545c0.915,0.292,1.323,1.614,0.57,2.287c-0.784,0.885-2.363,0.147-2.374-0.977
			C6.611,135.911,7.687,135.179,8.538,135.545z"/>
	</g>
	<g>
		<path fill="#3F51B5" d="M31.7,153.962c1.193,1.076,1.12,3.201-0.232,4.112c-1.181,0.933-3.074,0.49-3.793-0.809
			c-0.742-1.128-0.492-2.817,0.629-3.604C29.315,152.913,30.823,153.082,31.7,153.962z"/>
		<path fill="#3F51B5" d="M26.372,148.744c1.043,1.023,0.906,3.011-0.39,3.77c-0.939,0.688-2.347,0.477-3.097-0.389
			c-0.943-0.935-0.959-2.642,0.039-3.541C23.853,147.656,25.509,147.789,26.372,148.744z"/>
		<path fill="#3F51B5" d="M32.097,162.883c0.287,0.151-0.192,0.642-0.383,0.399C31.357,163.115,31.856,162.556,32.097,162.883z"/>
		<path fill="#3F51B5" d="M18.751,146.676c0.871,0.619,1.21,1.884,0.719,2.843c-0.504,1.082-1.994,1.574-3.016,0.927
			c-1.161-0.63-1.587-2.322-0.745-3.37C16.392,146.118,17.843,145.963,18.751,146.676z"/>
		<path fill="#3F51B5" d="M29.583,169.953c0.313-0.25,0.924-0.345,1.021,0.177c0.16,0.375-0.217,0.593-0.48,0.755
			C29.781,170.686,29.589,170.352,29.583,169.953z"/>
		<path fill="#3F51B5" d="M11.616,148.711c1.051,0.786,1.059,2.562-0.064,3.284c-1.021,0.726-2.595,0.2-3.006-0.979
			c-0.512-1.116,0.258-2.572,1.484-2.744C10.589,148.169,11.181,148.352,11.616,148.711z"/>
		<path fill="#3F51B5" d="M25.447,174.866c0.407,0.281,0.497,1.015,0.035,1.283c-0.487,0.359-1.189-0.118-1.185-0.68
			C24.235,174.906,25.013,174.495,25.447,174.866z"/>
		<path fill="#3F51B5" d="M6.455,154.178c0.987,0.8,0.792,2.599-0.452,3.026c-1.264,0.565-2.742-0.754-2.438-2.068
			C3.771,153.861,5.532,153.239,6.455,154.178z"/>
		<path fill="#3F51B5" d="M18.537,176.533c0.647,0.383,0.515,1.446-0.185,1.7c-0.682,0.29-1.42-0.46-1.26-1.142
			C17.19,176.465,18.029,176.175,18.537,176.533z"/>
		<path fill="#3F51B5" d="M4.615,161.511c0.955,0.743,0.632,2.45-0.567,2.727c-1.18,0.376-2.348-0.968-1.902-2.092
			C2.417,161.099,3.861,160.786,4.615,161.511z"/>
		<path fill="#3F51B5" d="M11.714,174.426c0.672,0.599,0.297,1.9-0.625,1.979c-0.912,0.155-1.656-0.992-1.173-1.768
			C10.255,173.983,11.22,173.901,11.714,174.426z"/>
		<path fill="#3F51B5" d="M6.39,168.772c0.809,0.52,0.86,1.901-0.041,2.356c-0.985,0.65-2.32-0.47-2.041-1.559
			C4.433,168.626,5.663,168.197,6.39,168.772z"/>
	</g>
	<g>
		<path fill="#3F51B5" d="M33.313,193.781c0.875,1.35,0.253,3.382-1.289,3.912c-1.383,0.595-3.098-0.322-3.455-1.763
			c-0.424-1.281,0.254-2.851,1.541-3.318C31.281,192.153,32.693,192.705,33.313,193.781z"/>
		<path fill="#3F51B5" d="M29.517,187.363c0.742,1.26,0.097,3.144-1.353,3.54c-1.086,0.423-2.39-0.146-2.89-1.177
			c-0.67-1.146-0.243-2.798,0.953-3.41C27.365,185.658,28.931,186.216,29.517,187.363z"/>
		<path fill="#3F51B5" d="M31.388,202.501c0.238,0.222-0.353,0.569-0.474,0.287C30.613,202.532,31.24,202.121,31.388,202.501z"/>
		<path fill="#3F51B5" d="M22.692,183.392c0.681,0.824,0.681,2.134-0.042,2.933c-0.767,0.915-2.333,1.005-3.153,0.114
			c-0.958-0.908-0.932-2.654,0.152-3.448C20.558,182.242,21.998,182.469,22.692,183.392z"/>
		<path fill="#3F51B5" d="M27.13,208.681c0.365-0.161,0.98-0.094,0.941,0.434c0.059,0.404-0.362,0.518-0.66,0.604
			C27.132,209.439,27.032,209.067,27.13,208.681z"/>
		<path fill="#3F51B5" d="M15.272,183.511c0.813,1.032,0.359,2.749-0.911,3.155c-1.175,0.438-2.558-0.478-2.65-1.724
			c-0.206-1.211,0.914-2.418,2.144-2.267C14.421,182.722,14.944,183.051,15.272,183.511z"/>
		<path fill="#3F51B5" d="M21.864,212.357c0.32,0.377,0.218,1.107-0.298,1.248c-0.564,0.221-1.118-0.422-0.968-0.963
			C20.683,212.078,21.54,211.886,21.864,212.357z"/>
		<path fill="#3F51B5" d="M8.873,187.455c0.746,1.028,0.093,2.716-1.22,2.809c-1.367,0.219-2.454-1.438-1.819-2.63
			C6.362,186.453,8.226,186.31,8.873,187.455z"/>
		<path fill="#3F51B5" d="M14.757,212.178c0.526,0.537,0.123,1.529-0.617,1.594c-0.733,0.104-1.254-0.812-0.922-1.428
			C13.474,211.763,14.36,211.698,14.757,212.178z"/>
		<path fill="#3F51B5" d="M5.198,194.063c0.73,0.966-0.023,2.53-1.254,2.487c-1.236,0.058-2.018-1.543-1.295-2.515
			C3.181,193.096,4.657,193.169,5.198,194.063z"/>
		<path fill="#3F51B5" d="M8.711,208.375c0.495,0.753-0.204,1.912-1.116,1.75c-0.92-0.086-1.343-1.388-0.674-2.012
			C7.417,207.57,8.371,207.74,8.711,208.375z"/>
		<path fill="#3F51B5" d="M5.033,201.534c0.646,0.71,0.339,2.061-0.649,2.267c-1.121,0.375-2.119-1.054-1.567-2.032
			C3.181,200.889,4.479,200.791,5.033,201.534z"/>
	</g>
	<g>
		<path fill="#3F51B5" d="M33.884,233.889c0.496,1.529-0.631,3.332-2.258,3.445c-1.488,0.217-2.908-1.112-2.881-2.598
			c-0.078-1.348,0.982-2.687,2.348-2.807C32.343,231.787,33.563,232.689,33.884,233.889z"/>
		<path fill="#3F51B5" d="M31.88,226.704c0.391,1.409-0.722,3.062-2.224,3.07c-1.158,0.127-2.271-0.761-2.487-1.886
			c-0.35-1.279,0.49-2.767,1.805-3.046C30.24,224.503,31.608,225.447,31.88,226.704z"/>
		<path fill="#3F51B5" d="M29.767,241.813c0.174,0.275-0.487,0.459-0.531,0.155C29.011,241.643,29.722,241.407,29.767,241.813z"/>
		<path fill="#3F51B5" d="M26.313,221.104c0.443,0.972,0.104,2.237-0.799,2.822c-0.979,0.685-2.515,0.365-3.076-0.706
			c-0.69-1.126-0.213-2.807,1.039-3.292C24.548,219.442,25.882,220.031,26.313,221.104z"/>
		<path fill="#3F51B5" d="M24.054,246.679c0.396-0.062,0.973,0.163,0.797,0.663c-0.047,0.404-0.483,0.404-0.793,0.413
			C23.86,247.41,23.86,247.027,24.054,246.679z"/>
		<path fill="#3F51B5" d="M19.116,219.299c0.518,1.206-0.364,2.747-1.697,2.813c-1.246,0.117-2.348-1.124-2.113-2.352
			c0.113-1.224,1.508-2.1,2.656-1.634C18.497,218.316,18.917,218.77,19.116,219.299z"/>
		<path fill="#3F51B5" d="M18.017,248.865c0.211,0.447-0.076,1.126-0.611,1.129c-0.602,0.067-0.971-0.696-0.686-1.181
			C16.947,248.293,17.826,248.327,18.017,248.865z"/>
		<path fill="#3F51B5" d="M11.913,221.451c0.454,1.188-0.613,2.646-1.904,2.396c-1.377-0.143-1.998-2.024-1.076-3.011
			C9.746,219.835,11.583,220.178,11.913,221.451z"/>
		<path fill="#3F51B5" d="M11.198,246.855c0.369,0.655-0.277,1.51-1.01,1.38c-0.735-0.09-1-1.107-0.521-1.618
			C10.066,246.12,10.938,246.288,11.198,246.855z"/>
		<path fill="#3F51B5" d="M6.653,226.883c0.455,1.121-0.678,2.438-1.855,2.078c-1.209-0.266-1.549-2.014-0.601-2.765
			C4.955,225.428,6.362,225.88,6.653,226.883z"/>
		<path fill="#3F51B5" d="M6.343,241.615c0.282,0.855-0.692,1.796-1.531,1.402c-0.867-0.321-0.938-1.688-0.131-2.117
			C5.302,240.504,6.179,240.914,6.343,241.615z"/>
		<path fill="#3F51B5" d="M4.56,234.059c0.44,0.853-0.205,2.076-1.213,2.021c-1.181,0.071-1.775-1.565-0.988-2.368
			C2.938,232.953,4.218,233.198,4.56,234.059z"/>
	</g>
	<g>
		<path fill="#3F51B5" d="M33.371,274.003c0.083,1.604-1.472,3.056-3.073,2.743c-1.492-0.176-2.521-1.826-2.109-3.254
			c0.273-1.321,1.645-2.341,2.994-2.104C32.427,271.575,33.372,272.762,33.371,274.003z"/>
		<path fill="#3F51B5" d="M33.294,266.546c0.014,1.462-1.488,2.77-2.941,2.39c-1.151-0.177-1.996-1.321-1.914-2.465
			c-0.008-1.326,1.188-2.544,2.531-2.477C32.28,263.993,33.358,265.26,33.294,266.546z"/>
		<path fill="#3F51B5" d="M27.345,280.592c0.096,0.311-0.59,0.316-0.555,0.013C26.657,280.233,27.405,280.19,27.345,280.592z"/>
		<path fill="#3F51B5" d="M29.367,259.695c0.179,1.054-0.478,2.188-1.502,2.521c-1.121,0.407-2.522-0.297-2.787-1.479
			c-0.376-1.267,0.521-2.766,1.856-2.911C28.095,257.632,29.228,258.548,29.367,259.695z"/>
		<path fill="#3F51B5" d="M20.566,283.814c0.396,0.044,0.896,0.409,0.598,0.847c-0.151,0.38-0.571,0.268-0.874,0.194
			C20.188,284.471,20.288,284.1,20.566,283.814z"/>
		<path fill="#3F51B5" d="M22.884,256.088c0.188,1.3-1.063,2.56-2.369,2.276c-1.234-0.209-1.977-1.691-1.434-2.816
			c0.428-1.151,2.001-1.639,2.99-0.893C22.54,254.979,22.828,255.526,22.884,256.088z"/>
		<path fill="#3F51B5" d="M14.168,284.365c0.089,0.486-0.364,1.067-0.883,0.933c-0.599-0.091-0.757-0.926-0.356-1.317
			C13.283,283.532,14.123,283.795,14.168,284.365z"/>
		<path fill="#3F51B5" d="M15.368,256.305c0.131,1.264-1.277,2.396-2.461,1.821c-1.293-0.493-1.406-2.474-0.26-3.188
			C13.694,254.182,15.38,254.988,15.368,256.305z"/>
		<path fill="#3F51B5" d="M8.103,280.656c0.187,0.729-0.66,1.386-1.334,1.071c-0.687-0.277-0.678-1.329-0.084-1.697
			C7.199,279.655,7.998,280.043,8.103,280.656z"/>
		<path fill="#3F51B5" d="M8.882,260.189c0.149,1.201-1.285,2.179-2.33,1.526c-1.1-0.567-0.976-2.345,0.135-2.824
			C7.618,258.344,8.86,259.145,8.882,260.189z"/>
		<path fill="#3F51B5" d="M4.769,274.34c0.052,0.898-1.133,1.556-1.842,0.958c-0.754-0.535-0.47-1.873,0.42-2.079
			C4.052,272.994,4.791,273.619,4.769,274.34z"/>
		<path fill="#3F51B5" d="M5.003,266.577c0.205,0.938-0.736,1.952-1.695,1.638c-1.157-0.236-1.31-1.973-0.342-2.544
			C3.722,265.091,4.894,265.656,5.003,266.577z"/>
	</g>
	<g>
		<path fill="#3F51B5" d="M31.81,313.845c-0.334,1.571-2.211,2.569-3.678,1.854c-1.396-0.557-1.962-2.418-1.195-3.688
			c0.604-1.206,2.193-1.836,3.437-1.257C31.526,311.256,32.134,312.646,31.81,313.845z"/>
		<path fill="#3F51B5" d="M33.666,306.62c-0.366,1.416-2.153,2.29-3.46,1.549c-1.066-0.471-1.586-1.794-1.211-2.878
			c0.337-1.282,1.809-2.148,3.086-1.734C33.349,303.895,34.062,305.396,33.666,306.62z"/>
		<path fill="#3F51B5" d="M24.284,318.65c0.012,0.325-0.652,0.153-0.539-0.132C23.714,318.123,24.447,318.277,24.284,318.65z"/>
		<path fill="#3F51B5" d="M31.647,298.988c-0.102,1.064-1.027,1.99-2.104,2.045c-1.189,0.104-2.359-0.938-2.311-2.147
			c-0.035-1.32,1.218-2.537,2.547-2.331C30.95,296.664,31.81,297.844,31.647,298.988z"/>
		<path fill="#3F51B5" d="M16.903,320.007c0.372,0.146,0.76,0.627,0.359,0.973c-0.244,0.327-0.623,0.109-0.895-0.039
			C16.369,320.544,16.562,320.211,16.903,320.007z"/>
		<path fill="#3F51B5" d="M26.316,293.825c-0.154,1.304-1.689,2.197-2.875,1.587c-1.14-0.521-1.472-2.146-0.656-3.094
			c0.71-1.002,2.356-1.063,3.118-0.087C26.273,292.664,26.41,293.269,26.316,293.825z"/>
		<path fill="#3F51B5" d="M10.58,318.883c-0.04,0.493-0.629,0.937-1.094,0.672c-0.556-0.242-0.492-1.09-0.003-1.365
			C9.941,317.852,10.685,318.322,10.58,318.883z"/>
		<path fill="#3F51B5" d="M19.003,292.09c-0.199,1.255-1.855,1.983-2.849,1.123c-1.121-0.813-0.718-2.753,0.573-3.146
			C17.935,289.606,19.354,290.821,19.003,292.09z"/>
		<path fill="#3F51B5" d="M5.681,313.732c-0.008,0.752-0.996,1.168-1.563,0.689c-0.592-0.445-0.312-1.46,0.358-1.661
			C5.068,312.531,5.739,313.112,5.681,313.732z"/>
		<path fill="#3F51B5" d="M11.731,294.161c-0.168,1.199-1.807,1.772-2.646,0.872c-0.914-0.833-0.335-2.517,0.861-2.692
			C10.989,292.054,11.981,293.149,11.731,294.161z"/>
		<path fill="#3F51B5" d="M4.097,306.767c-0.184,0.883-1.498,1.209-2.027,0.449c-0.59-0.712,0.031-1.932,0.945-1.899
			C3.75,305.281,4.304,306.076,4.097,306.767z"/>
		<path fill="#3F51B5" d="M6.331,299.329c-0.045,0.959-1.217,1.695-2.063,1.144c-1.058-0.527-0.754-2.244,0.33-2.546
			C5.479,297.563,6.466,298.412,6.331,299.329z"/>
	</g>
	<g>
		<path fill="#3F51B5" d="M29.31,353.152c-0.73,1.434-2.803,1.91-4.032,0.84c-1.206-0.898-1.271-2.843-0.201-3.873
			c0.897-1.008,2.595-1.205,3.646-0.323C29.705,350.576,29.931,352.076,29.31,353.152z"/>
		<path fill="#3F51B5" d="M32.972,346.655c-0.72,1.272-2.674,1.654-3.742,0.601c-0.908-0.729-1.067-2.145-0.426-3.093
			c0.657-1.151,2.303-1.608,3.431-0.878C33.37,343.939,33.671,345.573,32.972,346.655z"/>
		<path fill="#3F51B5" d="M20.796,355.845c-0.072,0.315-0.669-0.021-0.486-0.268C20.382,355.19,21.05,355.527,20.796,355.845z"/>
		<path fill="#3F51B5" d="M32.997,338.759c-0.373,1.001-1.507,1.655-2.561,1.43c-1.176-0.206-2.036-1.518-1.676-2.673
			c0.309-1.284,1.834-2.135,3.063-1.593C32.925,336.335,33.45,337.696,32.997,338.759z"/>
		<path fill="#3F51B5" d="M13.315,355.245c0.322,0.235,0.572,0.803,0.095,1.032c-0.319,0.253-0.628-0.056-0.854-0.27
			C12.66,355.626,12.933,355.355,13.315,355.245z"/>
		<path fill="#3F51B5" d="M29.185,332.393c-0.487,1.22-2.2,1.686-3.189,0.789c-0.965-0.799-0.865-2.455,0.168-3.158
			c0.945-0.783,2.551-0.417,3.034,0.724C29.442,331.261,29.418,331.878,29.185,332.393z"/>
		<path fill="#3F51B5" d="M7.499,352.523c-0.167,0.467-0.85,0.743-1.23,0.366c-0.473-0.378-0.192-1.18,0.351-1.319
			C7.147,351.362,7.745,352.008,7.499,352.523z"/>
		<path fill="#3F51B5" d="M22.569,328.823c-0.518,1.16-2.307,1.438-3.042,0.348c-0.873-1.073,0.019-2.845,1.368-2.891
			C22.181,326.148,23.237,327.689,22.569,328.823z"/>
		<path fill="#3F51B5" d="M4.101,346.28c-0.203,0.726-1.265,0.87-1.689,0.262c-0.457-0.584,0.077-1.49,0.775-1.513
			C3.818,344.96,4.316,345.696,4.101,346.28z"/>
		<path fill="#3F51B5" d="M15.009,328.944c-0.472,1.114-2.203,1.244-2.781,0.157c-0.668-1.042,0.328-2.52,1.529-2.379
			C14.839,326.714,15.513,328.029,15.009,328.944z"/>
		<path fill="#3F51B5" d="M4.371,339.142c-0.405,0.806-1.76,0.78-2.073-0.091c-0.387-0.841,0.529-1.856,1.403-1.59
			C4.423,337.618,4.751,338.531,4.371,339.142z"/>
		<path fill="#3F51B5" d="M8.455,332.536c-0.292,0.915-1.614,1.322-2.287,0.57c-0.884-0.783-0.147-2.363,0.978-2.374
			C8.089,330.61,8.822,331.686,8.455,332.536z"/>
	</g>
	<g>
		<path fill="#3F51B5" d="M26.038,391.698c-1.076,1.194-3.201,1.12-4.113-0.231c-0.932-1.182-0.49-3.074,0.81-3.793
			c1.128-0.741,2.817-0.492,3.604,0.63C27.087,389.315,26.917,390.822,26.038,391.698z"/>
		<path fill="#3F51B5" d="M31.257,386.37c-1.023,1.042-3.011,0.905-3.771-0.391c-0.688-0.939-0.478-2.346,0.39-3.097
			c0.934-0.942,2.641-0.958,3.54,0.04C32.345,383.851,32.212,385.507,31.257,386.37z"/>
		<path fill="#3F51B5" d="M17.117,392.096c-0.151,0.288-0.642-0.193-0.401-0.383C16.886,391.356,17.445,391.855,17.117,392.096z"/>
		<path fill="#3F51B5" d="M33.325,378.75c-0.619,0.87-1.885,1.21-2.844,0.72c-1.082-0.505-1.574-1.994-0.926-3.018
			c0.629-1.161,2.322-1.587,3.369-0.745C33.884,376.391,34.037,377.841,33.325,378.75z"/>
		<path fill="#3F51B5" d="M10.048,389.581c0.25,0.312,0.344,0.924-0.177,1.021c-0.375,0.161-0.593-0.216-0.755-0.481
			C9.315,389.78,9.647,389.587,10.048,389.581z"/>
		<path fill="#3F51B5" d="M31.29,371.615c-0.785,1.052-2.563,1.06-3.285-0.063c-0.725-1.021-0.199-2.595,0.979-3.007
			c1.116-0.513,2.571,0.258,2.743,1.483C31.832,370.588,31.649,371.179,31.29,371.615z"/>
		<path fill="#3F51B5" d="M5.134,385.447c-0.281,0.407-1.014,0.497-1.283,0.035c-0.359-0.487,0.119-1.188,0.68-1.185
			C5.095,384.234,5.505,385.013,5.134,385.447z"/>
		<path fill="#3F51B5" d="M25.823,366.453c-0.801,0.986-2.6,0.791-3.027-0.45c-0.566-1.265,0.754-2.743,2.068-2.438
			C26.14,363.769,26.763,365.531,25.823,366.453z"/>
		<path fill="#3F51B5" d="M3.466,378.534c-0.383,0.647-1.447,0.516-1.699-0.185c-0.291-0.682,0.459-1.42,1.141-1.26
			C3.535,377.189,3.826,378.028,3.466,378.534z"/>
		<path fill="#3F51B5" d="M18.49,364.614c-0.744,0.955-2.45,0.632-2.728-0.566c-0.375-1.181,0.967-2.349,2.092-1.902
			C18.902,362.415,19.214,363.861,18.49,364.614z"/>
		<path fill="#3F51B5" d="M5.575,371.711c-0.6,0.674-1.9,0.299-1.98-0.624c-0.156-0.912,0.994-1.656,1.769-1.174
			C6.019,370.254,6.101,371.219,5.575,371.711z"/>
		<path fill="#3F51B5" d="M11.229,366.389c-0.52,0.809-1.901,0.859-2.357-0.041c-0.65-0.985,0.469-2.32,1.559-2.04
			C11.375,364.432,11.804,365.66,11.229,366.389z"/>
	</g>
	<g>
		<path fill="#3F51B5" d="M22.22,429.313c-1.35,0.875-3.383,0.253-3.914-1.289c-0.594-1.382,0.322-3.098,1.764-3.455
			c1.281-0.425,2.849,0.253,3.318,1.541C23.849,427.281,23.296,428.693,22.22,429.313z"/>
		<path fill="#3F51B5" d="M28.638,425.517c-1.26,0.741-3.143,0.096-3.541-1.354c-0.422-1.086,0.146-2.39,1.179-2.891
			c1.146-0.669,2.798-0.242,3.409,0.955C30.343,423.364,29.784,424.929,28.638,425.517z"/>
		<path fill="#3F51B5" d="M13.499,427.387c-0.221,0.238-0.568-0.354-0.288-0.475C13.468,426.613,13.878,427.24,13.499,427.387z"/>
		<path fill="#3F51B5" d="M32.608,418.691c-0.823,0.681-2.133,0.681-2.934-0.041c-0.914-0.767-1.005-2.333-0.113-3.153
			c0.908-0.958,2.654-0.932,3.449,0.153C33.759,416.556,33.532,417.995,32.608,418.691z"/>
		<path fill="#3F51B5" d="M7.32,423.128c0.161,0.365,0.094,0.98-0.435,0.94c-0.404,0.06-0.518-0.361-0.604-0.66
			C6.562,423.13,6.935,423.031,7.32,423.128z"/>
		<path fill="#3F51B5" d="M32.489,411.272c-1.031,0.813-2.748,0.359-3.156-0.911c-0.436-1.175,0.479-2.559,1.725-2.651
			c1.211-0.205,2.418,0.914,2.267,2.145C33.279,410.42,32.949,410.944,32.489,411.272z"/>
		<path fill="#3F51B5" d="M3.644,417.863c-0.377,0.32-1.106,0.218-1.248-0.299c-0.221-0.563,0.422-1.118,0.963-0.968
			C3.921,416.681,4.115,417.538,3.644,417.863z"/>
		<path fill="#3F51B5" d="M28.545,404.871c-1.028,0.746-2.715,0.093-2.808-1.22c-0.221-1.367,1.438-2.454,2.629-1.818
			C29.546,402.361,29.691,404.224,28.545,404.871z"/>
		<path fill="#3F51B5" d="M3.823,410.756c-0.537,0.524-1.53,0.121-1.594-0.619c-0.104-0.733,0.812-1.252,1.429-0.921
			C4.238,409.473,4.302,410.359,3.823,410.756z"/>
		<path fill="#3F51B5" d="M21.938,401.197c-0.965,0.729-2.53-0.022-2.487-1.255c-0.058-1.234,1.543-2.017,2.515-1.295
			C22.904,399.18,22.831,400.656,21.938,401.197z"/>
		<path fill="#3F51B5" d="M7.626,404.71c-0.753,0.493-1.914-0.204-1.751-1.116c0.086-0.921,1.388-1.344,2.011-0.675
			C8.431,403.416,8.261,404.369,7.626,404.71z"/>
		<path fill="#3F51B5" d="M14.466,401.031c-0.711,0.646-2.06,0.338-2.267-0.648c-0.375-1.121,1.053-2.121,2.032-1.568
			C15.112,399.18,15.208,400.478,14.466,401.031z"/>
	</g>
	<g>
		<path fill="#3F51B5" d="M18.112,465.882c-1.529,0.496-3.333-0.631-3.446-2.259c-0.216-1.487,1.113-2.907,2.597-2.881
			c1.348-0.078,2.688,0.982,2.808,2.349C20.212,464.341,19.312,465.562,18.112,465.882z"/>
		<path fill="#3F51B5" d="M25.295,463.877c-1.409,0.391-3.06-0.722-3.069-2.224c-0.127-1.158,0.76-2.271,1.885-2.487
			c1.279-0.35,2.766,0.49,3.047,1.806C27.498,462.239,26.556,463.607,25.295,463.877z"/>
		<path fill="#3F51B5" d="M10.187,461.766c-0.274,0.173-0.459-0.488-0.154-0.532C10.357,461.009,10.593,461.721,10.187,461.766z"/>
		<path fill="#3F51B5" d="M30.896,458.312c-0.971,0.444-2.235,0.104-2.82-0.799c-0.686-0.979-0.367-2.515,0.705-3.075
			c1.126-0.69,2.806-0.213,3.292,1.04C32.56,456.547,31.97,457.88,30.896,458.312z"/>
		<path fill="#3F51B5" d="M5.321,456.053c0.061,0.395-0.163,0.972-0.663,0.797c-0.405-0.048-0.405-0.483-0.413-0.794
			C4.589,455.859,4.974,455.859,5.321,456.053z"/>
		<path fill="#3F51B5" d="M32.702,451.115c-1.207,0.519-2.748-0.364-2.813-1.696c-0.117-1.247,1.123-2.349,2.351-2.114
			c1.224,0.114,2.101,1.509,1.635,2.657C33.685,450.495,33.231,450.916,32.702,451.115z"/>
		<path fill="#3F51B5" d="M3.134,450.015c-0.447,0.212-1.125-0.076-1.129-0.611c-0.066-0.602,0.697-0.971,1.182-0.686
			C3.707,448.946,3.673,449.823,3.134,450.015z"/>
		<path fill="#3F51B5" d="M30.548,443.911c-1.187,0.454-2.646-0.613-2.396-1.904c0.144-1.377,2.024-1.998,3.011-1.076
			C32.165,441.744,31.823,443.581,30.548,443.911z"/>
		<path fill="#3F51B5" d="M5.146,443.197c-0.655,0.369-1.51-0.277-1.381-1.01c0.09-0.735,1.108-1,1.619-0.521
			C5.88,442.065,5.711,442.937,5.146,443.197z"/>
		<path fill="#3F51B5" d="M25.118,438.652c-1.122,0.455-2.438-0.678-2.079-1.854c0.265-1.209,2.013-1.55,2.763-0.602
			C26.573,436.953,26.121,438.361,25.118,438.652z"/>
		<path fill="#3F51B5" d="M10.384,438.341c-0.854,0.282-1.795-0.692-1.401-1.531c0.321-0.867,1.688-0.938,2.116-0.131
			C11.496,437.3,11.085,438.177,10.384,438.341z"/>
		<path fill="#3F51B5" d="M17.942,436.559c-0.854,0.439-2.077-0.206-2.021-1.214c-0.07-1.181,1.566-1.775,2.369-0.988
			C19.046,434.937,18.804,436.216,17.942,436.559z"/>
	</g>
	<g>
		<path fill="#3F51B5" d="M13.997,501.368c-1.605,0.084-3.056-1.472-2.744-3.071c0.176-1.494,1.828-2.521,3.254-2.11
			c1.321,0.272,2.342,1.644,2.104,2.994C16.425,500.425,15.239,501.369,13.997,501.368z"/>
		<path fill="#3F51B5" d="M21.454,501.291c-1.461,0.014-2.77-1.487-2.391-2.94c0.178-1.151,1.322-1.996,2.466-1.915
			c1.327-0.006,2.544,1.189,2.476,2.532C24.007,500.28,22.741,501.357,21.454,501.291z"/>
		<path fill="#3F51B5" d="M7.409,495.343c-0.311,0.096-0.316-0.591-0.012-0.556C7.769,494.656,7.81,495.404,7.409,495.343z"/>
		<path fill="#3F51B5" d="M28.306,497.365c-1.055,0.179-2.188-0.478-2.52-1.502c-0.409-1.122,0.296-2.522,1.479-2.788
			c1.267-0.375,2.765,0.521,2.91,1.856C30.368,496.092,29.453,497.227,28.306,497.365z"/>
		<path fill="#3F51B5" d="M4.187,488.565c-0.043,0.397-0.408,0.896-0.846,0.599c-0.38-0.15-0.267-0.571-0.193-0.874
			C3.53,488.188,3.901,488.286,4.187,488.565z"/>
		<path fill="#3F51B5" d="M31.912,490.881c-1.299,0.188-2.56-1.063-2.276-2.367c0.209-1.234,1.692-1.978,2.817-1.435
			c1.151,0.428,1.638,2.001,0.892,2.989C33.021,490.537,32.474,490.825,31.912,490.881z"/>
		<path fill="#3F51B5" d="M3.638,482.166c-0.487,0.089-1.068-0.365-0.933-0.884c0.09-0.598,0.925-0.757,1.317-0.355
			C4.468,481.281,4.205,482.121,3.638,482.166z"/>
		<path fill="#3F51B5" d="M31.696,483.366c-1.264,0.131-2.396-1.277-1.822-2.461c0.494-1.293,2.475-1.405,3.188-0.26
			C33.819,481.693,33.013,483.378,31.696,483.366z"/>
		<path fill="#3F51B5" d="M7.345,476.101c-0.729,0.188-1.387-0.659-1.072-1.332c0.277-0.688,1.33-0.679,1.699-0.084
			C8.347,475.198,7.958,475.995,7.345,476.101z"/>
		<path fill="#3F51B5" d="M27.812,476.88c-1.2,0.148-2.18-1.285-1.526-2.33c0.567-1.101,2.345-0.977,2.824,0.135
			C29.657,475.616,28.856,476.859,27.812,476.88z"/>
		<path fill="#3F51B5" d="M13.661,472.767c-0.9,0.052-1.557-1.134-0.958-1.842c0.535-0.755,1.873-0.47,2.079,0.422
			C15.005,472.049,14.382,472.789,13.661,472.767z"/>
		<path fill="#3F51B5" d="M21.423,473c-0.938,0.205-1.953-0.735-1.638-1.694c0.237-1.157,1.974-1.311,2.544-0.341
			C22.909,471.721,22.345,472.894,21.423,473z"/>
	</g>
	<g>
		<path fill="#3F51B5" d="M10.156,535.81c-1.572-0.335-2.57-2.213-1.854-3.679c0.557-1.396,2.418-1.962,3.688-1.196
			c1.206,0.606,1.835,2.194,1.257,3.437C12.745,535.526,11.354,536.132,10.156,535.81z"/>
		<path fill="#3F51B5" d="M17.38,537.664c-1.416-0.365-2.291-2.153-1.548-3.46c0.47-1.065,1.793-1.586,2.876-1.212
			c1.283,0.338,2.15,1.809,1.736,3.087C20.106,537.347,18.604,538.061,17.38,537.664z"/>
		<path fill="#3F51B5" d="M5.351,528.281c-0.324,0.014-0.152-0.651,0.132-0.538C5.877,527.712,5.724,528.446,5.351,528.281z"/>
		<path fill="#3F51B5" d="M25.013,535.646c-1.063-0.101-1.99-1.026-2.043-2.103c-0.104-1.189,0.938-2.36,2.147-2.312
			c1.319-0.035,2.536,1.219,2.331,2.547C27.335,534.948,26.157,535.808,25.013,535.646z"/>
		<path fill="#3F51B5" d="M3.993,520.903c-0.145,0.371-0.627,0.76-0.973,0.358c-0.327-0.244-0.109-0.621,0.039-0.896
			C3.456,520.366,3.789,520.56,3.993,520.903z"/>
		<path fill="#3F51B5" d="M30.175,530.316c-1.304-0.155-2.197-1.688-1.586-2.876c0.521-1.139,2.146-1.472,3.092-0.656
			c1.002,0.711,1.063,2.356,0.088,3.119C31.335,530.272,30.732,530.407,30.175,530.316z"/>
		<path fill="#3F51B5" d="M5.118,514.578c-0.493-0.04-0.938-0.629-0.672-1.094c0.242-0.555,1.089-0.492,1.365-0.004
			C6.149,513.94,5.679,514.684,5.118,514.578z"/>
		<path fill="#3F51B5" d="M31.911,523c-1.255-0.199-1.984-1.854-1.123-2.848c0.813-1.122,2.753-0.719,3.146,0.573
			C34.394,521.934,33.181,523.353,31.911,523z"/>
		<path fill="#3F51B5" d="M10.269,509.68c-0.752-0.008-1.168-0.995-0.689-1.564c0.445-0.592,1.46-0.312,1.662,0.358
			C11.472,509.067,10.89,509.739,10.269,509.68z"/>
		<path fill="#3F51B5" d="M29.839,515.731c-1.199-0.167-1.771-1.807-0.871-2.646c0.832-0.915,2.517-0.335,2.692,0.86
			C31.947,514.989,30.853,515.98,29.839,515.731z"/>
		<path fill="#3F51B5" d="M17.234,508.094c-0.882-0.183-1.209-1.497-0.449-2.026c0.711-0.591,1.931,0.031,1.899,0.945
			C18.718,507.748,17.923,508.303,17.234,508.094z"/>
		<path fill="#3F51B5" d="M24.67,510.329c-0.959-0.045-1.694-1.217-1.143-2.062c0.528-1.058,2.243-0.755,2.546,0.328
			C26.437,509.478,25.589,510.464,24.67,510.329z"/>
	</g>
	<g>
		<path fill="#3F51B5" d="M6.849,569.309c-1.432-0.73-1.91-2.803-0.84-4.033c0.899-1.205,2.844-1.27,3.875-0.2
			c1.008,0.896,1.205,2.595,0.324,3.646C9.425,569.703,7.925,569.931,6.849,569.309z"/>
		<path fill="#3F51B5" d="M13.347,572.97c-1.272-0.72-1.654-2.673-0.6-3.742c0.729-0.908,2.143-1.067,3.092-0.426
			c1.152,0.657,1.609,2.303,0.879,3.431C16.062,573.368,14.429,573.669,13.347,572.97z"/>
		<path fill="#3F51B5" d="M4.156,560.795c-0.317-0.073,0.021-0.67,0.267-0.486C4.812,560.38,4.474,561.049,4.156,560.795z"/>
		<path fill="#3F51B5" d="M21.242,572.994c-1.001-0.372-1.656-1.507-1.431-2.56c0.207-1.176,1.519-2.037,2.674-1.676
			c1.283,0.308,2.134,1.833,1.592,3.063C23.665,572.924,22.306,573.448,21.242,572.994z"/>
		<path fill="#3F51B5" d="M4.755,553.315c-0.236,0.321-0.802,0.571-1.031,0.094c-0.254-0.319,0.055-0.628,0.269-0.854
			C4.374,552.657,4.646,552.931,4.755,553.315z"/>
		<path fill="#3F51B5" d="M27.607,569.183c-1.22-0.487-1.685-2.2-0.788-3.188c0.799-0.965,2.454-0.865,3.156,0.167
			c0.785,0.945,0.418,2.553-0.724,3.035C28.74,569.441,28.122,569.416,27.607,569.183z"/>
		<path fill="#3F51B5" d="M7.478,547.497c-0.467-0.167-0.742-0.851-0.366-1.23c0.377-0.474,1.179-0.193,1.319,0.351
			C8.64,547.147,7.992,547.742,7.478,547.497z"/>
		<path fill="#3F51B5" d="M31.179,562.568c-1.16-0.519-1.438-2.306-0.349-3.042c1.074-0.873,2.845,0.02,2.89,1.368
			C33.853,562.179,32.312,563.236,31.179,562.568z"/>
		<path fill="#3F51B5" d="M13.722,544.099c-0.725-0.202-0.871-1.265-0.262-1.689c0.583-0.457,1.491,0.076,1.512,0.776
			C15.04,543.818,14.306,544.315,13.722,544.099z"/>
		<path fill="#3F51B5" d="M31.058,555.008c-1.114-0.473-1.244-2.203-0.157-2.782c1.042-0.668,2.518,0.328,2.379,1.529
			C33.287,554.836,31.972,555.511,31.058,555.008z"/>
		<path fill="#3F51B5" d="M20.859,544.368c-0.806-0.403-0.78-1.759,0.091-2.073c0.84-0.387,1.855,0.529,1.589,1.403
			C22.382,544.42,21.472,544.748,20.859,544.368z"/>
		<path fill="#3F51B5" d="M27.464,548.452c-0.914-0.291-1.322-1.612-0.57-2.286c0.783-0.885,2.363-0.147,2.375,0.977
			C29.392,548.088,28.315,548.821,27.464,548.452z"/>
	</g>
	<g>
		<path fill="#3F51B5" d="M4.302,602.036c-1.193-1.077-1.119-3.202,0.232-4.112c1.182-0.933,3.075-0.49,3.793,0.809
			c0.741,1.128,0.492,2.817-0.63,3.604C6.687,603.085,5.179,602.916,4.302,602.036z"/>
		<path fill="#3F51B5" d="M9.63,607.255c-1.041-1.024-0.906-3.012,0.391-3.771c0.938-0.688,2.346-0.478,3.097,0.389
			c0.942,0.935,0.958,2.642-0.04,3.541C12.15,608.343,10.493,608.21,9.63,607.255z"/>
		<path fill="#3F51B5" d="M3.905,593.115c-0.288-0.151,0.193-0.642,0.383-0.4C4.646,592.885,4.146,593.444,3.905,593.115z"/>
		<path fill="#3F51B5" d="M17.25,609.323c-0.87-0.619-1.21-1.884-0.719-2.843c0.504-1.082,1.994-1.574,3.017-0.927
			c1.16,0.63,1.586,2.322,0.744,3.371C19.61,609.881,18.16,610.035,17.25,609.323z"/>
		<path fill="#3F51B5" d="M6.419,586.045c-0.312,0.25-0.923,0.345-1.021-0.177c-0.16-0.375,0.217-0.593,0.482-0.755
			C6.222,585.314,6.413,585.647,6.419,586.045z"/>
		<path fill="#3F51B5" d="M24.386,607.287c-1.052-0.785-1.059-2.562,0.063-3.283c1.021-0.727,2.595-0.201,3.006,0.979
			c0.513,1.116-0.257,2.572-1.483,2.744C25.413,607.829,24.822,607.648,24.386,607.287z"/>
		<path fill="#3F51B5" d="M10.554,581.132c-0.406-0.281-0.496-1.015-0.035-1.283c0.488-0.359,1.189,0.118,1.185,0.68
			C11.767,581.094,10.988,581.503,10.554,581.132z"/>
		<path fill="#3F51B5" d="M29.546,601.823c-0.986-0.801-0.791-2.6,0.452-3.027c1.265-0.565,2.743,0.754,2.438,2.068
			C32.231,602.139,30.47,602.761,29.546,601.823z"/>
		<path fill="#3F51B5" d="M17.466,579.465c-0.647-0.383-0.515-1.446,0.185-1.7c0.682-0.29,1.42,0.46,1.26,1.142
			C18.812,579.533,17.972,579.823,17.466,579.465z"/>
		<path fill="#3F51B5" d="M31.388,594.489c-0.955-0.743-0.633-2.45,0.567-2.727c1.179-0.376,2.349,0.968,1.901,2.092
			C33.585,594.901,32.14,595.212,31.388,594.489z"/>
		<path fill="#3F51B5" d="M24.289,581.573c-0.673-0.599-0.298-1.9,0.625-1.979c0.912-0.155,1.655,0.992,1.172,1.768
			C25.747,582.017,24.782,582.099,24.289,581.573z"/>
		<path fill="#3F51B5" d="M29.611,587.228c-0.808-0.519-0.859-1.901,0.041-2.356c0.985-0.65,2.321,0.47,2.041,1.559
			C31.568,587.372,30.339,587.803,29.611,587.228z"/>
	</g>
	<g>
		<path fill="#3F51B5" d="M3.115,635.534c-0.989-1.267-0.547-3.347,0.942-4.01c1.326-0.712,3.113,0.051,3.597,1.455
			c0.534,1.239-0.004,2.86-1.247,3.44C5.281,636.983,3.826,636.554,3.115,635.534z"/>
		<path fill="#3F51B5" d="M7.455,641.6c-0.849-1.189-0.369-3.122,1.039-3.646c1.045-0.516,2.394-0.063,2.981,0.921
			c0.767,1.084,0.485,2.768-0.653,3.479C9.748,643.11,8.14,642.691,7.455,641.6z"/>
		<path fill="#3F51B5" d="M4.272,626.682c-0.258-0.2,0.302-0.6,0.447-0.328C5.041,626.581,4.452,627.046,4.272,626.682z"/>
		<path fill="#3F51B5" d="M14.601,644.96c-0.75-0.762-0.863-2.065-0.213-2.926c0.684-0.978,2.235-1.204,3.131-0.389
			c1.033,0.822,1.16,2.563,0.147,3.449C16.827,645.919,15.373,645.82,14.601,644.96z"/>
		<path fill="#3F51B5" d="M7.976,620.155c-0.35,0.192-0.969,0.181-0.976-0.351c-0.093-0.396,0.316-0.546,0.604-0.659
			C7.908,619.401,8.04,619.762,7.976,620.155z"/>
		<path fill="#3F51B5" d="M21.981,644.195c-0.899-0.956-0.598-2.706,0.633-3.223c1.131-0.537,2.59,0.253,2.791,1.485
			c0.311,1.188-0.7,2.488-1.938,2.444C22.897,644.906,22.349,644.623,21.981,644.195z"/>
		<path fill="#3F51B5" d="M12.902,616.033c-0.353-0.348-0.313-1.084,0.188-1.271c0.541-0.27,1.15,0.323,1.047,0.875
			C14.103,616.206,13.265,616.475,12.902,616.033z"/>
		<path fill="#3F51B5" d="M28.013,639.707c-0.832-0.96-0.328-2.696,0.972-2.903c1.343-0.337,2.569,1.22,2.041,2.461
			C30.603,640.487,28.759,640.793,28.013,639.707z"/>
		<path fill="#3F51B5" d="M19.997,615.593c-0.57-0.49-0.254-1.516,0.477-1.644c0.723-0.167,1.319,0.7,1.043,1.344
			C21.312,615.895,20.435,616.034,19.997,615.593z"/>
		<path fill="#3F51B5" d="M31.099,632.806c-0.812-0.898-0.196-2.522,1.033-2.588c1.227-0.165,2.144,1.36,1.51,2.392
			C33.191,633.593,31.716,633.649,31.099,632.806z"/>
		<path fill="#3F51B5" d="M26.351,618.855c-0.559-0.707,0.037-1.925,0.959-1.842c0.926,0.005,1.459,1.265,0.849,1.943
			C27.71,619.544,26.745,619.456,26.351,618.855z"/>
		<path fill="#3F51B5" d="M30.611,625.347c-0.706-0.65-0.517-2.021,0.448-2.313c1.086-0.471,2.205,0.864,1.74,1.889
			C32.513,625.829,31.228,626.038,30.611,625.347z"/>
	</g>
	<g>
		<path fill="#3F51B5" d="M2.188,667.493c-0.627-1.479,0.339-3.375,1.949-3.63c1.465-0.345,2.994,0.855,3.097,2.337
			c0.194,1.335-0.744,2.763-2.095,3C3.907,669.451,2.613,668.66,2.188,667.493z"/>
		<path fill="#3F51B5" d="M4.812,674.476c-0.512-1.37,0.453-3.111,1.947-3.252c1.144-0.229,2.328,0.56,2.643,1.661
			c0.46,1.244-0.247,2.798-1.532,3.19C6.638,676.527,5.191,675.705,4.812,674.476z"/>
		<path fill="#3F51B5" d="M5.599,659.24c-0.196-0.259,0.447-0.5,0.517-0.201C6.367,659.345,5.679,659.64,5.599,659.24z"/>
		<path fill="#3F51B5" d="M10.845,679.571c-0.526-0.93-0.299-2.219,0.551-2.881c0.914-0.768,2.472-0.584,3.125,0.436
			c0.785,1.063,0.457,2.776-0.75,3.37C12.747,681.073,11.368,680.601,10.845,679.571z"/>
		<path fill="#3F51B5" d="M10.866,653.896c-0.389,0.095-0.982-0.078-0.852-0.591c0.012-0.408,0.445-0.446,0.754-0.48
			C10.995,653.15,11.029,653.531,10.866,653.896z"/>
		<path fill="#3F51B5" d="M18.173,680.74c-0.621-1.155,0.123-2.769,1.445-2.948c1.232-0.227,2.438,0.913,2.311,2.156
			c-0.006,1.229-1.319,2.224-2.504,1.86C18.873,681.666,18.415,681.25,18.173,680.74z"/>
		<path fill="#3F51B5" d="M16.69,651.191c-0.25-0.428-0.022-1.129,0.51-1.178c0.594-0.12,1.027,0.608,0.786,1.116
			C17.806,651.668,16.927,651.71,16.69,651.191z"/>
		<path fill="#3F51B5" d="M25.159,677.968c-0.557-1.144,0.381-2.689,1.688-2.554c1.386,0.021,2.168,1.844,1.336,2.905
			C27.459,679.391,25.599,679.209,25.159,677.968z"/>
		<path fill="#3F51B5" d="M23.658,652.6c-0.425-0.62,0.146-1.528,0.886-1.462c0.74,0.024,1.094,1.017,0.659,1.565
			C24.849,653.233,23.966,653.141,23.658,652.6z"/>
		<path fill="#3F51B5" d="M29.927,672.1c-0.552-1.077,0.463-2.487,1.668-2.231c1.228,0.157,1.717,1.869,0.838,2.7
			C31.744,673.402,30.304,673.073,29.927,672.1z"/>
		<path fill="#3F51B5" d="M28.951,657.396c-0.356-0.828,0.533-1.85,1.403-1.531c0.893,0.245,1.08,1.601,0.314,2.1
			C30.086,658.412,29.177,658.078,28.951,657.396z"/>
		<path fill="#3F51B5" d="M31.386,664.77c-0.513-0.813,0.024-2.087,1.033-2.119c1.17-0.174,1.905,1.406,1.191,2.274
			C33.097,665.729,31.804,665.598,31.386,664.77z"/>
	</g>
	<g>
		<path fill="#3F51B5" d="M2.341,699.351c-0.223-1.592,1.2-3.172,2.822-3.001c1.503,0.045,2.671,1.601,2.387,3.058
			c-0.158,1.341-1.435,2.477-2.8,2.356C3.493,701.687,2.448,700.588,2.341,699.351z"/>
		<path fill="#3F51B5" d="M3.068,706.774c-0.14-1.456,1.241-2.889,2.722-2.638c1.163,0.076,2.104,1.143,2.123,2.288
			c0.122,1.32-0.963,2.639-2.307,2.688C4.3,709.227,3.116,708.061,3.068,706.774z"/>
		<path fill="#3F51B5" d="M7.771,692.262c-0.123-0.301,0.561-0.367,0.551-0.062C8.486,692.561,7.744,692.668,7.771,692.262z"/>
		<path fill="#3F51B5" d="M7.576,713.256c-0.269-1.034,0.284-2.222,1.276-2.642c1.082-0.505,2.539,0.076,2.906,1.229
			c0.483,1.229-0.279,2.8-1.597,3.062C9.025,715.198,7.815,714.387,7.576,713.256z"/>
		<path fill="#3F51B5" d="M14.242,688.461c-0.399-0.01-0.929-0.329-0.67-0.791c0.118-0.392,0.546-0.315,0.854-0.27
			C14.56,687.774,14.493,688.153,14.242,688.461z"/>
		<path fill="#3F51B5" d="M14.351,716.282c-0.301-1.277,0.834-2.643,2.16-2.475c1.248,0.101,2.116,1.514,1.674,2.683
			c-0.325,1.185-1.851,1.806-2.9,1.147C14.788,717.359,14.453,716.839,14.351,716.282z"/>
		<path fill="#3F51B5" d="M20.568,687.356c-0.132-0.478,0.271-1.096,0.798-1.006c0.604,0.039,0.835,0.854,0.47,1.282
			C21.521,688.106,20.661,687.919,20.568,687.356z"/>
		<path fill="#3F51B5" d="M21.817,715.412c-0.241-1.246,1.064-2.5,2.292-2.028c1.332,0.379,1.616,2.341,0.536,3.15
			C23.671,717.382,21.921,716.726,21.817,715.412z"/>
		<path fill="#3F51B5" d="M26.933,690.521c-0.25-0.709,0.537-1.438,1.233-1.184c0.709,0.217,0.793,1.266,0.231,1.685
			C27.921,691.44,27.091,691.122,26.933,690.521z"/>
		<path fill="#3F51B5" d="M27.941,710.979c-0.255-1.184,1.09-2.283,2.188-1.725c1.145,0.471,1.176,2.251,0.11,2.825
			C29.359,712.705,28.054,712.017,27.941,710.979z"/>
		<path fill="#3F51B5" d="M30.806,696.523c-0.131-0.892,0.992-1.647,1.75-1.115c0.799,0.469,0.631,1.825-0.237,2.108
			C31.638,697.799,30.845,697.24,30.806,696.523z"/>
		<path fill="#3F51B5" d="M31.248,704.276c-0.286-0.916,0.563-2.01,1.546-1.779c1.176,0.136,1.477,1.853,0.563,2.506
			C32.653,705.645,31.435,705.184,31.248,704.276z"/>
	</g>
	<g>
		<path fill="#3F51B5" d="M3.56,731.388c0.197-1.597,1.98-2.754,3.502-2.169c1.44,0.434,2.166,2.237,1.514,3.57
			c-0.499,1.256-2.025,2.021-3.314,1.553C4.069,733.943,3.343,732.611,3.56,731.388z"/>
		<path fill="#3F51B5" d="M2.341,738.744c0.241-1.44,1.946-2.469,3.313-1.843c1.104,0.375,1.736,1.648,1.458,2.76
			c-0.224,1.309-1.613,2.301-2.923,1.998C2.896,741.434,2.054,740,2.341,738.744z"/>
		<path fill="#3F51B5" d="M10.64,725.946c-0.041-0.322,0.636-0.209,0.547,0.084C11.253,726.42,10.509,726.33,10.64,725.946z"/>
		<path fill="#3F51B5" d="M5.019,746.174c0.008-1.068,0.85-2.071,1.916-2.221c1.176-0.208,2.434,0.73,2.49,1.939
			c0.149,1.313-0.994,2.633-2.334,2.544C5.914,748.427,4.956,747.327,5.019,746.174z"/>
		<path fill="#3F51B5" d="M17.873,723.948c-0.383-0.11-0.812-0.558-0.442-0.938c0.215-0.348,0.609-0.163,0.895-0.039
			C18.359,723.367,18.197,723.717,17.873,723.948z"/>
		<path fill="#3F51B5" d="M10.778,750.852c0.041-1.313,1.49-2.336,2.727-1.831c1.18,0.421,1.653,2.01,0.922,3.024
			c-0.619,1.06-2.254,1.265-3.099,0.356C10.923,752.004,10.734,751.414,10.778,750.852z"/>
		<path fill="#3F51B5" d="M24.271,724.519c-0.004-0.494,0.545-0.988,1.031-0.765c0.572,0.192,0.584,1.042,0.121,1.359
			C24.997,725.49,24.216,725.087,24.271,724.519z"/>
		<path fill="#3F51B5" d="M18.216,751.944c0.09-1.267,1.674-2.139,2.739-1.366c1.188,0.71,0.955,2.681-0.297,3.185
			C19.496,754.324,17.976,753.239,18.216,751.944z"/>
		<path fill="#3F51B5" d="M29.599,729.224c-0.058-0.75,0.892-1.251,1.498-0.823c0.629,0.393,0.438,1.427-0.211,1.687
			C30.315,730.366,29.597,729.846,29.599,729.224z"/>
		<path fill="#3F51B5" d="M25.278,749.244c0.063-1.208,1.645-1.923,2.561-1.099c0.983,0.75,0.553,2.478-0.623,2.758
			C26.201,751.281,25.118,750.278,25.278,749.244z"/>
		<path fill="#3F51B5" d="M31.786,736.024c0.105-0.896,1.387-1.335,1.98-0.624c0.649,0.657,0.137,1.926-0.775,1.974
			C32.261,737.472,31.638,736.729,31.786,736.024z"/>
		<path fill="#3F51B5" d="M30.208,743.625c-0.039-0.959,1.064-1.795,1.954-1.316c1.099,0.434,0.946,2.17-0.106,2.563
			C31.211,745.313,30.154,744.552,30.208,743.625z"/>
	</g>
	<g>
		<path fill="#3F51B5" d="M5.763,763.875c0.604-1.49,2.625-2.146,3.944-1.188c1.279,0.791,1.513,2.722,0.538,3.841
			c-0.807,1.082-2.479,1.427-3.604,0.643C5.595,766.475,5.237,765,5.763,763.875z"/>
		<path fill="#3F51B5" d="M2.681,770.666c0.606-1.329,2.52-1.881,3.677-0.923c0.969,0.646,1.25,2.042,0.692,3.043
			c-0.555,1.205-2.152,1.804-3.341,1.175C2.521,773.406,2.079,771.806,2.681,770.666z"/>
		<path fill="#3F51B5" d="M14.011,760.45c0.043-0.321,0.668-0.038,0.506,0.224C14.479,761.068,13.784,760.788,14.011,760.45z"/>
		<path fill="#3F51B5" d="M3.345,778.534c0.285-1.029,1.357-1.78,2.426-1.647c1.189,0.104,2.162,1.335,1.902,2.518
			c-0.195,1.308-1.64,2.286-2.912,1.854C3.627,780.944,2.986,779.634,3.345,778.534z"/>
		<path fill="#3F51B5" d="M21.515,760.396c-0.342-0.207-0.64-0.75-0.185-1.021c0.297-0.279,0.631,0,0.874,0.193
			C22.134,759.959,21.888,760.254,21.515,760.396z"/>
		<path fill="#3F51B5" d="M7.698,784.545c0.379-1.259,2.045-1.871,3.107-1.064c1.031,0.712,1.076,2.37,0.108,3.16
			c-0.874,0.863-2.505,0.639-3.086-0.456C7.539,785.695,7.509,785.076,7.698,784.545z"/>
		<path fill="#3F51B5" d="M27.546,762.601c0.125-0.479,0.782-0.813,1.194-0.472c0.504,0.335,0.295,1.157-0.233,1.346
			C27.996,763.728,27.347,763.136,27.546,762.601z"/>
		<path fill="#3F51B5" d="M14.599,787.524c0.416-1.2,2.172-1.632,3-0.61c0.963,0.993,0.229,2.835-1.11,2.998
			C15.22,790.156,14.033,788.713,14.599,787.524z"/>
		<path fill="#3F51B5" d="M31.476,768.525c0.139-0.739,1.184-0.978,1.66-0.407c0.506,0.541,0.055,1.491-0.642,1.574
			C31.871,769.815,31.312,769.125,31.476,768.525z"/>
		<path fill="#3F51B5" d="M22.119,786.745c0.373-1.151,2.086-1.433,2.757-0.398c0.756,0.979-0.107,2.537-1.316,2.503
			C22.484,788.95,21.698,787.7,22.119,786.745z"/>
		<path fill="#3F51B5" d="M31.828,775.657c0.333-0.837,1.685-0.931,2.074-0.09c0.458,0.804-0.366,1.896-1.261,1.706
			C31.91,777.18,31.503,776.301,31.828,775.657z"/>
		<path fill="#3F51B5" d="M28.335,782.594c0.211-0.938,1.493-1.458,2.229-0.769c0.951,0.704,0.354,2.343-0.766,2.45
			C28.868,784.483,28.044,783.475,28.335,782.594z"/>
	</g>
	<g>
		<path fill="#3F51B5" d="M8.8,797.053c0.969-1.283,3.092-1.396,4.118-0.127c1.031,1.096,0.757,3.021-0.475,3.85
			c-1.06,0.837-2.765,0.736-3.646-0.313C7.964,799.52,8.001,798.004,8.8,797.053z"/>
		<path fill="#3F51B5" d="M4.066,802.816c0.93-1.128,2.92-1.165,3.79,0.06c0.768,0.877,0.68,2.297-0.118,3.119
			c-0.849,1.021-2.547,1.186-3.531,0.271C3.202,805.421,3.19,803.76,4.066,802.816z"/>
		<path fill="#3F51B5" d="M17.653,795.88c0.126-0.301,0.656,0.137,0.432,0.347C17.948,796.597,17.347,796.149,17.653,795.88z"/>
		<path fill="#3F51B5" d="M2.671,810.587c0.54-0.922,1.771-1.369,2.77-0.965c1.121,0.408,1.742,1.85,1.186,2.925
			c-0.525,1.212-2.176,1.782-3.293,1.035C2.32,812.987,2.039,811.556,2.671,810.587z"/>
		<path fill="#3F51B5" d="M24.916,797.769c-0.276-0.289-0.424-0.89,0.086-1.033c0.359-0.192,0.609,0.163,0.794,0.413
			C25.627,797.508,25.312,797.729,24.916,797.769z"/>
		<path fill="#3F51B5" d="M5.319,817.519c0.691-1.116,2.46-1.277,3.277-0.223c0.812,0.953,0.426,2.566-0.713,3.079
			c-1.067,0.607-2.586-0.031-2.863-1.238C4.869,818.589,4.999,817.985,5.319,817.519z"/>
		<path fill="#3F51B5" d="M30.171,801.46c0.245-0.432,0.967-0.584,1.275-0.147c0.4,0.455-0.016,1.195-0.574,1.239
			C30.313,802.663,29.839,801.924,30.171,801.46z"/>
		<path fill="#3F51B5" d="M11.216,822.183c0.711-1.053,2.52-1.015,3.055,0.187c0.674,1.209-0.512,2.799-1.848,2.608
			C11.134,824.886,10.36,823.185,11.216,822.183z"/>
		<path fill="#3F51B5" d="M32.433,808.198c0.326-0.679,1.396-0.639,1.711,0.035c0.348,0.654-0.336,1.455-1.027,1.354
			C32.482,809.547,32.119,808.737,32.433,808.198z"/>
		<path fill="#3F51B5" d="M18.681,823.377c0.658-1.017,2.386-0.844,2.767,0.327c0.478,1.144-0.761,2.424-1.919,2.077
			C18.462,825.603,18.026,824.192,18.681,823.377z"/>
		<path fill="#3F51B5" d="M30.929,815.181c0.537-0.724,1.867-0.463,2.026,0.45c0.234,0.895-0.845,1.734-1.659,1.32
			C30.613,816.672,30.447,815.718,30.929,815.181z"/>
		<path fill="#3F51B5" d="M25.759,820.976c0.446-0.85,1.819-1.022,2.353-0.164c0.733,0.925-0.265,2.353-1.374,2.168
			C25.784,822.939,25.25,821.75,25.759,820.976z"/>
	</g>
	<g>
		<path fill="#3F51B5" d="M12.466,831.114c1.267-0.988,3.346-0.547,4.01,0.942c0.711,1.325-0.051,3.114-1.457,3.596
			c-1.238,0.534-2.859-0.004-3.439-1.246C11.019,833.28,11.447,831.823,12.466,831.114z"/>
		<path fill="#3F51B5" d="M6.4,835.453c1.19-0.85,3.122-0.369,3.646,1.038c0.516,1.045,0.062,2.395-0.922,2.982
			c-1.083,0.766-2.767,0.485-3.48-0.654C4.892,837.746,5.31,836.139,6.4,835.453z"/>
		<path fill="#3F51B5" d="M21.319,832.271c0.199-0.257,0.599,0.302,0.328,0.447C21.418,833.039,20.954,832.45,21.319,832.271z"/>
		<path fill="#3F51B5" d="M3.04,842.6c0.762-0.75,2.066-0.864,2.926-0.215c0.978,0.685,1.203,2.235,0.389,3.131
			c-0.822,1.034-2.564,1.16-3.449,0.147C2.081,844.825,2.181,843.37,3.04,842.6z"/>
		<path fill="#3F51B5" d="M27.847,835.975c-0.191-0.35-0.18-0.969,0.351-0.977c0.397-0.094,0.546,0.315,0.659,0.604
			C28.601,835.906,28.239,836.037,27.847,835.975z"/>
		<path fill="#3F51B5" d="M3.806,849.981c0.957-0.898,2.707-0.598,3.223,0.633c0.537,1.132-0.253,2.59-1.486,2.791
			c-1.188,0.312-2.488-0.7-2.445-1.938C3.093,850.898,3.376,850.348,3.806,849.981z"/>
		<path fill="#3F51B5" d="M31.968,840.901c0.348-0.352,1.084-0.313,1.27,0.188c0.27,0.542-0.323,1.149-0.875,1.048
			C31.793,842.102,31.525,841.264,31.968,840.901z"/>
		<path fill="#3F51B5" d="M8.293,856.011c0.959-0.832,2.697-0.327,2.903,0.971c0.337,1.343-1.219,2.57-2.461,2.041
			C7.515,858.601,7.207,856.758,8.293,856.011z"/>
		<path fill="#3F51B5" d="M32.408,847.995c0.489-0.57,1.515-0.255,1.642,0.478c0.168,0.722-0.699,1.317-1.343,1.043
			C32.104,849.311,31.966,848.434,32.408,847.995z"/>
		<path fill="#3F51B5" d="M15.195,859.098c0.897-0.813,2.522-0.197,2.587,1.032c0.165,1.227-1.361,2.144-2.391,1.51
			C14.408,861.19,14.353,859.714,15.195,859.098z"/>
		<path fill="#3F51B5" d="M29.146,854.35c0.707-0.56,1.925,0.037,1.842,0.96c-0.005,0.925-1.266,1.458-1.944,0.847
			C28.457,855.709,28.544,854.743,29.146,854.35z"/>
		<path fill="#3F51B5" d="M22.653,858.61c0.65-0.705,2.021-0.517,2.314,0.45c0.469,1.084-0.865,2.204-1.89,1.738
			C22.171,860.512,21.961,859.227,22.653,858.61z"/>
	</g>
	<rect y="0" fill="#607D8B" fill-opacity="0" width="36" height="864"/>
</g>
</svg>
