<svg width="324" height="27" viewBox="0 0 324 27" fill="none" xmlns="http://www.w3.org/2000/svg">
<g opacity="0.25">
<path opacity="0.25" d="M58.1538 18.6923C58.1538 20.9769 60.0231 22.8462 62.3077 22.8462H72.6923C74.9769 22.8462 76.8461 20.9769 76.8461 18.6923V8.30769C76.8461 6.02308 74.9769 4.15385 72.6923 4.15385H62.3077C60.0231 4.15385 58.1538 6.02308 58.1538 8.30769V18.6923Z" fill="#735EAB"/>
</g>
<path opacity="0.25" d="M71.8615 8.82692L65.6308 15.0577L63.1384 12.5654L61.5807 14.1231L65.6308 18.1731L73.4192 10.3846L71.8615 8.82692Z" fill="white"/>
<path d="M4.15384 18.6923C4.15384 20.9769 6.02307 22.8462 8.30769 22.8462H18.6923C20.9769 22.8462 22.8461 20.9769 22.8461 18.6923V8.30769C22.8461 6.02308 20.9769 4.15385 18.6923 4.15385H8.30769C6.02307 4.15385 4.15384 6.02308 4.15384 8.30769V18.6923Z" fill="#735EAB"/>
<path d="M31.1538 18.6923C31.1538 20.9769 33.0231 22.8462 35.3077 22.8462H45.6923C47.9769 22.8462 49.8461 20.9769 49.8461 18.6923V8.30769C49.8461 6.02308 47.9769 4.15385 45.6923 4.15385H35.3077C33.0231 4.15385 31.1538 6.02308 31.1538 8.30769V18.6923Z" fill="#735EAB"/>
<g opacity="0.25">
<path opacity="0.25" d="M274.154 18.6923C274.154 20.9769 276.023 22.8462 278.308 22.8462H288.692C290.977 22.8462 292.846 20.9769 292.846 18.6923V8.30769C292.846 6.02308 290.977 4.15385 288.692 4.15385H278.308C276.023 4.15385 274.154 6.02308 274.154 8.30769V18.6923Z" fill="#735EAB"/>
</g>
<path d="M85.1538 18.6923C85.1538 20.9769 87.0231 22.8462 89.3077 22.8462H99.6923C101.977 22.8462 103.846 20.9769 103.846 18.6923V8.30769C103.846 6.02308 101.977 4.15385 99.6923 4.15385H89.3077C87.0231 4.15385 85.1538 6.02308 85.1538 8.30769V18.6923Z" fill="#735EAB"/>
<path d="M143.308 22.3269C141.335 22.3269 139.673 20.6654 139.673 18.6923V8.3077C139.673 6.33462 141.335 4.67308 143.308 4.67308H153.692C155.665 4.67308 157.327 6.33462 157.327 8.3077V18.6923C157.327 20.6654 155.665 22.3269 153.692 22.3269H143.308Z" fill="#F1F2F4"/>
<path d="M116.308 22.3269C114.335 22.3269 112.673 20.6654 112.673 18.6923V8.3077C112.673 6.33462 114.335 4.67308 116.308 4.67308H126.692C128.665 4.67308 130.327 6.33462 130.327 8.3077V18.6923C130.327 20.6654 128.665 22.3269 126.692 22.3269H116.308Z" fill="#323234"/>
<path d="M153.692 5.19231C155.458 5.19231 156.808 6.54231 156.808 8.30769V18.6923C156.808 20.4577 155.458 21.8077 153.692 21.8077H143.308C141.542 21.8077 140.192 20.4577 140.192 18.6923V8.30769C140.192 6.54231 141.542 5.19231 143.308 5.19231H153.692ZM153.692 4.15385H143.308C141.023 4.15385 139.154 6.02308 139.154 8.30769V18.6923C139.154 20.9769 141.023 22.8462 143.308 22.8462H153.692C155.977 22.8462 157.846 20.9769 157.846 18.6923V8.30769C157.846 6.02308 155.977 4.15385 153.692 4.15385Z" fill="#D5D5D5"/>
<path d="M197.308 22.3269C195.335 22.3269 193.673 20.6654 193.673 18.6923V8.3077C193.673 6.33462 195.335 4.67308 197.308 4.67308H207.692C209.665 4.67308 211.327 6.33462 211.327 8.3077V18.6923C211.327 20.6654 209.665 22.3269 207.692 22.3269H197.308Z" fill="#F1F2F4"/>
<path d="M207.692 5.19231C209.458 5.19231 210.808 6.54231 210.808 8.30769V18.6923C210.808 20.4577 209.458 21.8077 207.692 21.8077H197.308C195.542 21.8077 194.192 20.4577 194.192 18.6923V8.30769C194.192 6.54231 195.542 5.19231 197.308 5.19231H207.692ZM207.692 4.15385H197.308C195.023 4.15385 193.154 6.02308 193.154 8.30769V18.6923C193.154 20.9769 195.023 22.8462 197.308 22.8462H207.692C209.977 22.8462 211.846 20.9769 211.846 18.6923V8.30769C211.846 6.02308 209.977 4.15385 207.692 4.15385Z" fill="#D5D5D5"/>
<path d="M224.308 22.3269C222.335 22.3269 220.673 20.6654 220.673 18.6923V8.3077C220.673 6.33462 222.335 4.67308 224.308 4.67308H234.692C236.665 4.67308 238.327 6.33462 238.327 8.3077V18.6923C238.327 20.6654 236.665 22.3269 234.692 22.3269H224.308Z" fill="#FF0000"/>
<path d="M234.692 4.15385H224.308C222.023 4.15385 220.154 6.02308 220.154 8.30769V18.6923C220.154 20.9769 222.023 22.8462 224.308 22.8462H234.692C236.977 22.8462 238.846 20.9769 238.846 18.6923V8.30769C238.846 6.02308 236.977 4.15385 234.692 4.15385Z" fill="#735EAB"/>
<g opacity="0.25">
<path opacity="0.25" d="M170.308 22.3269C168.335 22.3269 166.673 20.6654 166.673 18.6923V8.3077C166.673 6.33462 168.335 4.67308 170.308 4.67308H180.692C182.665 4.67308 184.327 6.33462 184.327 8.3077V18.6923C184.327 20.6654 182.665 22.3269 180.692 22.3269H170.308Z" fill="white"/>
<path opacity="0.25" d="M180.692 4.15385H170.308C168.023 4.15385 166.154 6.02308 166.154 8.30769V18.6923C166.154 20.9769 168.023 22.8462 170.308 22.8462H180.692C182.977 22.8462 184.846 20.9769 184.846 18.6923V8.30769C184.846 6.02308 182.977 4.15385 180.692 4.15385Z" fill="#735EAB"/>
</g>
<path d="M247.154 18.6923C247.154 20.9769 249.023 22.8462 251.308 22.8462H261.692C263.977 22.8462 265.846 20.9769 265.846 18.6923V8.30769C265.846 6.02308 263.977 4.15385 261.692 4.15385H251.308C249.023 4.15385 247.154 6.02308 247.154 8.30769V18.6923Z" fill="#735EAB"/>
<path d="M116.308 22.3269C114.335 22.3269 112.673 20.6654 112.673 18.6923V8.3077C112.673 6.33462 114.335 4.67308 116.308 4.67308H126.692C128.665 4.67308 130.327 6.33462 130.327 8.3077L129.808 20.7692C129.808 22.7423 116.308 22.3269 116.308 22.3269Z" fill="#F1F2F4"/>
<path d="M126.692 5.19231C128.458 5.19231 129.808 6.54231 129.808 8.30769V18.6923C129.808 20.4577 128.458 21.8077 126.692 21.8077H116.308C114.542 21.8077 113.192 20.4577 113.192 18.6923V8.30769C113.192 6.54231 114.542 5.19231 116.308 5.19231H126.692ZM126.692 4.15385H116.308C114.023 4.15385 112.154 6.02308 112.154 8.30769V18.6923C112.154 20.9769 114.023 22.8462 116.308 22.8462H126.692C128.977 22.8462 130.846 20.9769 130.846 18.6923V8.30769C130.846 6.02308 128.977 4.15385 126.692 4.15385Z" fill="#D5D5D5"/>
<path d="M17.8615 8.82692L11.6308 15.0577L9.13846 12.5654L7.58076 14.1231L11.6308 18.1731L19.4192 10.3846L17.8615 8.82692Z" fill="white"/>
<path d="M44.8616 8.82692L38.6308 15.0577L36.1385 12.5654L34.5808 14.1231L38.6308 18.1731L46.4192 10.3846L44.8616 8.82692Z" fill="white"/>
<path d="M98.8615 8.82692L92.6308 15.0577L90.1385 12.5654L88.5808 14.1231L92.6308 18.1731L100.419 10.3846L98.8615 8.82692Z" fill="white"/>
<path d="M260.862 8.82692L254.631 15.0577L252.138 12.5654L250.581 14.1231L254.631 18.1731L262.419 10.3846L260.862 8.82692Z" fill="white"/>
<path d="M301.154 18.6923C301.154 20.9769 303.023 22.8462 305.308 22.8462H315.692C317.977 22.8462 319.846 20.9769 319.846 18.6923V8.30769C319.846 6.02308 317.977 4.15385 315.692 4.15385H305.308C303.023 4.15385 301.154 6.02308 301.154 8.30769V18.6923Z" fill="#735EAB"/>
<path d="M314.862 8.82692L308.631 15.0577L306.138 12.5654L304.581 14.1231L308.631 18.1731L316.419 10.3846L314.862 8.82692Z" fill="white"/>
<path opacity="0.25" d="M287.862 8.82692L281.631 15.0577L279.138 12.5654L277.581 14.1231L281.631 18.1731L289.419 10.3846L287.862 8.82692Z" fill="white"/>
</svg>
