<svg width="16" height="16" viewBox="0 0 16 16" fill="none" xmlns="http://www.w3.org/2000/svg">
<g clip-path="url(#clip0_685_268)">
<path d="M13.9986 7.4986H8.5015V2.0015C8.5015 1.725 8.2765 1.5 8 1.5C7.7235 1.5 7.4986 1.725 7.4986 2.0015V7.4986H2.0015C1.725 7.4986 1.5 7.7235 1.5 8C1.5 8.2765 1.725 8.5015 2.0015 8.5015H7.4986V13.9986C7.4986 14.2751 7.7235 14.5 8 14.5C8.2765 14.5 8.5015 14.2751 8.5015 13.9986V8.5015H13.9986C14.2751 8.5015 14.5 8.2765 14.5 8C14.5 7.7235 14.2751 7.4986 13.9986 7.4986Z" fill="white" stroke="#22005D"/>
</g>
<defs>
<clipPath id="clip0_685_268">
<rect width="16" height="16" fill="white"/>
</clipPath>
</defs>
</svg>
