<svg width="17" height="18" viewBox="0 0 17 18" fill="none" xmlns="http://www.w3.org/2000/svg">
<path d="M8.6529 10.4032C8.8373 10.4032 8.9873 10.2532 8.9873 10.0688V1.40325C8.9873 1.21885 8.8373 1.06885 8.6529 1.06885C8.4685 1.06885 8.3185 1.21885 8.3185 1.40325V10.0688C8.3185 10.2532 8.4685 10.4032 8.6529 10.4032Z" fill="#22005D" stroke="#22005D"/>
<path d="M11.5185 3.65625C11.3498 3.58445 11.1529 3.65945 11.081 3.82815C11.006 3.99695 11.0841 4.19375 11.2529 4.26565C13.5623 5.27505 15.0529 7.55315 15.0529 10.0687C15.0529 13.5594 12.2123 16.4031 8.71851 16.4031C5.22471 16.4031 2.38411 13.5594 2.38411 10.0687C2.38411 7.55315 3.8747 5.27505 6.1841 4.26565C6.3529 4.19375 6.43101 3.99695 6.35601 3.82815C6.28411 3.65945 6.08721 3.58445 5.91851 3.65625C3.36851 4.77195 1.71851 7.28755 1.71851 10.0687C1.71851 13.9281 4.85911 17.0687 8.71851 17.0687C12.5779 17.0687 15.7185 13.9281 15.7185 10.0687C15.7185 7.28755 14.0685 4.77195 11.5185 3.65625Z" fill="#22005D" stroke="#22005D"/>
</svg>
