<svg width="276" height="23" viewBox="0 0 276 23" fill="none" xmlns="http://www.w3.org/2000/svg">
<path d="M34 8C31.7882 8 30 9.78824 30 12C30 14.2118 31.7882 16 34 16C36.2118 16 38 14.2118 38 12C38 9.78824 36.2118 8 34 8Z" fill="#6750A4"/>
<path d="M26.5 12C26.5 7.85261 29.8526 4.5 34 4.5C38.1474 4.5 41.5 7.85261 41.5 12C41.5 16.1474 38.1474 19.5 34 19.5C29.8526 19.5 26.5 16.1474 26.5 12Z" stroke="#6750A4"/>
<path d="M80 8C77.7882 8 76 9.78824 76 12C76 14.2118 77.7882 16 80 16C82.2118 16 84 14.2118 84 12C84 9.78824 82.2118 8 80 8Z" fill="#6750A4"/>
<path d="M72.5 12C72.5 7.85261 75.8526 4.5 80 4.5C84.1474 4.5 87.5 7.85261 87.5 12C87.5 16.1474 84.1474 19.5 80 19.5C75.8526 19.5 72.5 16.1474 72.5 12Z" stroke="#6750A4"/>
<path d="M57 4C52.5765 4 49 7.57647 49 12C49 16.4235 52.5765 20 57 20C61.4235 20 65 16.4235 65 12C65 7.57647 61.4235 4 57 4Z" fill="#F7F6FA" fill-opacity="0.3"/>
<path d="M49.5 12C49.5 7.85261 52.8526 4.5 57 4.5C61.1474 4.5 64.5 7.85261 64.5 12C64.5 16.1474 61.1474 19.5 57 19.5C52.8526 19.5 49.5 16.1474 49.5 12Z" stroke="#6750A4" stroke-opacity="0.3"/>
<path d="M149 4C144.576 4 141 7.57647 141 12C141 16.4235 144.576 20 149 20C153.424 20 157 16.4235 157 12C157 7.57647 153.424 4 149 4Z" fill="#F7F6FA" fill-opacity="0.3"/>
<path d="M141.5 12C141.5 7.85261 144.853 4.5 149 4.5C153.147 4.5 156.5 7.85261 156.5 12C156.5 16.1474 153.147 19.5 149 19.5C144.853 19.5 141.5 16.1474 141.5 12Z" stroke="#6750A4" stroke-opacity="0.3"/>
<path d="M241 4C236.576 4 233 7.57647 233 12C233 16.4235 236.576 20 241 20C245.424 20 249 16.4235 249 12C249 7.57647 245.424 4 241 4Z" fill="#F7F6FA" fill-opacity="0.3"/>
<path d="M233.5 12C233.5 7.85261 236.853 4.5 241 4.5C245.147 4.5 248.5 7.85261 248.5 12C248.5 16.1474 245.147 19.5 241 19.5C236.853 19.5 233.5 16.1474 233.5 12Z" stroke="#6750A4" stroke-opacity="0.3"/>
<path d="M95.5 12C95.5 7.85261 98.8526 4.5 103 4.5C107.147 4.5 110.5 7.85261 110.5 12C110.5 16.1474 107.147 19.5 103 19.5C98.8526 19.5 95.5 16.1474 95.5 12Z" stroke="#6750A4"/>
<path d="M118.5 12C118.5 7.85261 121.853 4.5 126 4.5C130.147 4.5 133.5 7.85261 133.5 12C133.5 16.1474 130.147 19.5 126 19.5C121.853 19.5 118.5 16.1474 118.5 12Z" stroke="#6750A4"/>
<path d="M164.5 12C164.5 7.85261 167.853 4.5 172 4.5C176.147 4.5 179.5 7.85261 179.5 12C179.5 16.1474 176.147 19.5 172 19.5C167.853 19.5 164.5 16.1474 164.5 12Z" stroke="#6750A4"/>
<path d="M195 4C190.576 4 187 7.57647 187 12C187 16.4235 190.576 20 195 20C199.424 20 203 16.4235 203 12C203 7.57647 199.424 4 195 4Z" fill="#6750A4"/>
<path d="M218 4C213.576 4 210 7.57647 210 12C210 16.4235 213.576 20 218 20C222.424 20 226 16.4235 226 12C226 7.57647 222.424 4 218 4Z" fill="#6750A4"/>
<path d="M264 4C259.576 4 256 7.57647 256 12C256 16.4235 259.576 20 264 20C268.424 20 272 16.4235 272 12C272 7.57647 268.424 4 264 4Z" fill="#6750A4"/>
<path d="M11 8C8.78824 8 7 9.78824 7 12C7 14.2118 8.78824 16 11 16C13.2118 16 15 14.2118 15 12C15 9.78824 13.2118 8 11 8Z" fill="#6750A4"/>
<path d="M3.5 12C3.5 7.85261 6.85261 4.5 11 4.5C15.1474 4.5 18.5 7.85261 18.5 12C18.5 16.1474 15.1474 19.5 11 19.5C6.85261 19.5 3.5 16.1474 3.5 12Z" stroke="#6750A4"/>
</svg>
