<svg width="16" height="18" viewBox="0 0 16 18" fill="none" xmlns="http://www.w3.org/2000/svg">
<path d="M8.00161 16.6666L8.00161 2.13841L12.7687 6.89892C12.8306 6.96081 12.9146 6.99561 13.0021 6.99561C13.0897 6.99561 13.1737 6.96081 13.2356 6.89892C13.2975 6.83703 13.3321 6.7531 13.3321 6.66558C13.3321 6.57805 13.2975 6.49413 13.2356 6.43223L7.90167 1.09834C7.8735 1.06458 7.83649 1.03922 7.79489 1.02501C7.71372 0.991664 7.62277 0.991664 7.5416 1.02501C7.5 1.03922 7.46299 1.06458 7.43482 1.09834L2.10093 6.43223C2.06904 6.46216 2.04375 6.49831 2.02637 6.53845C2.009 6.57858 2 6.62184 2 6.66558C2 6.70931 2.009 6.75257 2.02637 6.79271C2.04375 6.83284 2.06904 6.86899 2.10093 6.89892C2.13086 6.93081 2.16708 6.95626 2.20722 6.97363C2.24736 6.99101 2.29061 6.99992 2.33435 6.99992C2.37809 6.99992 2.42134 6.99101 2.46148 6.97363C2.50161 6.95626 2.53784 6.93081 2.56777 6.89892L7.33488 2.13841L7.33488 16.6666C7.33488 16.755 7.37002 16.8398 7.43254 16.9023C7.49506 16.9649 7.57983 17 7.66825 17C7.75666 17 7.84143 16.9649 7.90395 16.9023C7.96647 16.8398 8.00161 16.755 8.00161 16.6666Z" fill="#131F0D" stroke="#735EAB"/>
</svg>
