<svg width="16" height="16" viewBox="0 0 16 16" fill="none" xmlns="http://www.w3.org/2000/svg">
<g clip-path="url(#clip0_716_271)">
<path d="M15.4585 2.28665V2.24669C15.3931 2.1555 15.3218 2.06864 15.2452 1.98668L13.7985 0.539952C13.48 0.237478 13.0576 0.0688324 12.6184 0.0688324C12.1792 0.0688324 11.7568 0.237478 11.4384 0.539952L1.39821 10.5802L5.20493 14.3869L15.2452 4.34667C15.3235 4.26615 15.3948 4.17924 15.4585 4.08674C15.4585 4.08674 15.4585 4.08674 15.4585 4.08674C15.6273 3.82174 15.7175 3.51421 15.7185 3.2C15.725 2.87641 15.6344 2.5583 15.4585 2.28665V2.28665ZM13.6184 2.61999L4.28491 11.9535C4.25498 11.9854 4.21883 12.0109 4.1787 12.0282C4.13857 12.0456 4.09532 12.0545 4.05158 12.0545C4.00785 12.0545 3.9646 12.0456 3.92446 12.0282C3.88433 12.0109 3.84819 11.9854 3.81826 11.9535C3.78637 11.9236 3.76093 11.8875 3.74355 11.8473C3.72618 11.8072 3.71723 11.7639 3.71723 11.7202C3.71723 11.6765 3.72618 11.6332 3.74355 11.5931C3.76093 11.553 3.78637 11.5168 3.81826 11.4869L13.1518 2.15335C13.1824 2.12271 13.2188 2.0984 13.2588 2.08181C13.2988 2.06523 13.3418 2.05667 13.3851 2.05667C13.4284 2.05667 13.4714 2.06523 13.5114 2.08181C13.5515 2.0984 13.5878 2.12271 13.6184 2.15335C13.6491 2.18399 13.6734 2.22033 13.69 2.26037C13.7066 2.3004 13.7151 2.34334 13.7151 2.38667C13.7151 2.43001 13.7066 2.47294 13.69 2.51298C13.6734 2.55301 13.6491 2.58935 13.6184 2.61999V2.61999Z" fill="#735EAB"/>
<path d="M1.01164 11.1535L-0.268374 15.6269C-0.285086 15.6841 -0.285848 15.7448 -0.270572 15.8024C-0.255296 15.86 -0.224561 15.9122 -0.181703 15.9536C-0.151938 15.9856 -0.115808 16.0111 -0.0756213 16.0283C-0.035435 16.0455 0.00790124 16.0542 0.0516194 16.0536H0.144964L4.61837 14.7736L1.01164 11.1535Z" fill="#735EAB"/>
</g>
<defs>
<clipPath id="clip0_716_271">
<rect width="16" height="16" fill="white"/>
</clipPath>
</defs>
</svg>
