<svg width="16" height="16" viewBox="0 0 16 16" fill="none" xmlns="http://www.w3.org/2000/svg">
<g clip-path="url(#clip0_751_277)">
<path d="M14.0518 4.40218H6.34517C6.13726 4.40498 5.93378 4.34203 5.76377 4.22231C5.59376 4.10259 5.46592 3.93221 5.39851 3.73551L5.33851 3.56218C5.23146 3.2267 5.02091 2.93376 4.73706 2.72536C4.4532 2.51697 4.11064 2.40383 3.75851 2.40218H1.38517C0.943145 2.40218 0.519221 2.57778 0.20666 2.89034C-0.105901 3.2029 -0.281494 3.62682 -0.281494 4.06885V12.0688C-0.281494 12.5109 -0.105901 12.9348 0.20666 13.2474C0.519221 13.5599 0.943145 13.7355 1.38517 13.7355H14.0518C14.4939 13.7355 14.9178 13.5599 15.2304 13.2474C15.5429 12.9348 15.7185 12.5109 15.7185 12.0688V6.06885C15.7185 5.62682 15.5429 5.2029 15.2304 4.89034C14.9178 4.57778 14.4939 4.40218 14.0518 4.40218Z" fill="#22005D"/>
<path d="M13.3852 1.06885H3.7585C3.6701 1.06885 3.58531 1.10397 3.5228 1.16648C3.46029 1.229 3.42517 1.31378 3.42517 1.40218C3.42517 1.49059 3.46029 1.57537 3.5228 1.63788C3.58531 1.70039 3.6701 1.73551 3.7585 1.73551C4.24792 1.73542 4.72498 1.88921 5.12218 2.17515C5.51938 2.46109 5.81662 2.8647 5.97184 3.32886L6.03184 3.50885C6.05485 3.57399 6.09716 3.63057 6.15314 3.67106C6.20911 3.71155 6.2761 3.73404 6.34517 3.73551H14.0518C14.2482 3.73773 14.4434 3.7669 14.6318 3.82218H14.7185C14.7929 3.82365 14.8657 3.80018 14.9252 3.75551C14.965 3.72344 14.997 3.68281 15.019 3.63664C15.0409 3.59047 15.0521 3.53996 15.0518 3.48885V2.73551C15.0518 2.29349 14.8762 1.86957 14.5637 1.55701C14.2511 1.24445 13.8272 1.06885 13.3852 1.06885Z" fill="#22005D"/>
</g>
<defs>
<clipPath id="clip0_751_277">
<rect width="16" height="16" fill="white"/>
</clipPath>
</defs>
</svg>
