<svg width="17" height="17" viewBox="0 0 17 17" fill="none" xmlns="http://www.w3.org/2000/svg">
<path d="M16.5788 7.94906L9.52934 0.89287C9.31211 0.68497 9.02303 0.568848 8.72235 0.568848C8.42167 0.568848 8.13259 0.68497 7.91536 0.89287L0.819209 7.99563C0.770907 8.04191 0.737972 8.10197 0.724852 8.16757C0.711733 8.23317 0.719061 8.30117 0.745846 8.36247C0.770863 8.42337 0.813345 8.47548 0.86794 8.51227C0.922535 8.54906 0.9868 8.56893 1.05263 8.56926H2.05303V16.2323C2.05303 16.3207 2.08816 16.4055 2.1507 16.4681C2.21324 16.5306 2.29806 16.5658 2.3865 16.5658H6.38809C6.47653 16.5658 6.56135 16.5306 6.62388 16.4681C6.68642 16.4055 6.72155 16.3207 6.72155 16.2323V10.5634H10.7231V16.2323C10.7231 16.3207 10.7583 16.4055 10.8208 16.4681C10.8834 16.5306 10.9682 16.5658 11.0566 16.5658H15.0582C15.1466 16.5658 15.2315 16.5306 15.294 16.4681C15.3565 16.4055 15.3917 16.3207 15.3917 16.2323V8.56258H16.3987C16.4431 8.56347 16.4872 8.5555 16.5284 8.53914C16.5696 8.52278 16.6072 8.49839 16.6389 8.46733C16.6705 8.43628 16.6957 8.39914 16.7129 8.35824C16.73 8.31734 16.7389 8.27348 16.7389 8.22912C16.7369 8.17295 16.7213 8.11818 16.6934 8.06939C16.6655 8.02059 16.6262 7.97929 16.5788 7.94906V7.94906Z" fill="#22005D"/>
</svg>
