<svg width="17" height="17" viewBox="0 0 17 17" fill="none" xmlns="http://www.w3.org/2000/svg">
<path d="M5.31497 7.38074C5.37045 7.3796 5.42473 7.36455 5.47284 7.33689C5.52094 7.30923 5.56133 7.26987 5.59022 7.22249C5.62388 7.17648 5.64532 7.12265 5.65254 7.0661C5.65976 7.00954 5.65253 6.95212 5.6315 6.89912C5.60251 6.83788 5.55671 6.78602 5.49946 6.74978C5.44221 6.71354 5.37584 6.69434 5.30808 6.69434C5.24033 6.69434 5.17396 6.71354 5.11671 6.74978C5.05946 6.78602 5.0137 6.83788 4.98471 6.89912V6.89912C4.96706 6.95191 4.96222 7.00804 4.9706 7.06307C4.97897 7.11811 5.00032 7.17045 5.03288 7.2156C5.06381 7.26318 5.1054 7.30285 5.15438 7.33152C5.20335 7.36018 5.25834 7.37706 5.31497 7.38074V7.38074Z" fill="#22005D"/>
<path d="M12.4778 14.117C12.5097 14.0728 12.5302 14.0214 12.5374 13.9673C12.5446 13.9133 12.5383 13.8584 12.5191 13.8074L8.04663 0.734006C8.02288 0.666772 7.97921 0.608316 7.92144 0.566523C7.86367 0.524729 7.79455 0.50152 7.72326 0.5H2.21867C1.76245 0.5 1.32492 0.681195 1.00232 1.00379C0.679723 1.32639 0.498486 1.76396 0.498486 2.22018V12.5413C0.498486 12.9975 0.679723 13.4351 1.00232 13.7577C1.32492 14.0803 1.76245 14.2615 2.21867 14.2615H12.1957C12.2507 14.2607 12.3047 14.2472 12.3536 14.2222C12.4026 14.1971 12.4451 14.1611 12.4778 14.117V14.117ZM3.25078 9.67208L4.97096 4.85556C4.99995 4.79432 5.04575 4.74246 5.103 4.70622C5.16025 4.66998 5.22658 4.65078 5.29434 4.65078C5.3621 4.65078 5.42847 4.66998 5.48572 4.70622C5.54297 4.74246 5.58876 4.79432 5.61776 4.85556L7.33794 9.67208C7.36601 9.75712 7.35979 9.84972 7.32064 9.93027C7.28148 10.0108 7.21247 10.0728 7.12825 10.1033C7.04403 10.1338 6.95126 10.1302 6.86963 10.0934C6.78801 10.0565 6.72398 9.98924 6.69115 9.90591L6.11315 8.29593C6.08999 8.22887 6.04627 8.17073 5.98821 8.12996C5.93014 8.08919 5.86071 8.06782 5.78977 8.06881H4.79895C4.72801 8.06782 4.65858 8.08919 4.60051 8.12996C4.54245 8.17073 4.49873 8.22887 4.47557 8.29593L3.89757 9.90591C3.88315 9.94959 3.86011 9.99005 3.82983 10.0247C3.79955 10.0593 3.76264 10.0874 3.72127 10.1075C3.6799 10.1276 3.63491 10.1393 3.58898 10.1418C3.54304 10.1442 3.49709 10.1373 3.45383 10.1216C3.41058 10.106 3.37092 10.0818 3.33717 10.0505C3.30341 10.0193 3.27626 9.9816 3.25733 9.93968C3.2384 9.89776 3.22805 9.85245 3.22693 9.80646C3.2258 9.76048 3.23392 9.71487 3.25078 9.67208V9.67208Z" fill="#22005D"/>
<path d="M11.721 9.19029C11.767 9.22035 11.8029 9.2636 11.8242 9.31426C11.9445 9.56433 12.0997 9.79601 12.2852 10.0023C12.3169 10.0433 12.3576 10.0763 12.4041 10.0989C12.4507 10.1216 12.5018 10.1333 12.5536 10.133C12.6061 10.1297 12.6572 10.1151 12.7035 10.0902C12.7499 10.0653 12.7902 10.0306 12.8219 9.98856C13.1451 9.53957 13.4239 9.0602 13.6545 8.55732C13.6816 8.50649 13.6958 8.44978 13.6958 8.39218C13.6958 8.33459 13.6816 8.27788 13.6545 8.22705C13.6234 8.1786 13.5807 8.13879 13.5302 8.11114C13.4797 8.08349 13.4231 8.06891 13.3655 8.06881H11.7898C11.7347 8.06907 11.6805 8.08235 11.6315 8.10745C11.5825 8.13255 11.5401 8.16875 11.5077 8.21328C11.4767 8.25785 11.4563 8.30897 11.4479 8.36262C11.4396 8.41626 11.4435 8.471 11.4595 8.52288L11.6384 9.03205C11.6518 9.09103 11.6803 9.14554 11.721 9.19029V9.19029Z" fill="#22005D"/>
<path d="M15.292 3.25229H10.1315C10.0771 3.2527 10.0235 3.26599 9.97527 3.2911C9.92699 3.31621 9.88538 3.35244 9.85381 3.39676C9.82225 3.44109 9.80162 3.49227 9.79367 3.5461C9.78573 3.59993 9.7907 3.65481 9.80812 3.70636L10.9847 7.14673C11.0084 7.21396 11.0521 7.27242 11.1099 7.31421C11.1677 7.35601 11.2368 7.37922 11.3081 7.38074H11.8655C11.9567 7.38074 12.0442 7.34446 12.1087 7.27994C12.1732 7.21542 12.2095 7.12794 12.2095 7.0367C12.2095 6.94546 12.2457 6.85797 12.3102 6.79345C12.3748 6.72894 12.4623 6.69266 12.5535 6.69266C12.6448 6.69266 12.7323 6.72894 12.7968 6.79345C12.8613 6.85797 12.8976 6.94546 12.8976 7.0367C12.8976 7.12794 12.9338 7.21542 12.9983 7.27994C13.0628 7.34446 13.1504 7.38074 13.2416 7.38074H15.3058C15.3971 7.38074 15.4845 7.41701 15.5491 7.48153C15.6136 7.54605 15.6499 7.63353 15.6499 7.72477C15.6499 7.81602 15.6136 7.9035 15.5491 7.96802C15.4845 8.03254 15.3971 8.06881 15.3058 8.06881H14.831C14.7575 8.06836 14.6857 8.09149 14.6263 8.13483C14.5668 8.17817 14.5228 8.23952 14.5007 8.3097C14.2078 9.1457 13.7776 9.92694 13.2278 10.6215C13.1745 10.6839 13.1452 10.7631 13.1452 10.8451C13.1452 10.9271 13.1745 11.0066 13.2278 11.0689C13.6338 11.4817 14.0879 11.9288 14.4801 12.2866C14.5135 12.3175 14.5403 12.3548 14.5592 12.3961C14.5781 12.4375 14.5887 12.4821 14.5902 12.5275C14.5927 12.5727 14.586 12.618 14.5707 12.6606C14.5553 12.7031 14.5315 12.7421 14.5007 12.7753C14.4345 12.8372 14.3472 12.8716 14.2565 12.8716C14.1658 12.8716 14.0785 12.8372 14.0122 12.7753C13.9021 12.6721 13.6613 12.4518 13.3654 12.1628C13.3113 12.1081 13.2397 12.0741 13.163 12.0666C13.0864 12.059 13.0095 12.0784 12.9457 12.1215C12.8796 12.1614 12.8291 12.2229 12.8028 12.2955C12.7765 12.3682 12.7759 12.4476 12.8012 12.5206L13.159 13.5596C13.2142 13.7156 13.231 13.8826 13.2081 14.0464C13.1852 14.2103 13.1233 14.3663 13.0275 14.5012C12.9317 14.6361 12.8049 14.7461 12.6578 14.8217C12.5106 14.8973 12.3474 14.9364 12.1819 14.9358H9.25763C9.20174 14.9356 9.14669 14.9495 9.09745 14.9759C9.04821 15.0023 9.00633 15.0405 8.97553 15.0871C8.94359 15.1326 8.92313 15.1852 8.91594 15.2403C8.90875 15.2955 8.91505 15.3514 8.93425 15.4036L9.45031 16.7798C9.47547 16.845 9.51987 16.901 9.57764 16.9404C9.63541 16.9797 9.70379 17.0005 9.77368 17H15.2783C15.7345 17 16.172 16.8188 16.4946 16.4962C16.8172 16.1736 16.9985 15.736 16.9985 15.2798V4.9587C16.9949 4.50724 16.8139 4.07533 16.4947 3.75609C16.1755 3.43685 15.7435 3.25589 15.292 3.25229Z" fill="#22005D"/>
</svg>
