<svg width="16" height="16" viewBox="0 0 16 16" fill="none" xmlns="http://www.w3.org/2000/svg">
<g clip-path="url(#clip0_717_276)">
<path d="M12.8478 3.15226C12.6511 2.95552 12.3372 2.95552 12.1405 3.15226L8 7.29374L3.85482 3.14756C3.65812 2.95081 3.34432 2.95081 3.14752 3.14756C2.95083 3.34441 2.95083 3.65828 3.14752 3.85503L7.2927 8.00121L3.14752 12.1474C2.95083 12.3441 2.95083 12.658 3.14752 12.8548C3.24592 12.9532 3.37242 13 3.50352 13C3.63472 13 3.76112 12.9532 3.85482 12.8548L8 8.70858L12.1452 12.8548C12.2436 12.9532 12.37 13 12.5012 13C12.6323 13 12.7588 12.9532 12.8525 12.8548C13.0492 12.658 13.0492 12.3441 12.8525 12.1474L8.7073 8.00121L12.8525 3.85503C13.0445 3.66298 13.0445 3.34441 12.8478 3.15226Z" fill="#735EAB" stroke="#735EAB"/>
</g>
<defs>
<clipPath id="clip0_717_276">
<rect width="16" height="16" fill="white"/>
</clipPath>
</defs>
</svg>
