<svg width="16" height="16" viewBox="0 0 16 16" fill="none" xmlns="http://www.w3.org/2000/svg">
<g clip-path="url(#clip0_717_292)">
<path d="M13 13.334H3.00003C2.81594 13.334 2.6667 13.4832 2.6667 13.6673V15.6673C2.6667 15.8514 2.81594 16.0007 3.00003 16.0007H13C13.1841 16.0007 13.3334 15.8514 13.3334 15.6673V13.6673C13.3334 13.4832 13.1841 13.334 13 13.334Z" fill="#735EAB"/>
<path d="M14.3333 4.66732C14.2449 4.66732 14.1601 4.70246 14.0976 4.76497C14.0351 4.82749 14 4.91225 14 5.00065V7.00065C14 7.26587 13.8946 7.52015 13.7071 7.70768C13.5196 7.89522 13.2652 8.00065 13 8.00065H3C2.73478 8.00065 2.48042 7.89522 2.29289 7.70768C2.10535 7.52015 2 7.26587 2 7.00065V5.00065C2 4.91225 1.9649 4.82749 1.90238 4.76497C1.83987 4.70246 1.75507 4.66732 1.66667 4.66732C1.22464 4.66732 0.80072 4.84288 0.488159 5.15544C0.175599 5.468 0 5.89196 0 6.33399V11.0007C0 11.4427 0.175599 11.8666 0.488159 12.1792C0.80072 12.4918 1.22464 12.6673 1.66667 12.6673H14.3333C14.7754 12.6673 15.1993 12.4918 15.5118 12.1792C15.8244 11.8666 16 11.4427 16 11.0007V6.33399C16 5.89196 15.8244 5.468 15.5118 5.15544C15.1993 4.84288 14.7754 4.66732 14.3333 4.66732ZM15 6.66732C14.9341 6.66732 14.8696 6.64779 14.8148 6.61117C14.76 6.57454 14.7173 6.5225 14.6921 6.46159C14.6668 6.40068 14.6602 6.33354 14.6731 6.26888C14.6859 6.20422 14.7177 6.14493 14.7643 6.09831C14.8109 6.05169 14.8703 6.01986 14.935 6.007C14.9996 5.99414 15.0667 6.00081 15.1276 6.02604C15.1885 6.05127 15.2405 6.09395 15.2771 6.14876C15.3138 6.20358 15.3333 6.26806 15.3333 6.33399C15.3333 6.42239 15.2982 6.50715 15.2357 6.56966C15.1732 6.63217 15.0884 6.66732 15 6.66732Z" fill="#735EAB"/>
<path d="M13 0.000633272H5.62662H5.57995C5.52484 0.0138423 5.47425 0.041528 5.4333 0.0807114L2.76664 2.74738C2.72745 2.78832 2.69985 2.83891 2.68664 2.89403C2.68579 2.90957 2.68579 2.92503 2.68664 2.94057C2.68664 2.94057 2.68664 2.94061 2.68664 2.98061V6.98061C2.68664 7.06902 2.72174 7.15378 2.78425 7.21629C2.84677 7.2788 2.93157 7.31395 3.01997 7.31395H13.02C13.1084 7.31395 13.1931 7.2788 13.2556 7.21629C13.3182 7.15378 13.3533 7.06902 13.3533 6.98061V0.313947C13.3508 0.270146 13.3396 0.227282 13.3204 0.187808C13.3013 0.148334 13.2745 0.113077 13.2417 0.0839666C13.2089 0.0548562 13.1706 0.0325064 13.1291 0.0182114C13.0876 0.0039164 13.0437 -0.00207333 13 0.000633272V0.000633272ZM5.33329 1.14061V2.6673H3.80663L5.33329 1.14061Z" fill="#735EAB"/>
</g>
<defs>
<clipPath id="clip0_717_292">
<rect width="16" height="16" fill="white"/>
</clipPath>
</defs>
</svg>
