<svg width="18" height="16" viewBox="0 0 18 16" fill="none" xmlns="http://www.w3.org/2000/svg">
<path d="M1.33337 8.00161L15.8616 8.00161L11.1011 12.7687C11.0392 12.8306 11.0044 12.9146 11.0044 13.0021C11.0044 13.0897 11.0392 13.1737 11.1011 13.2356C11.163 13.2975 11.2469 13.3321 11.3344 13.3321C11.4219 13.3321 11.5059 13.2975 11.5678 13.2356L16.9017 7.90167C16.9354 7.8735 16.9608 7.83649 16.975 7.79489C17.0083 7.71372 17.0083 7.62277 16.975 7.5416C16.9608 7.5 16.9354 7.46299 16.9017 7.43482L11.5678 2.10093C11.5378 2.06904 11.5017 2.04375 11.4616 2.02637C11.4214 2.009 11.3782 2 11.3344 2C11.2907 2 11.2474 2.009 11.2073 2.02637C11.1672 2.04375 11.131 2.06904 11.1011 2.10093C11.0692 2.13086 11.0437 2.16708 11.0264 2.20722C11.009 2.24736 11.0001 2.29061 11.0001 2.33435C11.0001 2.37809 11.009 2.42134 11.0264 2.46148C11.0437 2.50161 11.0692 2.53784 11.1011 2.56777L15.8616 7.33488L1.33337 7.33488C1.24495 7.33488 1.16019 7.37002 1.09767 7.43254C1.03515 7.49506 1 7.57983 1 7.66825C1 7.75666 1.03515 7.84143 1.09767 7.90395C1.16019 7.96647 1.24495 8.00161 1.33337 8.00161Z" fill="#131F0D" stroke="#735EAB"/>
</svg>
