<svg width="80" height="96" viewBox="0 0 80 96" fill="none" xmlns="http://www.w3.org/2000/svg">
<g clip-path="url(#clip0_773_360)">
<path d="M15.8 62.6L11.9 58.6C12 58.5 12.1 58.3 12.2 58.2C12.9 57.2 13.3 55.9 13.3 54.6C13.3 51 10.4 48 6.8 48C5.2 48 3.8 48.5 2.7 49.5C2.6 49.5 2.6 49.6 2.5 49.7C0.9 50.8 0 52.5 0 54.5C0 54.5 0 54.5 0 54.6C0 54.6 0 54.6 0 54.7C0 58.3 3 61.3 6.6 61.3C8.1 61.3 9.5 60.8 10.6 59.9L14.5 63.8C14.7 64 14.9 64.1 15.1 64.1C15.3 64.1 15.5 64 15.7 63.9C16.1 63.4 16.1 62.9 15.8 62.6ZM6.6 59.7C3.8 59.7 1.5 57.4 1.5 54.6C1.5 51.8 3.8 49.5 6.6 49.5C9.4 49.5 11.7 51.8 11.7 54.6C11.7 57.4 9.4 59.7 6.6 59.7Z" fill="black"/>
<path opacity="0.75" d="M15.8 20L15 19.2C14.9 19.1 14.8 19 14.6 19C14.5 19 14.3 19.1 14.2 19.2L8 25.9L1.7 19.1C1.6 19.1 1.5 19 1.3 19C1.1 19 1.1 19.1 1 19.2L0.2 20C0.1 20.1 0 20.3 0 20.4C0 20.5 0.1 20.7 0.2 20.8L7.7 28.8C7.7 28.9 7.9 29 8 29C8.1 29 8.3 28.9 8.4 28.8L15.9 20.8C16 20.7 16.1 20.6 16.1 20.4C16 20.3 15.9 20.1 15.8 20Z" fill="black"/>
<path opacity="0.75" d="M10 8.15C9.8 7.95 9.5 7.95 9.3 8.15L6.7 10.65L4.1 8.15C3.9 7.95 3.6 7.95 3.4 8.15L3.1 8.45C3 8.55 3 8.65 3 8.85C3 8.95 3.1 9.05 3.1 9.15L6.4 12.35C6.5 12.45 6.6 12.45 6.7 12.45C6.8 12.45 6.9 12.45 7 12.35L10.3 9.15C10.4 9.05 10.4 8.95 10.4 8.85C10.4 8.75 10.3 8.65 10.3 8.55L10 8.15Z" fill="black"/>
<path opacity="0.75" d="M3.4 6.35C3.5 6.45 3.7 6.55 3.8 6.55C3.9 6.55 4 6.55 4.1 6.45L6.7 3.85L9.3 6.35C9.5 6.55 9.8 6.55 10 6.35L10.3 6.05C10.4 5.95 10.4 5.85 10.4 5.75C10.4 5.65 10.3 5.55 10.3 5.45L7 2.15C6.8 1.95 6.5 1.95 6.3 2.15L3.1 5.35C3 5.45 3 5.55 3 5.65C3 5.75 3.1 5.85 3.1 5.95L3.4 6.35Z" fill="black"/>
<path opacity="0.75" d="M16 68.5C16 68.8 15.8 69 15.5 69H0.5C0.2 69 0 68.8 0 68.5V67.5C0 67.2 0.2 67 0.5 67H15.5C15.8 67 16 67.2 16 67.5V68.5Z" fill="black"/>
<path opacity="0.75" d="M16 72.5C16 72.8 15.9 73 15.7 73H0.3C0.1 73 0 72.8 0 72.5V71.5C0 71.2 0.1 71 0.3 71H15.7C15.9 71 16 71.2 16 71.5V72.5Z" fill="black"/>
<path opacity="0.75" d="M16 76.5C16 76.8 15.9 77 15.8 77H0.2C0.1 77 0 76.8 0 76.5V75.5C0 75.2 0.1 75 0.2 75H15.8C15.9 75 16 75.2 16 75.5V76.5Z" fill="black"/>
<path d="M31.8 62.6L27.9 58.6C28 58.5 28.1 58.3 28.2 58.2C28.9 57.2 29.3 55.9 29.3 54.6C29.3 51 26.4 48 22.8 48C21.2 48 19.8 48.5 18.7 49.5C18.6 49.5 18.6 49.6 18.5 49.7C17.1 50.9 16.2 52.6 16.2 54.5C16.2 54.5 16.2 54.5 16.2 54.6C16.2 54.6 16.2 54.6 16.2 54.7C16.2 58.3 19.2 61.3 22.8 61.3C24.3 61.3 25.7 60.8 26.8 59.9L30.7 63.8C30.9 64 31.1 64.1 31.3 64.1C31.5 64.1 31.7 64 31.9 63.9C32.1 63.4 32.1 62.9 31.8 62.6ZM22.6 59.7C19.8 59.7 17.5 57.4 17.5 54.6C17.5 51.8 19.8 49.5 22.6 49.5C25.4 49.5 27.7 51.8 27.7 54.6C27.7 57.4 25.4 59.7 22.6 59.7Z" fill="black"/>
<path d="M31.8 20L31 19.2C30.9 19.1 30.8 19 30.6 19C30.4 19 30.3 19.1 30.2 19.2L24 25.9L17.7 19.1C17.6 19 17.5 18.9 17.3 18.9C17.2 18.9 17 19 16.9 19.1L16.2 20C16.1 20.1 16 20.2 16 20.4C16 20.6 16.1 20.7 16.2 20.8L23.7 28.8C23.8 28.9 23.9 29 24.1 29C24.3 29 24.4 28.9 24.5 28.8L32 20.8C32.1 20.7 32.2 20.6 32.2 20.4C32 20.3 31.9 20.1 31.8 20Z" fill="black"/>
<path d="M27.3 8.9C27.1 8.7 26.8 8.7 26.6 8.9L24 11.4L21.4 8.9C21.2 8.7 20.9 8.7 20.7 8.9L20.4 9.2C20.3 9.3 20.3 9.4 20.3 9.5C20.3 9.6 20.4 9.7 20.4 9.8L23.7 13C23.8 13.1 23.9 13.1 24 13.1C24.1 13.1 24.2 13.1 24.3 13L27.6 9.8C27.7 9.7 27.7 9.6 27.7 9.5C27.7 9.4 27.6 9.3 27.6 9.2L27.3 8.9Z" fill="black"/>
<path d="M20.7 7.10001C20.8 7.20001 20.9 7.20001 21 7.20001C21.1 7.20001 21.2 7.20001 21.3 7.10001L24 4.60001L26.6 7.10001C26.8 7.30001 27.1 7.30001 27.3 7.10001L27.7 6.80001C27.8 6.70001 27.8 6.60001 27.8 6.50001C27.8 6.40001 27.7 6.30001 27.7 6.20001L24.4 3.00001C24.2 2.80001 23.9 2.80001 23.7 3.00001L20.4 6.20001C20.3 6.30001 20.3 6.40001 20.3 6.50001C20.3 6.60001 20.3 6.70001 20.4 6.80001L20.7 7.10001Z" fill="black"/>
<path d="M32 68.5C32 68.8 31.8 69 31.5 69H16.5C16.2 69 16 68.8 16 68.5V67.5C16 67.2 16.2 67 16.5 67H31.5C31.8 67 32 67.2 32 67.5V68.5Z" fill="black"/>
<path d="M32 72.5C32 72.8 31.9 73 31.7 73H16.3C16.1 73 16 72.8 16 72.5V71.5C16 71.2 16.1 71 16.3 71H31.7C31.9 71 32 71.2 32 71.5V72.5Z" fill="black"/>
<path d="M32 76.5C32 76.8 31.9 77 31.8 77H16.2C16.1 77 16 76.8 16 76.5V75.5C16 75.2 16.1 75 16.2 75H31.8C31.9 75 32 75.2 32 75.5V76.5Z" fill="black"/>
<path d="M47.8 62.6L43.9 58.6C44 58.5 44.1 58.3 44.2 58.2C44.9 57.2 45.3 55.9 45.3 54.6C45.3 51 42.4 48 38.8 48C37.2 48 35.8 48.5 34.7 49.5C34.6 49.5 34.6 49.6 34.5 49.7C33.1 50.9 32.2 52.6 32.2 54.5C32.2 54.5 32.2 54.5 32.2 54.6C32.2 54.6 32.2 54.6 32.2 54.7C32.2 58.3 35.2 61.3 38.8 61.3C40.3 61.3 41.7 60.8 42.8 59.9L46.7 63.8C46.9 64 47.1 64.1 47.3 64.1C47.5 64.1 47.7 64 47.9 63.9C48.1 63.4 48.1 62.9 47.8 62.6ZM38.6 59.7C35.8 59.7 33.5 57.4 33.5 54.6C33.5 51.8 35.8 49.5 38.6 49.5C41.4 49.5 43.7 51.8 43.7 54.6C43.7 57.4 41.4 59.7 38.6 59.7Z" fill="black"/>
<path d="M47.8 20L47 19.2C46.9 19.1 46.8 19 46.6 19C46.4 19 46.3 19.1 46.2 19.2L40 25.9L33.7 19.1C33.6 19 33.5 18.9 33.3 18.9C33.2 18.9 33 19 32.9 19.1L32.2 20C32.1 20.1 32 20.2 32 20.4C32 20.6 32.1 20.7 32.2 20.8L39.7 28.8C39.8 28.9 39.9 29 40.1 29C40.3 29 40.4 28.9 40.5 28.8L48 20.8C48.1 20.7 48.2 20.6 48.2 20.4C48 20.3 47.9 20.1 47.8 20Z" fill="black"/>
<path d="M43.3 8.9C43.1 8.7 42.8 8.7 42.6 8.9L40 11.4L37.4 8.9C37.2 8.7 36.9 8.7 36.7 8.9L36.4 9.2C36.3 9.3 36.3 9.4 36.3 9.5C36.3 9.6 36.4 9.7 36.4 9.8L39.7 13C39.8 13.1 39.9 13.1 40 13.1C40.1 13.1 40.2 13.1 40.3 13L43.6 9.8C43.7 9.7 43.7 9.6 43.7 9.5C43.7 9.4 43.6 9.3 43.6 9.2L43.3 8.9Z" fill="black"/>
<path d="M36.7 7.10001C36.8 7.20001 36.9 7.20001 37 7.20001C37.1 7.20001 37.2 7.20001 37.3 7.10001L40 4.60001L42.6 7.10001C42.8 7.30001 43.1 7.30001 43.3 7.10001L43.6 6.80001C43.7 6.70001 43.7 6.60001 43.7 6.50001C43.7 6.40001 43.6 6.30001 43.6 6.20001L40.3 3.00001C40.1 2.80001 39.8 2.80001 39.6 3.00001L36.3 6.20001C36.2 6.30001 36.2 6.40001 36.2 6.50001C36.2 6.60001 36.3 6.70001 36.3 6.80001L36.7 7.10001Z" fill="black"/>
<path d="M48 68.5C48 68.8 47.8 69 47.5 69H32.5C32.2 69 32 68.8 32 68.5V67.5C32 67.2 32.2 67 32.5 67H47.5C47.8 67 48 67.2 48 67.5V68.5Z" fill="black"/>
<path d="M48 72.5C48 72.8 47.9 73 47.7 73H32.3C32.1 73 32 72.8 32 72.5V71.5C32 71.2 32.1 71 32.3 71H47.7C47.9 71 48 71.2 48 71.5V72.5Z" fill="black"/>
<path d="M48 76.5C48 76.8 47.9 77 47.8 77H32.2C32.1 77 32 76.8 32 76.5V75.5C32 75.2 32.1 75 32.2 75H47.8C47.9 75 48 75.2 48 75.5V76.5Z" fill="black"/>
<path opacity="0.75" d="M16 84.5C16 84.8 15.8 85 15.5 85H0.5C0.2 85 0 84.8 0 84.5V83.5C0 83.2 0.2 83 0.5 83H15.5C15.8 83 16 83.2 16 83.5V84.5Z" fill="black"/>
<path opacity="0.75" d="M13 88.5C13 88.8 12.9 89 12.7 89H3.3C3.1 89 3 88.8 3 88.5V87.5C3 87.2 3.1 87 3.3 87H12.7C12.9 87 13 87.2 13 87.5V88.5Z" fill="black"/>
<path opacity="0.75" d="M11 92.5C11 92.8 10.9 93 10.8 93H5.2C5.1 93 5 92.8 5 92.5V91.5C5 91.2 5.1 91 5.2 91H10.8C10.9 91 11 91.2 11 91.5V92.5Z" fill="black"/>
<path d="M32 84.5C32 84.8 31.8 85 31.5 85H16.5C16.2 85 16 84.8 16 84.5V83.5C16 83.2 16.2 83 16.5 83H31.5C31.8 83 32 83.2 32 83.5V84.5Z" fill="black"/>
<path d="M29 88.5C29 88.8 28.9 89 28.7 89H19.3C19.1 89 19 88.8 19 88.5V87.5C19 87.2 19.1 87 19.3 87H28.7C28.9 87 29 87.2 29 87.5V88.5Z" fill="black"/>
<path d="M27 92.5C27 92.8 26.9 93 26.8 93H21.2C21.1 93 21 92.8 21 92.5V91.5C21 91.2 21.1 91 21.2 91H26.8C26.9 91 27 91.2 27 91.5V92.5Z" fill="black"/>
<path d="M48 84.5C48 84.8 47.8 85 47.5 85H32.5C32.2 85 32 84.8 32 84.5V83.5C32 83.2 32.2 83 32.5 83H47.5C47.8 83 48 83.2 48 83.5V84.5Z" fill="black"/>
<path d="M45 88.5C45 88.8 44.9 89 44.7 89H35.3C35.1 89 35 88.8 35 88.5V87.5C35 87.2 35.1 87 35.3 87H44.7C44.9 87 45 87.2 45 87.5V88.5Z" fill="black"/>
<path d="M43 92.5C43 92.8 42.9 93 42.8 93H37.2C37.1 93 37 92.8 37 92.5V91.5C37 91.2 37.1 91 37.2 91H42.8C42.9 91 43 91.2 43 91.5V92.5Z" fill="black"/>
<path d="M63.8 62.6L59.9 58.6C60 58.5 60.1 58.3 60.2 58.2C60.9 57.2 61.3 55.9 61.3 54.6C61.3 51 58.4 48 54.8 48C53.2 48 51.8 48.5 50.7 49.5C50.6 49.5 50.6 49.6 50.5 49.7C49.1 50.9 48.2 52.6 48.2 54.5C48.2 54.5 48.2 54.5 48.2 54.6C48.2 54.6 48.2 54.6 48.2 54.7C48.2 58.3 51.2 61.3 54.8 61.3C56.3 61.3 57.7 60.8 58.8 59.9L62.7 63.8C62.9 64 63.1 64.1 63.3 64.1C63.5 64.1 63.7 64 63.9 63.9C64.1 63.4 64.1 62.9 63.8 62.6ZM54.6 59.7C51.8 59.7 49.5 57.4 49.5 54.6C49.5 51.8 51.8 49.5 54.6 49.5C57.4 49.5 59.7 51.8 59.7 54.6C59.7 57.4 57.4 59.7 54.6 59.7Z" fill="black"/>
<path d="M63.8 20L63 19.2C62.9 19.1 62.8 19 62.6 19C62.4 19 62.3 19.1 62.2 19.2L56 25.9L49.7 19.1C49.6 19 49.5 18.9 49.3 18.9C49.2 18.9 49 19 48.9 19.1L48.2 20C48.1 20.1 48 20.2 48 20.4C48 20.6 48.1 20.7 48.2 20.8L55.7 28.8C55.8 28.9 55.9 29 56.1 29C56.3 29 56.4 28.9 56.5 28.8L64 20.8C64.1 20.7 64.2 20.6 64.2 20.4C64 20.3 63.9 20.1 63.8 20Z" fill="black"/>
<path d="M59.3 8.9C59.1 8.7 58.8 8.7 58.6 8.9L56 11.4L53.4 8.9C53.2 8.7 52.9 8.7 52.7 8.9L52.4 9.2C52.3 9.3 52.3 9.4 52.3 9.5C52.3 9.6 52.4 9.7 52.4 9.8L55.7 13C55.8 13.1 55.9 13.1 56 13.1C56.1 13.1 56.2 13.1 56.3 13L59.6 9.8C59.7 9.7 59.7 9.6 59.7 9.5C59.7 9.4 59.6 9.3 59.6 9.2L59.3 8.9Z" fill="black"/>
<path d="M52.7 7.10001C52.8 7.20001 52.9 7.20001 53 7.20001C53.1 7.20001 53.2 7.20001 53.3 7.10001L56 4.60001L58.6 7.10001C58.8 7.30001 59.1 7.30001 59.3 7.10001L59.6 6.80001C59.7 6.70001 59.7 6.60001 59.7 6.50001C59.7 6.40001 59.6 6.30001 59.6 6.20001L56.3 3.00001C56.1 2.80001 55.8 2.80001 55.6 3.00001L52.3 6.20001C52.2 6.30001 52.2 6.40001 52.2 6.50001C52.2 6.60001 52.3 6.70001 52.3 6.80001L52.7 7.10001Z" fill="black"/>
<path d="M64 68.5C64 68.8 63.8 69 63.5 69H48.5C48.2 69 48 68.8 48 68.5V67.5C48 67.2 48.2 67 48.5 67H63.5C63.8 67 64 67.2 64 67.5V68.5Z" fill="black"/>
<path d="M64 72.5C64 72.8 63.9 73 63.7 73H48.3C48.1 73 48 72.8 48 72.5V71.5C48 71.2 48.1 71 48.3 71H63.7C63.9 71 64 71.2 64 71.5V72.5Z" fill="black"/>
<path d="M64 76.5C64 76.8 63.9 77 63.8 77H48.2C48.1 77 48 76.8 48 76.5V75.5C48 75.2 48.1 75 48.2 75H63.8C63.9 75 64 75.2 64 75.5V76.5Z" fill="black"/>
<path d="M64 84.5C64 84.8 63.8 85 63.5 85H48.5C48.2 85 48 84.8 48 84.5V83.5C48 83.2 48.2 83 48.5 83H63.5C63.8 83 64 83.2 64 83.5V84.5Z" fill="black"/>
<path d="M61 88.5C61 88.8 60.9 89 60.7 89H51.3C51.1 89 51 88.8 51 88.5V87.5C51 87.2 51.1 87 51.3 87H60.7C60.9 87 61 87.2 61 87.5V88.5Z" fill="black"/>
<path d="M59 92.5C59 92.8 58.9 93 58.8 93H53.2C53.1 93 53 92.8 53 92.5V91.5C53 91.2 53.1 91 53.2 91H58.8C58.9 91 59 91.2 59 91.5V92.5Z" fill="black"/>
<path d="M79.8 62.6L75.9 58.6C76 58.5 76.1 58.3 76.2 58.2C76.9 57.2 77.3 55.9 77.3 54.6C77.3 51 74.4 48 70.8 48C69.2 48 67.8 48.5 66.7 49.5C66.6 49.5 66.6 49.6 66.5 49.7C65.1 50.9 64.2 52.6 64.2 54.5C64.2 54.5 64.2 54.5 64.2 54.6C64.2 54.6 64.2 54.6 64.2 54.7C64.2 58.3 67.2 61.3 70.8 61.3C72.3 61.3 73.7 60.8 74.8 59.9L78.7 63.8C78.9 64 79.1 64.1 79.3 64.1C79.5 64.1 79.7 64 79.9 63.9C80.1 63.4 80.1 62.9 79.8 62.6ZM70.6 59.7C67.8 59.7 65.5 57.4 65.5 54.6C65.5 51.8 67.8 49.5 70.6 49.5C73.4 49.5 75.7 51.8 75.7 54.6C75.7 57.4 73.4 59.7 70.6 59.7Z" fill="black"/>
<path d="M79.8 20L79 19.2C78.9 19.1 78.8 19 78.6 19C78.4 19 78.3 19.1 78.2 19.2L72 25.9L65.7 19.1C65.6 19 65.5 18.9 65.3 18.9C65.2 18.9 65 19 64.9 19.1L64.2 20C64.1 20.1 64 20.2 64 20.4C64 20.6 64.1 20.7 64.2 20.8L71.7 28.8C71.8 28.9 71.9 29 72.1 29C72.3 29 72.4 28.9 72.5 28.8L80 20.8C80.1 20.7 80.2 20.6 80.2 20.4C80 20.3 79.9 20.1 79.8 20Z" fill="black"/>
<path opacity="0.75" d="M0.2 44L1 44.8C1.1 44.9 1.2 45 1.3 45C1.4 45 1.6 44.9 1.7 44.8L8 38.1L14.3 44.9C14.4 45 14.5 45.1 14.7 45.1C14.9 45.1 15 45 15.1 44.9L15.9 44C16 43.9 16.1 43.8 16.1 43.6C16.1 43.5 16 43.3 15.9 43.2L8.4 35.2C8.3 35.1 8.1 35 8 35C7.9 35 7.7 35.1 7.6 35.2L0.1 43.2C0.1 43.3 0 43.4 0 43.6C0 43.7 0.1 43.9 0.2 44Z" fill="black"/>
<path d="M64.2 44L65 44.9C65.1 45 65.2 45.1 65.4 45.1C65.5 45.1 65.7 45 65.8 44.9L72.1 38.1L78.4 44.9C78.5 45 78.6 45.1 78.8 45.1C78.9 45.1 79.1 45 79.2 44.9L80 44C80.1 43.9 80.2 43.8 80.2 43.6C80.2 43.4 80.1 43.3 80 43.2L72.5 35.2C72.3 35.1 72.1 35 72 35C71.9 35 71.7 35.1 71.6 35.2L64.1 43.2C64 43.3 63.9 43.4 63.9 43.6C64 43.7 64.1 43.9 64.2 44Z" fill="black"/>
<path d="M48.2 44L49 44.9C49.1 45 49.2 45.1 49.4 45.1C49.6 45.1 49.7 45 49.8 44.9L56.1 38.1L62.4 44.9C62.5 45 62.6 45.1 62.8 45.1C62.9 45.1 63.1 45 63.2 44.9L64 44C64.1 43.9 64.2 43.8 64.2 43.6C64.2 43.5 64.1 43.3 64 43.2L56.5 35.2C56.3 35.1 56.1 35 56 35C55.9 35 55.7 35.1 55.6 35.2L48.1 43.2C48 43.3 47.9 43.4 47.9 43.6C48 43.7 48.1 43.9 48.2 44Z" fill="black"/>
<path d="M32.2 44L33 44.9C33.1 45 33.2 45.1 33.4 45.1C33.6 45.1 33.7 45 33.8 44.9L40.1 38.1L46.4 44.9C46.5 45 46.6 45.1 46.8 45.1C46.9 45.1 47.1 45 47.2 44.9L48 44C48.1 43.9 48.2 43.8 48.2 43.6C48.2 43.5 48.1 43.3 48 43.2L40.5 35.2C40.3 35.1 40.1 35 40 35C39.9 35 39.7 35.1 39.6 35.2L32.1 43.2C32 43.3 31.9 43.4 31.9 43.6C32 43.7 32.1 43.9 32.2 44Z" fill="black"/>
<path d="M16.2 44L17 44.9C17.1 45 17.2 45.1 17.4 45.1C17.6 45.1 17.7 45 17.8 44.9L24.1 38.1L30.4 44.9C30.5 45 30.6 45.1 30.8 45.1C30.9 45.1 31.1 45 31.2 44.9L32 44C32.1 43.9 32.2 43.8 32.2 43.6C32.2 43.5 32.1 43.3 32 43.2L24.5 35.2C24.3 35.1 24.1 35 24 35C23.9 35 23.7 35.1 23.6 35.2L16.1 43.2C16 43.3 15.9 43.4 15.9 43.6C16 43.7 16.1 43.9 16.2 44Z" fill="black"/>
<path d="M75.3 8.9C75.1 8.7 74.8 8.7 74.6 8.9L72 11.4L69.4 8.9C69.2 8.7 68.9 8.7 68.7 8.9L68.4 9.2C68.3 9.3 68.3 9.4 68.3 9.5C68.3 9.6 68.4 9.7 68.4 9.8L71.7 13C71.8 13.1 71.9 13.1 72 13.1C72.1 13.1 72.2 13.1 72.3 13L75.6 9.8C75.7 9.7 75.7 9.6 75.7 9.5C75.7 9.4 75.6 9.3 75.6 9.2L75.3 8.9Z" fill="black"/>
<path d="M68.7 7.10001C68.8 7.20001 68.9 7.20001 69 7.20001C69.1 7.20001 69.2 7.20001 69.3 7.10001L72 4.60001L74.6 7.10001C74.8 7.30001 75.1 7.30001 75.3 7.10001L75.6 6.80001C75.7 6.70001 75.7 6.60001 75.7 6.50001C75.7 6.40001 75.6 6.30001 75.6 6.20001L72.3 3.00001C72.1 2.80001 71.8 2.80001 71.6 3.00001L68.3 6.20001C68.2 6.30001 68.2 6.40001 68.2 6.50001C68.2 6.60001 68.3 6.70001 68.3 6.80001L68.7 7.10001Z" fill="black"/>
<path d="M80 68.5C80 68.8 79.8 69 79.5 69H64.5C64.2 69 64 68.8 64 68.5V67.5C64 67.2 64.2 67 64.5 67H79.5C79.8 67 80 67.2 80 67.5V68.5Z" fill="black"/>
<path d="M80 72.5C80 72.8 79.9 73 79.7 73H64.3C64.1 73 64 72.8 64 72.5V71.5C64 71.2 64.1 71 64.3 71H79.7C79.9 71 80 71.2 80 71.5V72.5Z" fill="black"/>
<path d="M80 76.5C80 76.8 79.9 77 79.8 77H64.2C64.1 77 64 76.8 64 76.5V75.5C64 75.2 64.1 75 64.2 75H79.8C79.9 75 80 75.2 80 75.5V76.5Z" fill="black"/>
<path d="M80 84.5C80 84.8 79.8 85 79.5 85H64.5C64.2 85 64 84.8 64 84.5V83.5C64 83.2 64.2 83 64.5 83H79.5C79.8 83 80 83.2 80 83.5V84.5Z" fill="black"/>
<path d="M77 88.5C77 88.8 76.9 89 76.7 89H67.3C67.1 89 67 88.8 67 88.5V87.5C67 87.2 67.1 87 67.3 87H76.7C76.9 87 77 87.2 77 87.5V88.5Z" fill="black"/>
<path d="M75 92.5C75 92.8 74.9 93 74.8 93H69.2C69.1 93 69 92.8 69 92.5V91.5C69 91.2 69.1 91 69.2 91H74.8C74.9 91 75 91.2 75 91.5V92.5Z" fill="black"/>
</g>
<defs>
<clipPath id="clip0_773_360">
<rect width="80" height="96" fill="white"/>
</clipPath>
</defs>
</svg>
