<svg width="18" height="16" viewBox="0 0 18 16" fill="none" xmlns="http://www.w3.org/2000/svg">
<path d="M14.6656 6H12.6656C11.4937 6 10.5281 6.8719 10.3656 8H7.6312C7.4687 6.8719 6.5031 6 5.3313 6H3.3312C2.0469 6 1 7.0469 1 8.3344C1 9.6219 2.0469 10.6688 3.3344 10.6688H5.3344C6.5062 10.6688 7.4719 9.7969 7.6344 8.6688H10.3687C10.5312 9.7969 11.4969 10.6688 12.6687 10.6688H14.6687C15.9562 10.6688 17.0031 9.6219 17.0031 8.3344C17.0031 7.0469 15.9531 6 14.6656 6ZM5.3344 10H3.3344C2.4156 10 1.6687 9.2532 1.6687 8.3344C1.6687 7.4157 2.4156 6.6688 3.3344 6.6688H5.3344C6.1375 6.6688 6.8125 7.2438 6.9688 8.0032H6C5.8156 8.0032 5.6656 8.1532 5.6656 8.3375C5.6656 8.5219 5.8156 8.6719 6 8.6719H6.9656C6.8125 9.4282 6.1375 10 5.3344 10ZM14.6656 10H12.6656C11.8625 10 11.1875 9.425 11.0312 8.6657H12C12.1844 8.6657 12.3344 8.5157 12.3344 8.3313C12.3344 8.1469 12.1844 7.9969 12 7.9969H11.0344C11.1906 7.2375 11.8625 6.6625 12.6687 6.6625H14.6687C15.5875 6.6625 16.3344 7.4094 16.3344 8.3282C16.3344 9.2469 15.5844 10 14.6656 10Z" fill="#22005D" stroke="#22005D"/>
</svg>
