<svg width="16" height="16" viewBox="0 0 16 16" fill="none" xmlns="http://www.w3.org/2000/svg">
<path d="M13 1.33089H12.3333C12.2449 1.33089 12.1601 1.36603 12.0976 1.42854C12.0351 1.49106 12 1.57581 12 1.66422V2.33089C12 2.5961 11.8946 2.85038 11.7071 3.03792C11.5196 3.22545 11.2652 3.33089 11 3.33089H5C4.73478 3.33089 4.48043 3.22545 4.29289 3.03792C4.10536 2.85038 4 2.5961 4 2.33089V1.66422C4 1.57581 3.96488 1.49106 3.90237 1.42854C3.83986 1.36603 3.75507 1.33089 3.66667 1.33089H3C2.73478 1.33089 2.48043 1.43632 2.29289 1.62386C2.10536 1.81139 2 2.06567 2 2.33089V14.9976C2 15.2628 2.10536 15.517 2.29289 15.7046C2.48043 15.8921 2.73478 15.9976 3 15.9976H13C13.2652 15.9976 13.5196 15.8921 13.7071 15.7046C13.8946 15.517 14 15.2628 14 14.9976V2.33089C14 2.06567 13.8946 1.81139 13.7071 1.62386C13.5196 1.43632 13.2652 1.33089 13 1.33089Z" fill="#22005D"/>
<path d="M4.99996 2.66423H11C11.0884 2.66423 11.1731 2.62908 11.2357 2.56657C11.2982 2.50406 11.3333 2.4193 11.3333 2.33089V1.66423C11.3333 1.39901 11.2279 1.14473 11.0404 0.957194C10.8529 0.769658 10.5985 0.664225 10.3333 0.664225H9.1533C9.03609 0.462173 8.86786 0.294483 8.66545 0.177897C8.46304 0.0613112 8.23355 0 7.99996 0C7.76637 0 7.53688 0.0613112 7.33447 0.177897C7.13206 0.294483 6.96383 0.462173 6.84662 0.664225H5.66663C5.40141 0.664225 5.14705 0.769658 4.95952 0.957194C4.77198 1.14473 4.66663 1.39901 4.66663 1.66423V2.33089C4.66663 2.4193 4.70174 2.50406 4.76426 2.56657C4.82677 2.62908 4.91155 2.66423 4.99996 2.66423Z" fill="#22005D"/>
</svg>
