<svg width="18" height="16" viewBox="0 0 18 16" fill="none" xmlns="http://www.w3.org/2000/svg">
<path d="M1.33333 8.00098L15.86 8.00098L11.1 12.7676C11.0381 12.8295 11.0033 12.9135 11.0033 13.001C11.0033 13.0885 11.0381 13.1725 11.1 13.2344C11.1619 13.2963 11.2458 13.3309 11.3333 13.3309C11.4208 13.3309 11.5048 13.2963 11.5666 13.2344L16.9 7.90104C16.9337 7.87288 16.9591 7.83587 16.9733 7.79427C17.0066 7.71312 17.0066 7.62217 16.9733 7.54102C16.9591 7.49942 16.9337 7.46242 16.9 7.43425L11.5666 2.10091C11.5367 2.06903 11.5006 2.04374 11.4604 2.02637C11.4203 2.009 11.3771 2 11.3333 2C11.2896 2 11.2463 2.009 11.2062 2.02637C11.1661 2.04374 11.1299 2.06903 11.1 2.10091C11.0681 2.13084 11.0427 2.16706 11.0253 2.2072C11.0079 2.24733 10.999 2.29058 10.999 2.33431C10.999 2.37804 11.0079 2.4213 11.0253 2.46143C11.0427 2.50156 11.0681 2.53778 11.1 2.56771L15.86 7.33431L1.33333 7.33431C1.24492 7.33431 1.16016 7.36946 1.09765 7.43197C1.03514 7.49448 0.999997 7.57924 0.999997 7.66765C0.999997 7.75605 1.03514 7.84081 1.09765 7.90332C1.16016 7.96583 1.24492 8.00098 1.33333 8.00098Z" fill="#22005D" stroke="#22005D"/>
</svg>
