<svg width="18" height="16" viewBox="0 0 18 16" fill="none" xmlns="http://www.w3.org/2000/svg">
<path d="M1.33333 3.66398H16.6667C16.7551 3.66398 16.8399 3.62882 16.9024 3.56627C16.9649 3.50371 17 3.4189 17 3.33044C17 3.24198 16.9649 3.15717 16.9024 3.09462C16.8399 3.03207 16.7551 2.9969 16.6667 2.9969H1.33333C1.24493 2.9969 1.16013 3.03207 1.09762 3.09462C1.0351 3.15717 1 3.24198 1 3.33044C1 3.4189 1.0351 3.50371 1.09762 3.56627C1.16013 3.62882 1.24493 3.66398 1.33333 3.66398Z" fill="#22005D" stroke="#22005D" stroke-width="0.66708"/>
<path d="M16.6667 7.66647H1.33333C1.24493 7.66647 1.16013 7.70164 1.09762 7.76419C1.0351 7.82674 1 7.91155 1 8.00001C1 8.08847 1.0351 8.17329 1.09762 8.23584C1.16013 8.29839 1.24493 8.33355 1.33333 8.33355H16.6667C16.7551 8.33355 16.8399 8.29839 16.9024 8.23584C16.9649 8.17329 17 8.08847 17 8.00001C17 7.91155 16.9649 7.82674 16.9024 7.76419C16.8399 7.70164 16.7551 7.66647 16.6667 7.66647Z" fill="#22005D" stroke="#22005D" stroke-width="0.66708"/>
<path d="M16.6667 12.336H1.33333C1.24493 12.336 1.16013 12.3712 1.09762 12.4338C1.0351 12.4963 1 12.5811 1 12.6696C1 12.758 1.0351 12.8429 1.09762 12.9054C1.16013 12.968 1.24493 13.0031 1.33333 13.0031H16.6667C16.7551 13.0031 16.8399 12.968 16.9024 12.9054C16.9649 12.8429 17 12.758 17 12.6696C17 12.5811 16.9649 12.4963 16.9024 12.4338C16.8399 12.3712 16.7551 12.336 16.6667 12.336Z" fill="#22005D" stroke="#22005D" stroke-width="0.66708"/>
</svg>
