<svg width="18" height="18" viewBox="0 0 18 18" fill="none" xmlns="http://www.w3.org/2000/svg">
<path d="M13.6656 6.6656C13.6656 6.85 13.8156 7 14 7H16.6656C16.85 7 17 6.85 17 6.6656V4.0281C17 3.8438 16.85 3.6937 16.6656 3.6937C16.4812 3.6937 16.3313 3.8438 16.3313 4.0281V5.9938C14.5563 2.7281 12.0312 1 9 1C4.5875 1 1 4.5875 1 9C1 13.4125 4.5875 17 9 17C13.4125 17 17 13.4125 17 9C17 8.8156 16.85 8.6656 16.6656 8.6656C16.4812 8.6656 16.3313 8.8156 16.3313 9C16.3313 13.0437 13.0406 16.3344 8.9969 16.3344C4.9531 16.3344 1.6656 13.0437 1.6656 9C1.6656 4.9563 4.9563 1.6656 9 1.6656C12.4437 1.6656 14.5531 4.1031 15.7625 6.3313H14C13.8156 6.3344 13.6656 6.4813 13.6656 6.6656Z" fill="#22005D" stroke="#22005D"/>
</svg>
