<svg width="16" height="18" viewBox="0 0 16 18" fill="none" xmlns="http://www.w3.org/2000/svg">
<path d="M7.99839 1.33337L7.99839 15.8616L3.23128 11.1011C3.16939 11.0392 3.08538 11.0044 2.99786 11.0044C2.91033 11.0044 2.82633 11.0392 2.76444 11.1011C2.70254 11.163 2.66791 11.2469 2.66791 11.3344C2.66791 11.4219 2.70254 11.5059 2.76443 11.5678L8.09833 16.9017C8.1265 16.9354 8.16351 16.9608 8.20511 16.975C8.28628 17.0083 8.37723 17.0083 8.4584 16.975C8.5 16.9608 8.53701 16.9354 8.56518 16.9017L13.8991 11.5678C13.931 11.5378 13.9563 11.5017 13.9736 11.4616C13.991 11.4214 14 11.3782 14 11.3344C14 11.2907 13.991 11.2474 13.9736 11.2073C13.9563 11.1672 13.931 11.131 13.8991 11.1011C13.8691 11.0692 13.8329 11.0437 13.7928 11.0264C13.7526 11.009 13.7094 11.0001 13.6657 11.0001C13.6219 11.0001 13.5787 11.009 13.5385 11.0264C13.4984 11.0437 13.4622 11.0692 13.4322 11.1011L8.66512 15.8616L8.66512 1.33337C8.66512 1.24495 8.62998 1.16019 8.56746 1.09767C8.50494 1.03515 8.42017 1 8.33175 1C8.24334 1 8.15857 1.03515 8.09605 1.09767C8.03353 1.16019 7.99839 1.24495 7.99839 1.33337Z" fill="#131F0D" stroke="#735EAB"/>
</svg>
