<svg width="18" height="16" viewBox="0 0 18 16" fill="none" xmlns="http://www.w3.org/2000/svg">
<path d="M16.6666 7.33048L2.13841 7.33048L6.89892 2.56337C6.96081 2.50148 6.99561 2.41748 6.99561 2.32995C6.99561 2.24242 6.96081 2.15842 6.89892 2.09653C6.83703 2.03464 6.7531 2 6.66558 2C6.57805 2 6.49413 2.03464 6.43223 2.09653L1.09834 7.43042C1.06458 7.45859 1.03922 7.4956 1.02501 7.53721C0.991664 7.61837 0.991664 7.70932 1.02501 7.79049C1.03922 7.83209 1.06458 7.8691 1.09834 7.89727L6.43223 13.2312C6.46216 13.2631 6.49831 13.2883 6.53845 13.3057C6.57858 13.3231 6.62184 13.3321 6.66558 13.3321C6.70931 13.3321 6.75257 13.3231 6.79271 13.3057C6.83284 13.2883 6.86899 13.2631 6.89892 13.2312C6.93081 13.2012 6.95626 13.165 6.97363 13.1249C6.99101 13.0847 6.99992 13.0415 6.99992 12.9977C6.99992 12.954 6.99101 12.9107 6.97363 12.8706C6.95626 12.8305 6.93081 12.7942 6.89892 12.7643L2.13841 7.99721L16.6666 7.99722C16.755 7.99722 16.8398 7.96207 16.9023 7.89955C16.9649 7.83703 17 7.75226 17 7.66385C17 7.57543 16.9649 7.49066 16.9023 7.42814C16.8398 7.36563 16.755 7.33048 16.6666 7.33048Z" fill="#131F0D" stroke="#735EAB"/>
</svg>
