<svg width="16" height="17" viewBox="0 0 16 17" fill="none" xmlns="http://www.w3.org/2000/svg">
<path d="M11.9581 0.000672825H5.54089H5.49131C5.43275 0.0147069 5.379 0.0440353 5.3355 0.0856659L1.08567 4.33549C1.04404 4.37899 1.01471 4.43275 1.00068 4.4913C0.999774 4.50781 0.999774 4.52441 1.00068 4.54093C1.00068 4.54093 1.00068 4.54088 1.00068 4.58338V14.4996C1.00068 14.5936 1.03797 14.6837 1.10439 14.7501C1.17081 14.8165 1.2609 14.8538 1.35483 14.8538H11.9794C12.0733 14.8538 12.1634 14.8165 12.2298 14.7501C12.2962 14.6837 12.3336 14.5936 12.3336 14.4996V0.333555C12.3308 0.287019 12.319 0.241477 12.2986 0.199538C12.2783 0.157598 12.2498 0.120139 12.215 0.0892109C12.1801 0.0582823 12.1394 0.0345366 12.0953 0.0193488C12.0513 0.004161 12.0047 -0.00220282 11.9581 0.000672825ZM5.22924 1.21185V3.89635C5.22924 3.99027 5.19194 4.08033 5.12552 4.14674C5.05911 4.21316 4.96901 4.2505 4.87508 4.2505H2.19062L5.22924 1.21185Z" fill="#22005D"/>
<path d="M14.0831 2.1256H13.0206V15.2292C13.0206 15.3232 12.9833 15.4132 12.9169 15.4796C12.8505 15.546 12.7604 15.5834 12.6664 15.5834H3.10434V16.6458C3.10434 16.7398 3.14163 16.8298 3.20805 16.8962C3.27446 16.9627 3.36456 17 3.45849 17H14.0831C14.177 17 14.2671 16.9627 14.3335 16.8962C14.3999 16.8298 14.4372 16.7398 14.4372 16.6458V2.47975C14.4372 2.38583 14.3999 2.29577 14.3335 2.22936C14.2671 2.16294 14.177 2.1256 14.0831 2.1256Z" fill="#22005D"/>
</svg>
