<svg width="18" height="15" viewBox="0 0 18 15" fill="none" xmlns="http://www.w3.org/2000/svg">
<path d="M16.665 6.32992L2.13829 6.32992L6.8983 1.56331C6.96018 1.50143 6.99498 1.41743 6.99498 1.32992C6.99498 1.2424 6.96018 1.1584 6.8983 1.09652C6.83641 1.03463 6.7525 1 6.66498 1C6.57746 1 6.49355 1.03463 6.43166 1.09652L1.09833 6.42985C1.06458 6.45802 1.03922 6.49502 1.025 6.53662C0.991665 6.61777 0.991665 6.70872 1.025 6.78988C1.03922 6.83148 1.06458 6.86848 1.09833 6.89665L6.43166 12.23C6.46159 12.2619 6.49773 12.2872 6.53786 12.3045C6.57799 12.3219 6.62125 12.3309 6.66498 12.3309C6.70871 12.3309 6.75196 12.3219 6.79209 12.3045C6.83223 12.2872 6.86837 12.2619 6.89829 12.23C6.93018 12.2001 6.95563 12.1638 6.973 12.1237C6.99038 12.0836 6.99929 12.0403 6.99929 11.9966C6.99929 11.9529 6.99038 11.9096 6.973 11.8695C6.95563 11.8293 6.93018 11.7931 6.89829 11.7632L2.13829 6.99658L16.665 6.99658C16.7534 6.99658 16.8381 6.96144 16.9007 6.89893C16.9632 6.83641 16.9983 6.75165 16.9983 6.66325C16.9983 6.57484 16.9632 6.49008 16.9007 6.42757C16.8381 6.36506 16.7534 6.32992 16.665 6.32992Z" fill="#22005D" stroke="#22005D"/>
</svg>
