<svg width="33" height="53" viewBox="0 0 33 53" fill="none" xmlns="http://www.w3.org/2000/svg">
<g clip-path="url(#clip0_773_322)">
<path opacity="0.75" d="M9.3 9.5L5.5 13.1L1.7 9.5L0.5 10.6L5.5 15.3L10.5 10.6L9.3 9.5Z" fill="black"/>
<path opacity="0.75" d="M2.6 30.6L6.2 34.4L2.6 38.2L3.7 39.4L8.4 34.4L3.7 29.4L2.6 30.6Z" fill="black"/>
<path d="M13.6 30.6L17.2 34.4L13.6 38.2L14.7 39.4L19.4 34.4L14.7 29.4L13.6 30.6Z" fill="black"/>
<path d="M24.6 30.6L28.2 34.4L24.6 38.2L25.7 39.4L30.4 34.4L25.7 29.4L24.6 30.6Z" fill="#1D192B"/>
<path opacity="0.75" d="M6 5.5L4.5 6.9L3 5.5L2.5 5.9L4.5 7.8L6.5 5.9L6 5.5Z" fill="black"/>
<path d="M17 5.5L15.5 6.9L14 5.5L13.5 5.9L15.5 7.8L17.5 5.9L17 5.5Z" fill="black"/>
<path d="M28 5.5L26.5 6.9L25 5.5L24.5 5.9L26.5 7.8L28.5 5.9L28 5.5Z" fill="#1D192B"/>
<path d="M25 2.8L26.5 1.4L28 2.8L28.5 2.4L26.5 0.5L24.5 2.4L25 2.8Z" fill="#1D192B"/>
<path d="M14 2.8L15.5 1.4L17 2.8L17.5 2.4L15.5 0.5L13.5 2.4L14 2.8Z" fill="black"/>
<path opacity="0.75" d="M3 2.8L4.5 1.4L6 2.8L6.5 2.4L4.5 0.5L2.5 2.4L3 2.8Z" fill="black"/>
<path d="M12.7 15.3L16.5 11.7L20.3 15.3L21.5 14.2L16.5 9.5L11.5 14.2L12.7 15.3Z" fill="black"/>
<path d="M31.3 9.5L27.5 13.1L23.7 9.5L22.5 10.6L27.5 15.3L32.5 10.6L31.3 9.5Z" fill="#1D192B"/>
<path opacity="0.75" d="M7.6 23.8H7.2L7 23.6C7.6 23 7.9 22.1 7.9 21.2C7.9 19.1 6.2 17.5 4.2 17.5C2.2 17.5 0.5 19.2 0.5 21.2C0.5 23.2 2.2 24.9 4.2 24.9C5.1 24.9 6 24.6 6.6 24L6.8 24.2V24.7L9.7 27.6L10.6 26.7L7.6 23.8ZM4.2 23.8C2.8 23.8 1.6 22.7 1.6 21.2C1.6 19.7 2.7 18.6 4.2 18.6C5.6 18.6 6.8 19.7 6.8 21.2C6.8 22.6 5.6 23.8 4.2 23.8Z" fill="black"/>
<path d="M18.6 23.8H18.1L18 23.6C18.6 23 18.9 22.1 18.9 21.2C18.9 19.1 17.2 17.5 15.2 17.5C13.1 17.5 11.5 19.2 11.5 21.2C11.5 23.2 13.2 24.9 15.2 24.9C16.1 24.9 17 24.6 17.6 24L17.8 24.2V24.7L20.7 27.6L21.6 26.7L18.6 23.8ZM15.2 23.8C13.8 23.8 12.6 22.7 12.6 21.2C12.6 19.7 13.7 18.6 15.2 18.6C16.6 18.6 17.8 19.7 17.8 21.2C17.8 22.6 16.6 23.8 15.2 23.8Z" fill="black"/>
<path d="M29.6 23.8H29.1L29 23.6C29.6 23 29.9 22.1 29.9 21.2C29.9 19.1 28.2 17.5 26.2 17.5C24.2 17.5 22.5 19.2 22.5 21.2C22.5 23.2 24.2 24.9 26.2 24.9C27.1 24.9 28 24.6 28.6 24L28.8 24.2V24.7L31.7 27.6L32.6 26.7L29.6 23.8ZM26.2 23.8C24.8 23.8 23.6 22.7 23.6 21.2C23.6 19.7 24.7 18.6 26.2 18.6C27.6 18.6 28.8 19.7 28.8 21.2C28.8 22.6 27.6 23.8 26.2 23.8Z" fill="#1D192B"/>
<g opacity="0.75">
<path d="M10.4 43.2C10.5 43 10.5 42.9 10.2 42.9H0.7C0.5 42.9 0.4 43 0.5 43.2L4.1 47.9C4.2 48.1 4.4 48.4 4.4 48.6L4.6 52C4.6 52.2 4.8 52.4 5 52.4H6C6.2 52.4 6.4 52.2 6.4 52L6.6 48.6C6.6 48.4 6.7 48 6.9 47.9L10.4 43.2Z" fill="black"/>
</g>
<path d="M21.4 43.2C21.5 43 21.5 42.9 21.2 42.9H11.7C11.5 42.9 11.4 43 11.5 43.2L15.1 47.9C15.2 48.1 15.4 48.4 15.4 48.6L15.6 52C15.6 52.2 15.8 52.4 16 52.4H17C17.2 52.4 17.4 52.2 17.4 52L17.6 48.6C17.6 48.4 17.7 48 17.9 47.9L21.4 43.2Z" fill="black"/>
<path d="M32.4 43.2C32.5 43 32.5 42.9 32.2 42.9H22.7C22.5 42.9 22.4 43 22.5 43.2L26.1 47.9C26.2 48.1 26.4 48.4 26.4 48.6L26.6 52C26.6 52.2 26.8 52.4 27 52.4H28C28.2 52.4 28.4 52.2 28.4 52L28.6 48.6C28.6 48.4 28.7 48 28.9 47.9L32.4 43.2Z" fill="#1D192B"/>
</g>
<defs>
<clipPath id="clip0_773_322">
<rect width="33" height="53" fill="white"/>
</clipPath>
</defs>
</svg>
