<svg width="16" height="16" viewBox="0 0 16 16" fill="none" xmlns="http://www.w3.org/2000/svg">
<path d="M14.1391 1.3913H13.7913C13.7111 0.998482 13.4977 0.645433 13.1871 0.391899C12.8765 0.138365 12.4879 -8.17915e-05 12.087 3.6252e-08H4.43478C4.03386 -8.17915e-05 3.64524 0.138365 3.33466 0.391899C3.02408 0.645433 2.81061 0.998482 2.73043 1.3913H2.34783C2.25558 1.3913 2.16713 1.42798 2.1019 1.49321C2.03667 1.55844 2 1.64688 2 1.73913V3.13043C2 3.22268 2.03667 3.31113 2.1019 3.37636C2.16713 3.44159 2.25558 3.47826 2.34783 3.47826H14.1739C14.2662 3.47826 14.3546 3.44159 14.4199 3.37636C14.4851 3.31113 14.5217 3.22268 14.5217 3.13043V1.73913C14.522 1.69037 14.512 1.64213 14.4924 1.59749C14.4727 1.55285 14.444 1.51284 14.4079 1.48004C14.3718 1.44725 14.3292 1.42238 14.2829 1.4071C14.2366 1.39182 14.1877 1.38643 14.1391 1.3913Z" fill="#735EAB"/>
<path d="M13.4434 4.17391H3.00866C2.91641 4.17391 2.82793 4.21058 2.76269 4.27581C2.69746 4.34104 2.66084 4.42949 2.66084 4.52174V14.2609C2.66084 14.7221 2.84407 15.1645 3.17022 15.4907C3.49637 15.8168 3.93872 16 4.39997 16H12.0521C12.5134 16 12.9557 15.8168 13.2819 15.4907C13.608 15.1645 13.7913 14.7221 13.7913 14.2609V4.52174C13.7913 4.42949 13.7546 4.34104 13.6894 4.27581C13.6242 4.21058 13.5357 4.17391 13.4434 4.17391ZM5.44344 13.5652C5.44344 13.6575 5.40681 13.7459 5.34158 13.8111C5.27635 13.8764 5.18787 13.913 5.09562 13.913C5.00337 13.913 4.91488 13.8764 4.84965 13.8111C4.78442 13.7459 4.74779 13.6575 4.74779 13.5652V6.60869C4.74779 6.51645 4.78442 6.428 4.84965 6.36277C4.91488 6.29754 5.00337 6.26087 5.09562 6.26087C5.18787 6.26087 5.27635 6.29754 5.34158 6.36277C5.40681 6.428 5.44344 6.51645 5.44344 6.60869V13.5652ZM8.57388 13.5652C8.57388 13.6575 8.53725 13.7459 8.47202 13.8111C8.40679 13.8764 8.3183 13.913 8.22605 13.913C8.1338 13.913 8.04532 13.8764 7.98009 13.8111C7.91486 13.7459 7.87823 13.6575 7.87823 13.5652V6.60869C7.87823 6.51645 7.91486 6.428 7.98009 6.36277C8.04532 6.29754 8.1338 6.26087 8.22605 6.26087C8.3183 6.26087 8.40679 6.29754 8.47202 6.36277C8.53725 6.428 8.57388 6.51645 8.57388 6.60869V13.5652ZM11.7043 13.5652C11.7043 13.6575 11.6677 13.7459 11.6025 13.8111C11.5372 13.8764 11.4487 13.913 11.3565 13.913C11.2642 13.913 11.1758 13.8764 11.1105 13.8111C11.0453 13.7459 11.0087 13.6575 11.0087 13.5652V6.60869C11.0087 6.51645 11.0453 6.428 11.1105 6.36277C11.1758 6.29754 11.2642 6.26087 11.3565 6.26087C11.4487 6.26087 11.5372 6.29754 11.6025 6.36277C11.6677 6.428 11.7043 6.51645 11.7043 6.60869V13.5652Z" fill="#735EAB"/>
</svg>
