<svg width="16" height="16" viewBox="0 0 16 16" fill="none" xmlns="http://www.w3.org/2000/svg">
<path d="M15.4236 9.74389L13.9597 8.60459C13.9707 8.40382 13.9707 8.20256 13.9597 8.00179C13.9708 7.80322 13.9708 7.60418 13.9597 7.40562L15.4236 6.25969C15.5566 6.15286 15.647 6.00206 15.6786 5.83445C15.7102 5.66684 15.6808 5.49346 15.5958 5.34558L14.079 2.69599C13.9959 2.54492 13.8606 2.42931 13.6985 2.37078C13.5363 2.31226 13.3584 2.31484 13.198 2.37806L11.4757 3.04045C11.1527 2.80672 10.8064 2.60693 10.4424 2.44428L10.1774 0.616063C10.155 0.445719 10.0714 0.289347 9.94222 0.17603C9.81306 0.062712 9.64712 0.000128825 9.4753 9.92676e-08H6.4283C6.25747 -9.029e-05 6.09237 0.0615509 5.96336 0.173523C5.83435 0.285495 5.75011 0.440293 5.72616 0.609433L5.46119 2.44428C5.09828 2.60914 4.75222 2.80881 4.42785 3.04045L2.69901 2.37806C2.54101 2.31794 2.36671 2.31628 2.20759 2.37337C2.04847 2.43046 1.91502 2.54251 1.83127 2.68936L0.30777 5.33895C0.221423 5.48647 0.191301 5.66024 0.22295 5.82822C0.254598 5.9962 0.34585 6.14707 0.479959 6.25305L1.94387 7.39899C1.89973 7.79741 1.89973 8.19953 1.94387 8.59796L0.479959 9.74389C0.346999 9.85071 0.25659 10.0015 0.225011 10.1691C0.193433 10.3367 0.222798 10.5101 0.30777 10.658L1.82464 13.3076C1.9077 13.4587 2.04296 13.5743 2.20512 13.6328C2.36729 13.6913 2.54524 13.6887 2.70564 13.6255L4.42785 12.9631C4.75242 13.1945 5.09845 13.3941 5.46119 13.5593L5.72616 15.3875C5.74877 15.5572 5.8326 15.7128 5.9619 15.825C6.09121 15.9373 6.25709 15.9984 6.4283 15.9969H9.4753C9.64552 15.9986 9.81055 15.9384 9.93971 15.8275C10.0689 15.7167 10.1534 15.5627 10.1774 15.3941L10.4424 13.5593C10.8054 13.3959 11.1496 13.1938 11.4691 12.9565L13.2046 13.6189C13.2863 13.6537 13.3741 13.6717 13.4629 13.6719C13.5877 13.6708 13.7099 13.6364 13.8171 13.5724C13.9242 13.5084 14.0123 13.417 14.0723 13.3076L15.6025 10.658C15.6854 10.509 15.7129 10.3355 15.6802 10.1682C15.6474 10.0009 15.5566 9.85062 15.4236 9.74389V9.74389ZM7.9518 10.6381C7.42776 10.6381 6.91549 10.4827 6.47976 10.1916C6.04404 9.90047 5.70446 9.48664 5.50392 9.0025C5.30338 8.51835 5.25088 7.98557 5.35312 7.4716C5.45535 6.95763 5.70771 6.48558 6.07826 6.11503C6.44881 5.74448 6.92094 5.49212 7.43491 5.38989C7.94888 5.28765 8.48162 5.34007 8.96577 5.54061C9.44992 5.74115 9.8637 6.08077 10.1548 6.51649C10.446 6.95221 10.6014 7.46449 10.6014 7.98853C10.6014 8.69124 10.3222 9.36513 9.82534 9.86203C9.32845 10.3589 8.65451 10.6381 7.9518 10.6381Z" fill="#22005D"/>
</svg>
